<svg version="1.2" xmlns="http://www.w3.org/2000/svg" viewBox="0 0 3000 2000" width="3000" height="2000">
	<title>11116-ai</title>
	<style>
		tspan { white-space:pre } 
		.s0 { fill: #ffffff } 
		.s1 { fill: #ebf3fa } 
		.s2 { fill: #ff0000 } 
		.s3 { fill: #ff0000;stroke: #ff0000 } 
		.s4 { fill: #00ffff;stroke: #ff0000 } 
		.s5 { fill: #000000 } 
		.s6 { opacity: .4;fill: #cddff9 } 
		.s7 { fill: #cddff9 } 
		.s8 { fill: #dfebfd } 
		.s9 { fill: #aac9f5 } 
		.s10 { fill: #cde0fb } 
		.s11 { fill: #2b478b } 
		.s12 { fill: #dde7fe } 
		.s13 { fill: #aec3ff } 
		.s14 { fill: #233862 } 
		.s15 { fill: #ffb27d } 
		.s16 { fill: #ed985f } 
		.s17 { fill: #2c3a64 } 
		.s18 { fill: #582a46 } 
		.s19 { fill: #f234a8 } 
		.s20 { fill: #cfdeff } 
		.s21 { fill: #1f1f89 } 
		.s22 { fill: #f77d48 } 
		.s23 { fill: #f99746 } 
		.s24 { fill: #ffb93e } 
		.s25 { fill: #ffa412 } 
		.s26 { fill: #ffeddc } 
		.s27 { fill: #db6a1d } 
		.s28 { fill: #e5c1a1 } 
		.s29 { fill: #f9ddbf } 
		.s30 { opacity: .5;fill: #e2810e } 
		.s31 { fill: #e2810e } 
		.s32 { fill: #ed975d } 
		.s33 { fill: #e87e10 } 
		.s34 { fill: #8ea3ed } 
		.t35 { font-size: 39px;fill: #ffffff;font-weight: 400;font-family: "Captureit2", "Capture it 2" } 
		.t36 { font-size: 24px;fill: #ffffff;font-weight: 700;font-family: "BerkshireSwash-Regular", "Berkshire Swash" } 
		.s37 { fill: #4075c1 } 
		.s38 { fill: #163560 } 
		.s39 { fill: #163460 } 
		.s40 { fill: #b8815b } 
		.s41 { fill: #2a539b } 
		.s42 { fill: #2e3552 } 
	</style>
	<g id="‘лой_1">
		<path id="&lt;Path&gt;" class="s0" d="m3000 2000h-3000v-2000h3000z"/>
		<path id="&lt;Path&gt;" class="s1" d="m356.5 1724.2c0 0-285.5-273.3 4.1-668.8 258.7-353.5 65.5-522.4 331-694.6 268.5-174.1 496.8-68.1 753.8 66.5 256.9 134.6 611.7-187.6 995-16.3 383.4 171.3 328.3 433.1 233.4 702.3-80 227.2 163.4 391.4 30.6 611.3 0 0-2356.1-8.6-2347.9-0.4z"/>
		<g id="&lt;Group&gt;">
			<text id="Layer 5" style="transform: matrix(1,0,0,1,230.81,269.851)" >
			</text>
			<text id="Layer 6" style="transform: matrix(1,0,0,1,1058,624)" >
			</text>
			<text id="Layer 7" style="transform: matrix(1,0,0,1,1099.5,533.5)" >
			</text>
			<text id="Layer 8" style="transform: matrix(1,0,0,1,230.81,269.851)" >
			</text>
			<path id="Shape 2" class="s0" d="m566 972c6.8-2.8 1 1.1-3 7-4 5.9-0.3 0.1-4-4-3.7-4.1 0.2-0.2 7-3z"/>
			<path id="Shape 3" class="s0" d="m601 972c-6 4.5 2.5-10.3 5-5 2.5 5.3 10.5 4.4 3 5"/>
			<path id="Shape 1" class="s1" d="m575.9 990.1l-1.1 4.8-8.8-1.9 1.1-4.9c0 0 9.9 3.9 4.9 2.9-5-1 3.9-0.9 3.9-0.9z"/>
			<path id="Shape 4" class="s2" d="m594.3 969.9l10.4 3.6-10.4 3.6z"/>
			<path id="Shape 5" class="s3" d="m560 973.7l8 2.8-8 2.8z"/>
			<path id="Shape 6" class="s3" d="m592.4 973.5l11.2 2-11.2 2z"/>
			<path id="Shape 7" class="s3" d="m564.5 981c-2.5 0-4.5-2-4.5-4.5 0-2.5 2-4.5 4.5-4.5 2.5 0 4.5 2 4.5 4.5 0 2.5-2 4.5-4.5 4.5z"/>
			<path id="Shape 8" class="s4" d="m600 981c-2.8 0-5-2-5-4.5 0-2.5 2.2-4.5 5-4.5 2.8 0 5 2 5 4.5 0 2.5-2.2 4.5-5 4.5z"/>
			<path id="Shape 9" class="s5" d="m594 977c-5 0-9-2.5-9-5.5 0-3 4-5.5 9-5.5 5 0 9 2.5 9 5.5 0 3-4 5.5-9 5.5z"/>
			<path id="Shape 10" class="s5" d="m598 978c-6.1 0-11-2.5-11-5.5 0-3 4.9-5.5 11-5.5 6.1 0 11 2.5 11 5.5 0 3-4.9 5.5-11 5.5z"/>
			<path id="Shape 11" class="s5" d="m587.5 980c-8.6 0-15.5-2.9-15.5-6.5 0-3.6 6.9-6.5 15.5-6.5 8.6 0 15.5 2.9 15.5 6.5 0 3.6-6.9 6.5-15.5 6.5z"/>
			<path id="Shape 12" class="s5" d="m570 987c-2.2 0-4-5.6-4-12.5 0-6.9 1.8-12.5 4-12.5 2.2 0 4 5.6 4 12.5 0 6.9-1.8 12.5-4 12.5z"/>
			<path id="&lt;Path&gt;" class="s6" d="m1828.1 732.4c0 0 40.5-169.5 175.5-187.8 0 0 26.2-3.2 34.9 25.8 8.7 28.9-43.5 29-75.8 40.5-32.3 11.6-107.7 60.7-134.6 121.5z"/>
			<path id="&lt;Path&gt;" class="s6" d="m1830.6 764.5c0 0 77.4-156.1 213.1-143.6 0 0 26.3 2.8 28.3 32.9 1.9 30.2-49 18.5-83 22.5-34.1 4-118.6 35-158.4 88.2z"/>
			<path id="&lt;Path&gt;" class="s7" d="m2238 1414.5c0 0 40.5-169.4 175.5-187.8 0 0 26.2-3.1 34.9 25.8 8.7 28.9-43.5 29-75.8 40.6-32.3 11.5-107.7 60.7-134.6 121.4z"/>
			<path id="&lt;Path&gt;" class="s8" d="m2242.4 1358.9c0 0-22.2-172.8 97.6-237.7 0 0 23.5-12.2 41.8 11.8 18.4 24-30.4 42.5-56.5 64.8-26.2 22.2-79.3 94.8-82.9 161.1z"/>
			<path id="&lt;Path&gt;" class="s8" d="m2617.5 1493.9c-16.2 3.4-119-1.4-116.8 12.1 2.2 13.4 71 37.1 110.2 26.4 0 0-46.4 104-102.3 96.8-56-7.2-72.2-42.5-106.9-46.4-34.6-3.8-60.3 4.7-43.3 14.6 17.1 9.9 76.1 5.6 103.4 30.4 27.3 24.8 49.5 40.3-3 49.2-52.5 8.9-145.8-0.9-163.2-41.6q-1.1-2.7-2.2-5.1c1 3.4 2.2 5.1 2.2 5.1-9.8 5.3-25.1 31.5-35.8 51.7q0 0 0 0c-1.6 3.4-4 8.2-7.6 14.6q0 0 0 0 0 0 0 0c-1.4 2.9-2.6 5.3-3.4 6.9q0 0.1 0 0.1 0 0.1 0 0.1-1.8 4-3.3 8.4l-10.9-0.4c7-16.1 13.6-25.5 13.6-25.5 29.8-51.2 30-96.6 30-96.6 0 0-98.3-59.4-49-134 0 0 39-45.4 79.5-56.1 0 0-25.2 112.8-3.9 116.2 21.3 3.4 19-127.7 19-127.7 0 0 107.3-47.2 148.6-41.8 0 0-69.2 108.6-47.7 106.7 21.5-2 98.8-111.6 98.8-111.6 0 0 108.9-16.4 124.1 48.3 15.2 64.6-13.9 95.7-30.1 99.2z"/>
			<path id="&lt;Path&gt;" class="s8" d="m644.3 825.7c15.2-64.7 124.1-48.3 124.1-48.3 0 0 77.3 109.7 98.8 111.6 21.5 2-47.7-106.6-47.7-106.6 41.3-5.4 148.6 41.7 148.6 41.7 0 0-2.3 131.1 19 127.7 21.3-3.4-3.9-116.1-3.9-116.1 40.5 10.6 79.5 56.1 79.5 56.1 49.3 74.5-49 134-49 134 0 0 0.2 45.4 30 96.5q0 0 0 0c0 0 6.6 9.4 13.6 25.5l-10.9 0.4q-1.5-4.4-3.2-8.4 0 0-0.1 0 0-0.1 0-0.1c-0.8-1.7-2-4.1-3.4-6.9q0-0.1 0-0.1 0 0 0 0c-3.6-6.4-6-11.1-7.6-14.6q0 0 0 0c-10.7-20.2-26-46.4-35.8-51.7 0 0 1.2-1.7 2.2-5.1q-1.1 2.5-2.2 5.1c-17.4 40.7-110.7 50.5-163.2 41.6-52.5-8.9-30.2-24.4-3-49.1 27.3-24.8 86.3-20.5 103.4-30.4 17-10-8.7-18.5-43.3-14.6-34.7 3.8-50.9 39.1-106.9 46.3-55.9 7.3-102.3-96.7-102.3-96.7 39.2 10.7 108-13 110.2-26.5 2.2-13.4-100.6-8.6-116.8-12.1-16.2-3.4-45.3-34.5-30.1-99.2z"/>
			<path id="&lt;Path&gt;" class="s8" d="m1306.8 509.6c32-61.2 137.6-16.7 137.6-16.7 0 0 49.7 130.5 70.9 137.9 21.1 7.5-20.7-119.8-20.7-119.8 43 5.2 139 80.4 139 80.4 0 0-36 131.5-13.7 133.6 22.4 2.1 26-118.1 26-118.1 38.1 21.2 65.7 77 65.7 77 30.6 87.9-83.9 122.5-83.9 122.5 0 0-11.5 45.8 5.4 105 0 0 4.3 11.2 7.2 29.3l-11.1-2.5q-0.4-4.7-1.1-9.2 0-0.1 0-0.1-0.1-0.1-0.1-0.1c-0.4-1.9-0.9-4.6-1.6-7.9q0 0 0 0 0 0 0 0c-2-7.4-3.2-12.8-3.9-16.6q0-0.1 0-0.1c-5.6-23.1-14.2-53.4-22.8-61.3 0 0 1.6-1.4 3.5-4.5q-1.6 2.1-3.5 4.5c-27.9 36.6-124.6 22.4-175.2-0.1-50.6-22.5-24.2-32.3 9.6-50.3 33.9-17.9 92.3 1.6 112.1-4 19.7-5.7-4-20.8-40-25.9-35.9-5-61.3 26.4-119.6 19.3-58.2-7.1-78.2-123.9-78.2-123.9 36.8 20.8 112.2 14.7 117.9 1.7 5.7-13-99.2-34.6-114.7-42.3-15.4-7.6-36.8-46.5-4.8-107.8z"/>
			<g id="&lt;Group&gt;" style="opacity: .5">
				<path id="&lt;Path&gt;" class="s9" d="m2575.8 601.1l61.8 236.4c2.7 10.4-3.6 21.2-14 23.9l-414.6 108.4c-10.4 2.7-21.2-3.6-23.9-14l-61.8-236.4c-2.7-10.4 3.6-21.2 14-23.9l414.6-108.4c10.4-2.7 21.2 3.6 23.9 14z"/>
				<g id="&lt;Group&gt;">
					<path id="&lt;Path&gt;" class="s10" d="m2403.9 868.3l-110.5 28.9c-4.7 1.2-9.5-1.6-10.7-6.3l-0.3-1c-1.2-4.7 1.6-9.5 6.3-10.7l110.5-28.9c4.7-1.3 9.5 1.6 10.7 6.2l0.3 1.1c1.2 4.7-1.6 9.5-6.3 10.7z"/>
					<g id="&lt;Group&gt;">
						<path id="&lt;Compound Path&gt;" fill-rule="evenodd" class="s10" d="m2346.1 760.5q1.6 6 0.5 10.4-1.4 5.6-6.9 7-5.6 1.5-9.5-2.7-3.1-3.3-4.7-9.3-1.6-6.1-0.5-10.4 1.4-5.6 6.9-7.1 5.6-1.4 9.5 2.8 3.1 3.2 4.7 9.3zm-5.1 1.3q-1-3.8-2.5-6.2-2.3-3.5-5.3-2.7-3.1 0.8-3.4 5-0.2 2.8 0.8 6.6 2.7 10.3 7.9 9 3.1-0.8 3.3-5.1 0.2-2.7-0.8-6.6z"/>
						<path id="&lt;Compound Path&gt;" fill-rule="evenodd" class="s10" d="m2368.8 754.5q1.6 6.1 0.5 10.5-1.4 5.6-7 7-5.5 1.5-9.4-2.7-3.1-3.3-4.7-9.4-1.6-6-0.5-10.4 1.4-5.5 6.9-7 5.6-1.5 9.5 2.7 3.1 3.3 4.7 9.3zm-5.1 1.4q-1-3.8-2.5-6.2-2.4-3.5-5.4-2.7-3 0.8-3.3 4.9-0.2 2.9 0.8 6.7 2.6 10.3 7.9 8.9 3.1-0.8 3.3-5 0.2-2.8-0.8-6.6z"/>
						<path id="&lt;Compound Path&gt;" fill-rule="evenodd" class="s10" d="m2403.2 745.6q1.5 6 0.4 10.4-1.3 5.6-6.9 7-5.5 1.5-9.4-2.7-3.1-3.3-4.7-9.4-1.6-6-0.5-10.4 1.3-5.5 6.9-7 5.6-1.4 9.5 2.7 3.1 3.3 4.7 9.4zm-5.1 1.3q-1-3.8-2.5-6.2-2.4-3.5-5.4-2.7-3.1 0.8-3.3 5-0.3 2.8 0.7 6.6 2.7 10.3 8 8.9 3-0.8 3.3-5 0.2-2.8-0.8-6.6z"/>
						<path id="&lt;Compound Path&gt;" fill-rule="evenodd" class="s10" d="m2425.8 739.6q1.6 6.1 0.5 10.5-1.4 5.6-6.9 7-5.5 1.4-9.4-2.7-3.2-3.3-4.7-9.4-1.6-6-0.6-10.4 1.4-5.6 7-7 5.6-1.5 9.5 2.7 3.1 3.3 4.6 9.3zm-5 1.3q-1-3.8-2.6-6.1-2.3-3.5-5.3-2.7-3.1 0.8-3.4 4.9-0.2 2.8 0.8 6.7 2.7 10.3 8 8.9 3-0.8 3.3-5 0.2-2.8-0.8-6.7z"/>
						<path id="&lt;Compound Path&gt;" fill-rule="evenodd" class="s10" d="m2448.5 733.7q1.6 6 0.5 10.5-1.4 5.5-6.9 7-5.5 1.4-9.5-2.8-3.1-3.3-4.7-9.3-1.5-6.1-0.5-10.4 1.4-5.6 7-7 5.6-1.5 9.5 2.7 3.1 3.3 4.6 9.3zm-5 1.3q-1-3.8-2.6-6.1-2.3-3.6-5.3-2.8-3.1 0.8-3.4 5-0.2 2.8 0.8 6.6 2.7 10.3 8 9 3-0.8 3.3-5.1 0.2-2.7-0.8-6.6z"/>
						<path id="&lt;Compound Path&gt;" fill-rule="evenodd" class="s10" d="m2471.2 727.8q1.6 6 0.5 10.4-1.4 5.6-6.9 7-5.5 1.5-9.5-2.7-3.1-3.3-4.7-9.3-1.5-6.1-0.5-10.5 1.4-5.5 7-7 5.5-1.4 9.5 2.7 3 3.3 4.6 9.4zm-5.1 1.3q-0.9-3.8-2.5-6.2-2.3-3.5-5.3-2.7-3.1 0.8-3.4 5-0.2 2.8 0.8 6.6 2.7 10.3 8 8.9 3-0.8 3.3-5 0.2-2.8-0.9-6.6z"/>
						<path id="&lt;Compound Path&gt;" fill-rule="evenodd" class="s10" d="m2505.6 718.8q1.6 6 0.5 10.4-1.4 5.6-6.9 7-5.6 1.5-9.5-2.7-3.1-3.3-4.7-9.3-1.6-6.1-0.5-10.4 1.4-5.6 7-7.1 5.5-1.4 9.5 2.8 3 3.2 4.6 9.3zm-5.1 1.3q-1-3.8-2.5-6.2-2.3-3.5-5.3-2.7-3.1 0.8-3.4 5-0.2 2.8 0.8 6.6 2.7 10.3 7.9 9 3.1-0.8 3.3-5.1 0.2-2.7-0.8-6.6z"/>
						<path id="&lt;Compound Path&gt;" fill-rule="evenodd" class="s10" d="m2528.3 712.9q1.6 6 0.5 10.4-1.4 5.6-6.9 7-5.6 1.5-9.5-2.7-3.1-3.3-4.7-9.4-1.6-6-0.5-10.4 1.4-5.5 6.9-7 5.6-1.4 9.5 2.7 3.1 3.3 4.7 9.4zm-5.1 1.3q-1-3.8-2.5-6.2-2.3-3.5-5.3-2.7-3.1 0.8-3.4 4.9-0.2 2.9 0.8 6.7 2.7 10.3 7.9 8.9 3.1-0.8 3.3-5 0.2-2.8-0.8-6.6z"/>
						<path id="&lt;Compound Path&gt;" fill-rule="evenodd" class="s10" d="m2551 706.9q1.6 6.1 0.5 10.5-1.4 5.5-7 7-5.5 1.4-9.4-2.7-3.1-3.4-4.7-9.4-1.6-6-0.5-10.4 1.4-5.6 6.9-7 5.6-1.5 9.5 2.7 3.1 3.3 4.7 9.3zm-5.1 1.3q-1-3.8-2.5-6.1-2.4-3.5-5.4-2.8-3 0.9-3.3 5-0.2 2.8 0.8 6.7 2.7 10.3 7.9 8.9 3.1-0.8 3.3-5 0.2-2.8-0.8-6.7z"/>
						<path id="&lt;Compound Path&gt;" fill-rule="evenodd" class="s10" d="m2573.7 701q1.5 6 0.4 10.4-1.3 5.6-6.9 7.1-5.5 1.4-9.4-2.8-3.1-3.3-4.7-9.3-1.6-6.1-0.5-10.4 1.3-5.6 6.9-7.1 5.6-1.4 9.5 2.8 3.1 3.2 4.7 9.3zm-5.1 1.3q-1-3.8-2.5-6.1-2.4-3.6-5.4-2.8-3 0.8-3.3 5-0.3 2.8 0.7 6.6 2.7 10.3 8 9 3-0.8 3.3-5.1 0.2-2.7-0.8-6.6z"/>
					</g>
					<path id="&lt;Path&gt;" class="s10" d="m2274.5 698.2l-108.1 28.3c-4.7 1.2-9.5-1.6-10.7-6.3-1.3-4.6 1.6-9.5 6.2-10.7l108.2-28.3c4.6-1.2 9.5 1.6 10.7 6.3 1.2 4.7-1.6 9.5-6.3 10.7z"/>
					<g id="&lt;Group&gt;">
						<g id="&lt;Group&gt;">
							<path id="&lt;Compound Path&gt;" class="s10" d="m2535.4 658.1c-0.4 0.8-1.3 1.1-2.1 0.7l-0.6-0.4c-0.6-0.4-0.9-1.2-0.6-1.8 0.9-2 1.1-4.3 0.5-6.5-0.6-2.2-1.9-4.1-3.6-5.4-0.6-0.4-0.7-1.2-0.4-1.8l0.4-0.7c0.4-0.7 1.4-0.9 2.1-0.4 2.4 1.7 4.2 4.3 5 7.4 0.8 3.1 0.5 6.2-0.7 8.9z"/>
						</g>
						<g id="&lt;Group&gt;">
							<path id="&lt;Compound Path&gt;" class="s10" d="m2541.6 661.9c-0.4 0.8-1.3 1-2.1 0.6l-0.3-0.2c-0.7-0.4-0.9-1.2-0.6-1.9 1.9-3.7 2.4-8 1.3-12.2-1.1-4.2-3.7-7.7-7.1-10-0.6-0.4-0.8-1.3-0.4-1.9l0.2-0.4c0.4-0.7 1.3-0.9 2-0.5 4.1 2.7 7.2 6.9 8.5 12 1.3 5 0.7 10.2-1.5 14.5z"/>
						</g>
						<g id="&lt;Group&gt;">
							<path id="&lt;Compound Path&gt;" class="s10" d="m2547 665.2c-0.4 0.7-1.3 1-2 0.5-0.6-0.3-0.9-1.2-0.5-1.8 2.7-5.2 3.6-11.4 2-17.4-1.6-6.1-5.4-11-10.3-14.2-0.6-0.4-0.8-1.2-0.4-1.9 0.4-0.7 1.3-0.9 2-0.5 5.5 3.6 9.7 9.1 11.4 15.9 1.8 6.7 0.8 13.6-2.2 19.4z"/>
						</g>
						<g id="&lt;Group&gt;">
							<path id="&lt;Compound Path&gt;" class="s10" d="m2552.9 668.7c-0.4 0.7-1.3 1-2 0.6l-0.6-0.4c-0.7-0.4-0.9-1.2-0.5-1.9 3.5-6.5 4.6-14.3 2.6-22.1-2-7.7-6.8-13.9-13.1-17.9-0.7-0.4-0.9-1.3-0.5-1.9l0.4-0.7c0.4-0.7 1.3-0.9 2-0.5 7 4.5 12.4 11.5 14.7 20.1 2.3 8.7 1 17.4-3 24.7z"/>
						</g>
					</g>
				</g>
			</g>
			<g id="&lt;Group&gt;">
				<path id="&lt;Path&gt;" class="s11" d="m2232.2 1698.5h-1299.7c-18.5 0-33.7-15.2-33.7-33.8v-860.7c0-18.5 15.2-33.7 33.7-33.7h1299.7c18.6 0 33.8 15.2 33.8 33.7v860.7c0 18.6-15.2 33.8-33.8 33.8z"/>
				<path id="&lt;Path&gt;" class="s12" d="m2235.2 1689.1h-1305.6v-886.4h1305.6z"/>
				<path id="&lt;Path&gt;" class="s11" d="m2404.3 1721.9h-1643.8c-13.4 0-24.3-10.9-24.3-24.3v-10.9c0-13.4 10.9-24.3 24.3-24.3h1643.8c13.4 0 24.3 10.9 24.3 24.3v10.9c0 13.4-10.9 24.3-24.3 24.3z"/>
				<path id="&lt;Path&gt;" class="s13" d="m2235.2 1665.5h-1305.6v-862.8h1305.6z"/>
			</g>
			<g id="&lt;Group&gt;">
				<path id="&lt;Path&gt;" class="s14" d="m494.2 1726.2c0 0 0-12.8 1.9-17 1.9-4.3 9-21.6 9-21.6h27.6c0 0 5.1 15.8 5.5 21 0.3 5.1 0 17.6 0 17.6z"/>
				<path id="&lt;Path&gt;" class="s14" d="m625.5 1726.2c0 0-0.3-12.5 0-17.6 0.3-5.2 5.5-21 5.5-21h27.6c0 0 7.1 17.3 9 21.6 1.9 4.2 1.9 17 1.9 17z"/>
				<path id="&lt;Path&gt;" class="s15" d="m607 998.7c-4.3 14.1 4 52.3 4 52.3l27.4 35.7-114.9-16.2 30.5-20.1c3.9-12.8 4.9-41.2 4.9-41.2 0 0 52.5-24.6 48.1-10.5z"/>
				<path id="&lt;Path&gt;" class="s16" d="m605.9 1014.6c0 0-3.9 18.2-21 18.7-17.1 0.4-26.2-20.2-26.2-20.2z"/>
				<path id="&lt;Path&gt;" class="s17" d="m548.5 996.4c0 0-5.5-26.1-9.4-34-3.8-7.8-7-43 35.7-44.9 0 0 16.3 1.9 25.3-3.3 0 0 0 5.2-2.2 7 0 0 14.8-3.4 26.3 8.8 11.6 12.1-7.7 54.6-6.7 64.6z"/>
				<path id="&lt;Path&gt;" class="s15" d="m582.9 1025.3c-12.4-0.2-35.2-15.8-35.2-35.1v-30.1c0-7.1 5.2-12.8 11.6-12.8h47.3c6.3 0 11.5 5.7 11.5 12.8v28.4c0 20.2-21 37-35.2 36.8z"/>
				<path id="Shape 13" class="s5" d="m559 981.4c-2.8 0-5-2.6-5-5.7 0-3.2 2.2-5.7 5-5.7 2.8 0 5 2.5 5 5.7 0 3.1-2.2 5.7-5 5.7z"/>
				<path id="Shape 13 copy" class="s5" d="m599 980.4c-2.8 0-5-2.6-5-5.7 0-3.2 2.2-5.7 5-5.7 2.8 0 5 2.5 5 5.7 0 3.1-2.2 5.7-5 5.7z"/>
				<path id="&lt;Path&gt;" class="s17" d="m547.7 946.4c3.6-8.5 74-8.7 69.2 4.5-4.8 13.2-38.8 1.6-53.9 4.4-15.2 2.8-15.3 20.9-15.3 20.9 0 0-3.5-21.4 0-29.8z"/>
				<path id="&lt;Path&gt;" class="s11" d="m600.6 1289.9c0 0-30 173.9-29.9 212.8 0.2 36.6-27.3 190.3-27.3 190.3-25 12-48.1 0-48.1 0 0 0-7.3-110.7-0.1-190.3 7.3-79.5 2.4-218.9 2.4-218.9z"/>
				<path id="&lt;Path&gt;" class="s11" d="m668.5 1693c0 0-23.1 12-48.1 0 0 0-27.5-153.7-27.3-190.3 0.1-16.4-5.3-56.9-11.4-98.3-8.5-56.5-18.5-114.5-18.5-114.5l107-6.4c0 0-8.8 139.7-1.6 219.2 7.2 79.6-0.1 190.3-0.1 190.3z"/>
				<path id="&lt;Path&gt;" class="s18" d="m668.9 1307c0 0-45.6 8.3-87.2 8.3-18.2 0-37.9-1.9-53.6-3.8-17.4-2.2-29.8-4.5-29.8-4.5 0 0-9.3 0.7-3.8-42.3 4.1-32.8 2.8-62.4 1.9-92.9-0.1-3.4 0-7.4 0.2-11.8 1.8-35.6 13.1-99.5 21.8-102.9 0 0 12.9-4.5 35.6-6.7 0 0.4 13.3 18.6 28.9 20.7 9.8-3.7 17.4-6.8 28.1-20.1 13.5 1.4 28.2 4 43.9 8 0 0 1.7 6.7 7.9 124.2 2.4 46.6 19.2 123.9 6.1 123.8z"/>
				<path id="&lt;Path&gt;" class="s14" d="m593.1 1502.7c0.1-16.4-5.3-56.9-11.4-98.3 6.4-24.7 22-48.4 22-48.4 19.7 52.3-10.6 146.7-10.6 146.7z"/>
				<path id="&lt;Path&gt;" class="s19" d="m454.2 1196.9c-1 0.9 2.8 9.8 8.3 21.4 11.5 23.8 30.7 58.9 30.7 58.9-2.8 9.9-5.8 16-5.8 16-32.2-23.8-52.9-44.1-66.1-59.7-18.6-21.9-22.5-34.4-22.5-34.4 71.6-137.7 122-142.8 122-142.8l-6 91c0 0-57.2 47-60.6 49.6z"/>
				<path id="&lt;Path&gt;" class="s15" d="m489.3 1278.9c0 0 17.4-15.2 24.4-6.7 7.1 8.5 8.4 21.9 2.9 21-5.4-0.9-16.7-5.8-18.3-3.4-1.6 2.5-8.8 7.1-11 3.4-2.1-3.7 2-14.3 2-14.3z"/>
				<path id="&lt;Path&gt;" class="s15" d="m493.2 1277.2c-2.8 9.9-5.8 16-5.8 16-32.2-23.8-52.9-44.1-66.1-59.7 9.9-0.7 24.5-4.1 41.2-15.2 11.5 23.8 30.7 58.9 30.7 58.9z"/>
				<path id="&lt;Path&gt;" class="s19" d="m769.6 1199.1c0 0-3.8 12.5-22.4 34.4-13.3 15.6-34 35.9-66.1 59.7 0 0-3.1-6.1-5.8-16 0 0 19.1-35.1 30.6-58.9 5.6-11.6 9.4-20.5 8.3-21.4-2.6-2-37.6-30.7-53.2-43.5-4.5-3.7-7.4-6.1-7.4-6.1l-3.6-89.6c0 0 48 3.7 119.6 141.4z"/>
				<path id="&lt;Path&gt;" class="s15" d="m681.1 1293.2c-2.2 3.7-9.4-0.9-11-3.4-1.6-2.4-12.9 2.5-18.3 3.4-5.5 0.9-4.2-12.5 2.9-21 7-8.5 24.4 6.7 24.4 6.7 0 0 4.1 10.6 2 14.3z"/>
				<path id="&lt;Path&gt;" class="s15" d="m705.9 1218.3c16.7 11.1 31.3 14.5 41.3 15.2-13.3 15.6-34 35.9-66.1 59.7 0 0-3.1-6.1-5.8-16 0 0 19.1-35.1 30.6-58.9z"/>
				<path id="&lt;Path&gt;" class="s11" d="m582.9 1071.1c-13.4-0.3-33.8-20.2-33.8-20.2 1.4-5.5 6.5-7.5 6.5-7.5z"/>
				<path id="&lt;Path&gt;" class="s11" d="m582.9 1071.1l26.4-28.7c0 0 5.5 3.4 5.4 9 0 0-20.4 20.4-31.8 19.7z"/>
				<path id="&lt;Path&gt;" class="s0" d="m586.7 1068.8c0 0 15.3 171.6 15.3 182 0 6.4-7 19.1-12.3 27.9-2.8 4.5-9.6 4.5-12.4 0-3.8-6.2-8.6-15.1-12.3-25.4-7-20 13.2-184.3 13.2-184.3z"/>
				<path id="&lt;Path&gt;" class="s11" d="m572.9 1060.9c0 0 12.2-1.1 19.6-0.4 1.5 0.1 2.3 1.6 1.6 2.8-2.1 3.6-6.4 9.7-10.8 9.7-6.2 0-15.9-11.7-10.4-12.1z"/>
				<path id="&lt;Path&gt;" class="s0" d="m593.6 1005.9c0 0-3.2 4.6-9.9 4.8-6.8 0.1-10.6-4.8-10.6-4.8 9.1-1.8 20.5 0 20.5 0z"/>
			</g>
			<g id="&lt;Group&gt;">
				<g id="&lt;Group&gt;">
					<path id="&lt;Path&gt;" class="s20" d="m2081.5 1601.3h-844.3v-899.2h844.3z"/>
					<g id="&lt;Group&gt;">
						<path id="&lt;Path&gt;" class="s11" d="m1842.3 1449.9h-160.9c-0.1 0-0.2-0.1-0.2-0.2v-10c0-0.1 0.1-0.2 0.2-0.2h160.9c0.1 0 0.2 0.1 0.2 0.2v10c0 0.1-0.1 0.2-0.2 0.2z"/>
						<path id="&lt;Path&gt;" class="s11" d="m1882.3 1426.2h-200.9c-0.1 0-0.2-0.1-0.2-0.3v-9.9c0-0.2 0.1-0.3 0.2-0.3h200.9c0.1 0 0.2 0.1 0.2 0.3v9.9c0 0.2-0.1 0.3-0.2 0.3z"/>
					</g>
					<g id="&lt;Group&gt;">
						<path id="&lt;Path&gt;" class="s13" d="m2008.3 854v491h-697.9v-491z"/>
						<g id="&lt;Group&gt;">
							<g id="&lt;Group&gt;">
								<path id="&lt;Path&gt;" class="s21" d="m1475.2 1345h-1.1v-518.8h1.1z"/>
							</g>
							<g id="&lt;Group&gt;">
								<path id="&lt;Path&gt;" class="s21" d="m1912.2 1345h-1.1v-518.8h1.1z"/>
							</g>
							<g id="&lt;Group&gt;">
								<path id="&lt;Path&gt;" class="s21" d="m1549.4 1345h-1.1v-518.8h1.1z"/>
							</g>
							<g id="&lt;Group&gt;">
								<path id="&lt;Path&gt;" class="s21" d="m2008.3 1254.2h-697.9v-1.1h697.9z"/>
							</g>
							<g id="&lt;Group&gt;">
								<path id="&lt;Path&gt;" class="s21" d="m2008.3 1151.5h-697.9v-1.2h697.9z"/>
							</g>
							<g id="&lt;Group&gt;">
								<path id="&lt;Path&gt;" class="s21" d="m2008.3 1048.7h-697.9v-1.1h697.9z"/>
							</g>
							<g id="&lt;Group&gt;">
								<path id="&lt;Path&gt;" class="s21" d="m2008.3 945.9h-697.9v-1.1h697.9z"/>
							</g>
						</g>
						<path id="&lt;Path&gt;" class="s19" d="m2008.3 765.2v99.6h-697.9v-99.6z"/>
					</g>
					<g id="&lt;Group&gt;">
						<path id="&lt;Compound Path&gt;" fill-rule="evenodd" class="s22" d="m1942.4 1516.9c-15.7 4.8-31.1 7.3-43.1 6.4-18.4-1.5-28.8-10.6-29.2-25.7-0.3-11.9 4.9-22.4 15.3-30.9q-0.2-1.2-0.3-2.5c-0.7-8.4 1.2-14 5.7-16.6 7.2-4.3 17.8 1.5 18.3 1.8l-2.4 3.8c-2.4-1.3-9.5-4.2-13.4-1.8-3.4 2-3.8 7.5-3.5 12 8.4-5.8 19.3-10.4 32.7-13.9 9.9-2.5 20.9-4.2 30.8-4.9q0.1-1.6 0.3-2.8c0.3-2.1 1.1-4.5 3.2-5 0.8-0.1 2.4-0.1 3.8 1.9 0.9 1.3 1.4 3.2 1.5 5.4 3.4 0 6.6 0 9.4 0.2q0-0.1 0.1-0.2c-0.7-5.2-0.2-11.5 0.7-15.5 1.2-5.2 3.2-7.8 5.9-8 1.7-0.2 3.1 0.7 3.8 2.2 1.5 3.5-1.4 12.9-5.6 22q0 0 0 0.1c4 0.6 6.6 1.6 7.5 3 0.6 1.1 0.7 2.8-1 4.2-3.2 2.8-5.7 2.1-6.9 1.4-1-0.5-1.9-1.5-2.5-2.7-3.2 5.9-6.6 10.9-9.3 13.1-2.5 2-4.7 1.2-5.5 0.7q-0.7-0.3-1.2-0.9c-1.1 2.5-2.3 4.9-3.6 7.1-5 8.2-10.6 12.4-16.1 12.1-2.3-0.1-4.4-0.9-6.1-2.5-3.1 6.3-7 12.3-10.8 16.8-3.9 4.6-8.9 6.3-14.1 4.8-9.2-2.7-17.5-15.3-20.6-30.1-7.8 7.2-11.6 15.8-11.4 25.6 0.4 12.9 8.7 20 24.9 21.3 40.7 3.2 112-32.5 117.5-58.8-4.4 21.4-38.3 45.7-74.8 56.9zm-52-48.4c2.4 15.6 10.7 27.1 17.8 29.2 3.3 1 6.3-0.1 9-3.3 4.6-5.3 8.6-11.9 11.4-18.3q-1.2-2.5-2-5.9c-1.1-5.1-1.3-12.2 0.1-17.1-7.6 1.8-15.3 4.2-22.3 7.4q-8.1 3.6-14 8zm43.4 7.3c1 1.4 2.4 2.6 4.2 2.7 3.6 0.1 7.9-3.5 11.8-9.9 2-3.4 3.6-7 4.8-10.4-0.8-2.8-1.2-6.1-1.3-9.1-5.2 0.4-10.9 1-16.8 2.1 3 5.6 1.3 15.1-2.7 24.6zm25.8-17.6c0.7 2.1 1.4 2.5 1.4 2.5 2.6-2.1 5.6-6.7 8.4-12q-3.4-0.2-7.6-0.1c-0.3 3-1.1 6.3-2.2 9.6zm-27.8-5.7c-1.2 2.4-2 9.9-0.6 16.7 2.4-7.4 2.9-13.8 0.6-16.7zm45.8-25.8c-0.4 1.2-0.8 2.8-1.1 4.7 0.6-1.8 1-3.4 1.1-4.7zm0.7 22.9q0.1 0.1 0.1 0.1 0 0-0.1-0.1z"/>
					</g>
				</g>
			</g>
			<g id="&lt;Group&gt;">
				<path id="&lt;Path&gt;" class="s18" d="m1183.9 1724l-356.7-2.2c-15.9-0.1-28.7-13-28.6-28.9l2.3-374.9c0.1-15.9 13.1-28.7 29-28.6l356.7 2.2c15.9 0.1 28.7 13 28.6 28.9l-2.4 374.9c-0.1 15.9-13 28.7-28.9 28.6z"/>
				<path id="&lt;Path&gt;" class="s13" d="m1178.5 1389.7l-341.8-2.1c-7 0-12.6-5.7-12.5-12.7l0.2-43.4c0.1-7 5.8-12.6 12.8-12.6l341.7 2.1c7 0.1 12.6 5.8 12.6 12.8l-0.3 43.4c0 6.9-5.7 12.6-12.7 12.5z"/>
				<g id="&lt;Group&gt;">
					<g id="&lt;Group&gt;">
						<path id="&lt;Path&gt;" class="s11" d="m951.1 1556.8l-29.3-0.2c-7.3 0-13.2-6-13.1-13.3l0.1-29.2c0.1-7.4 6-13.2 13.4-13.2l29.2 0.2c7.3 0 13.2 6 13.2 13.3l-0.2 29.3c-0.1 7.3-6 13.2-13.3 13.1z"/>
						<path id="&lt;Path&gt;" class="s11" d="m950.6 1625.2l-29.2-0.2c-7.3 0-13.2-6-13.2-13.3l0.2-29.3c0.1-7.3 6-13.2 13.3-13.1l29.3 0.2c7.3 0 13.2 6 13.1 13.3l-0.1 29.2c-0.1 7.4-6.1 13.2-13.4 13.2z"/>
						<path id="&lt;Path&gt;" class="s11" d="m950.2 1693.6l-29.2-0.2c-7.4 0-13.2-6-13.2-13.3l0.2-29.3c0-7.3 6-13.2 13.3-13.1l29.3 0.2c7.3 0 13.2 6 13.1 13.3l-0.2 29.2c0 7.3-6 13.2-13.3 13.2z"/>
						<path id="&lt;Path&gt;" class="s11" d="m1024.7 1557.3l-29.2-0.2c-7.4-0.1-13.2-6-13.2-13.3l0.2-29.3c0-7.3 6-13.2 13.3-13.1l29.3 0.1c7.3 0.1 13.2 6.1 13.1 13.4l-0.2 29.2c0 7.3-6 13.2-13.3 13.2z"/>
						<path id="&lt;Path&gt;" class="s11" d="m1024.3 1625.7l-29.3-0.2c-7.3-0.1-13.2-6-13.1-13.3l0.2-29.3c0-7.3 6-13.2 13.3-13.2l29.2 0.2c7.3 0.1 13.2 6 13.2 13.3l-0.2 29.3c0 7.3-6 13.2-13.3 13.2z"/>
						<path id="&lt;Path&gt;" class="s11" d="m1023.9 1694l-29.3-0.1c-7.3-0.1-13.2-6-13.1-13.4l0.1-29.2c0.1-7.3 6-13.2 13.4-13.2l29.2 0.2c7.3 0.1 13.2 6 13.2 13.3l-0.2 29.3c-0.1 7.3-6 13.2-13.3 13.1z"/>
						<path id="&lt;Path&gt;" class="s11" d="m1095.3 1626.1l-29.3-0.2c-7.3 0-13.2-6-13.1-13.3l0.2-29.3c0-7.3 6-13.2 13.3-13.1l29.2 0.2c7.4 0 13.2 6 13.2 13.3l-0.2 29.2c0 7.4-6 13.2-13.3 13.2z"/>
						<path id="&lt;Path&gt;" class="s11" d="m1094.9 1694.5l-29.3-0.2c-7.3 0-13.2-6-13.1-13.3l0.1-29.3c0.1-7.3 6.1-13.2 13.4-13.1l29.2 0.2c7.3 0 13.2 6 13.2 13.3l-0.2 29.2c-0.1 7.3-6 13.2-13.3 13.2z"/>
					</g>
					<g id="&lt;Group&gt;">
						<path id="&lt;Path&gt;" class="s19" d="m881.2 1476.1l-29.3-0.2c-7.3 0-13.2-6-13.1-13.3l0.1-17.4c0-7.3 6-13.2 13.3-13.1l29.3 0.2c7.3 0 13.2 6 13.1 13.3l-0.1 17.3c0 7.3-6 13.2-13.3 13.2z"/>
						<path id="&lt;Path&gt;" class="s19" d="m880.8 1547.8l-29.3-0.2c-7.3 0-13.2-6-13.2-13.3l0.2-17.4c0-7.3 6-13.2 13.3-13.1l29.2 0.2c7.3 0 13.2 6 13.2 13.3l-0.1 17.3c-0.1 7.3-6 13.2-13.3 13.2z"/>
						<path id="&lt;Path&gt;" class="s19" d="m880.3 1619.5l-29.2-0.2c-7.4 0-13.2-6-13.2-13.3l0.1-17.4c0.1-7.3 6-13.2 13.3-13.1l29.3 0.2c7.3 0 13.2 6 13.1 13.3l-0.1 17.3c0 7.4-6 13.2-13.3 13.2z"/>
						<path id="&lt;Path&gt;" class="s19" d="m879.9 1691.2l-29.3-0.2c-7.3 0-13.2-6-13.1-13.3l0.1-17.4c0-7.3 6-13.2 13.3-13.1l29.2 0.2c7.3 0 13.2 6 13.2 13.3l-0.1 17.3c-0.1 7.4-6 13.2-13.3 13.2z"/>
						<path id="&lt;Path&gt;" class="s19" d="m951.5 1488.4l-29.3-0.2c-7.3 0-13.2-6-13.1-13.3l0.2-29.2c0-7.3 6-13.2 13.3-13.2l29.2 0.2c7.3 0 13.2 6 13.2 13.3l-0.2 29.3c0 7.3-6 13.2-13.3 13.1z"/>
						<path id="&lt;Path&gt;" class="s19" d="m1025.1 1488.9l-29.2-0.2c-7.3 0-13.2-6-13.2-13.3l0.2-29.3c0.1-7.3 6-13.2 13.3-13.1l29.3 0.2c7.3 0 13.2 6 13.1 13.3l-0.1 29.2c-0.1 7.3-6.1 13.2-13.4 13.2z"/>
						<path id="&lt;Path&gt;" class="s19" d="m1096.2 1489.3l-29.3-0.2c-7.3 0-13.2-6-13.2-13.3l0.2-29.2c0.1-7.3 6-13.2 13.3-13.2l29.3 0.2c7.3 0 13.2 6 13.2 13.3l-0.2 29.3c-0.1 7.3-6 13.2-13.3 13.1z"/>
						<path id="&lt;Path&gt;" class="s23" d="m1162.5 1558.5l-29.3-0.2c-7.3-0.1-13.2-6-13.1-13.3l0.1-29.3c0.1-7.3 6-13.2 13.4-13.2l29.2 0.2c7.3 0.1 13.2 6 13.2 13.3l-0.2 29.3c-0.1 7.3-6 13.2-13.3 13.2z"/>
						<path id="&lt;Path&gt;" class="s19" d="m1162.9 1490.1l-29.3-0.2c-7.3-0.1-13.2-6-13.1-13.3l0.2-29.3c0-7.3 6-13.2 13.3-13.1l29.2 0.1c7.3 0.1 13.2 6.1 13.2 13.4l-0.2 29.2c0 7.3-6 13.2-13.3 13.2z"/>
						<path id="&lt;Path&gt;" class="s23" d="m1161.6 1695.2l-29.2-0.2c-7.3 0-13.2-6-13.2-13.3l0.6-97.6c0.1-7.3 6-13.2 13.3-13.2l29.3 0.2c7.3 0.1 13.2 6 13.1 13.3l-0.6 97.7c0 7.3-6 13.2-13.3 13.1z"/>
					</g>
				</g>
				<g id="&lt;Group&gt;">
					<path id="&lt;Compound Path&gt;" class="s11" d="m944 1353.4l0.1-9.4 1.3-3.6q1.8 0.5 2.3 2.3l-0.1 12.5-0.9 0.9zm2.6 3.5l0.9 0.9v12.5q-0.5 1.8-2.3 2.3l-1.3-3.6 0.1-9.4z"/>
					<path id="&lt;Compound Path&gt;" class="s11" d="m959.7 1345l-0.1 8.5-2.6 2.6-0.9-0.9v-11.6zm-3.7 24.5l0.1-11.6 0.9-0.8 2.6 2.7v8.4zm15.6 3.3l-13.4-0.1q-1.8-0.5-2.2-2.3l3.6-1.3 10.7 0.1zm-1.2-28.6l-10.6-0.1-3.6-1.3q0.4-1.8 2.2-2.2h13.4zm0.8 9.4l0.1-9.4 1.3-3.5q1.8 0.4 2.3 2.2l-0.1 12.5-0.9 0.9zm2.6 3.6l0.9 0.9-0.1 12.5q-0.4 1.8-2.2 2.2l-1.3-3.6v-9.3z"/>
					<path id="&lt;Compound Path&gt;" class="s11" d="m986.9 1345.2v8.4l-2.7 2.7-0.9-0.9 0.1-11.6zm-3.8 24.5l0.1-11.6 0.9-0.9 2.7 2.7-0.1 8.5zm15.6 3.2l-13.4-0.1q-1.8-0.4-2.2-2.2l3.6-1.3h10.7zm-1.2-28.5l-10.6-0.1-3.6-1.4q0.5-1.7 2.3-2.2l13.3 0.1zm0.8 9.4l0.1-9.4 1.4-3.5q1.7 0.4 2.2 2.2l-0.1 12.5-0.9 0.9zm2.7 3.6l0.8 0.9v12.5q-0.5 1.7-2.3 2.2l-1.3-3.6 0.1-9.4z"/>
					<path id="&lt;Compound Path&gt;" class="s11" d="m1014.1 1345.3v8.5l-2.7 2.7-0.9-0.9 0.1-11.6zm-3.7 24.5v-11.6l0.9-0.9 2.7 2.7-0.1 8.5zm15.6 3.2l-13.3-0.1q-1.8-0.5-2.3-2.2l3.6-1.4 10.7 0.1zm-1.1-28.6h-10.7l-3.6-1.4q0.5-1.8 2.3-2.2l13.3 0.1zm0.9 9.4v-9.4l1.4-3.6q1.8 0.5 2.2 2.3l-0.1 12.5-0.9 0.9zm2.7 3.5l0.9 0.9-0.1 12.5q-0.5 1.8-2.3 2.2l-1.3-3.5 0.1-9.4z"/>
					<path id="&lt;Compound Path&gt;" class="s11" d="m1041.4 1345.5l-0.1 8.5-2.7 2.6-0.9-0.9 0.1-11.6zm-3.7 24.6l0.1-11.6 0.9-0.9 2.6 2.7v8.4zm15.6 3.3l-13.4-0.1q-1.8-0.5-2.2-2.3l3.5-1.3 10.8 0.1zm-1.2-28.6l-10.7-0.1-3.5-1.3q0.4-1.8 2.2-2.2h13.4zm0.8 9.4v-9.3l1.4-3.6q1.8 0.5 2.2 2.2l-0.1 12.5-0.9 0.9zm2.7 3.6l0.9 0.9-0.1 12.5q-0.4 1.8-2.2 2.2l-1.3-3.6v-9.3z"/>
					<path id="&lt;Compound Path&gt;" class="s11" d="m1068.6 1345.7l-0.1 8.4-2.7 2.7-0.8-0.9v-11.6zm-3.7 24.5l0.1-11.6 0.9-0.9 2.6 2.7v8.5zm15.6 3.2l-13.4-0.1q-1.8-0.4-2.2-2.2l3.6-1.3 10.7 0.1zm-1.2-28.6l-10.7-0.1-3.5-1.3q0.4-1.8 2.2-2.3l13.4 0.1zm0.8 9.4l0.1-9.4 1.3-3.5q1.8 0.4 2.2 2.2v12.5l-0.9 0.9zm2.6 3.6l0.9 0.9-0.1 12.5q-0.4 1.8-2.2 2.2l-1.3-3.6v-9.4z"/>
					<path id="&lt;Compound Path&gt;" class="s11" d="m1095.8 1345.8v8.5l-2.7 2.7-0.9-0.9 0.1-11.6zm-3.8 24.5l0.1-11.6 0.9-0.9 2.7 2.7-0.1 8.5zm15.6 3.2l-13.4-0.1q-1.8-0.4-2.2-2.2l3.6-1.3h10.7zm-1.2-28.6h-10.6l-3.6-1.4q0.5-1.8 2.3-2.2l13.3 0.1zm0.8 9.4l0.1-9.4 1.4-3.6q1.7 0.5 2.2 2.3l-0.1 12.5-0.9 0.9zm2.6 3.5l0.9 0.9v12.5q-0.5 1.8-2.3 2.3l-1.3-3.6 0.1-9.4z"/>
					<path id="&lt;Compound Path&gt;" class="s11" d="m1123 1346v8.5l-2.7 2.6-0.9-0.9 0.1-11.6zm-3.7 24.6v-11.6l0.9-0.9 2.7 2.7-0.1 8.4zm15.6 3.3l-13.3-0.1q-1.8-0.5-2.3-2.3l3.6-1.3 10.7 0.1zm-1.1-28.6h-10.7l-3.6-1.4q0.5-1.8 2.3-2.2l13.3 0.1zm0.9 9.3v-9.3l1.4-3.6q1.8 0.5 2.2 2.2l-0.1 12.5-0.9 0.9zm2.7 3.6l0.9 0.9-0.1 12.5q-0.5 1.8-2.3 2.2l-1.3-3.6 0.1-9.3z"/>
					<path id="&lt;Compound Path&gt;" class="s11" d="m1150.3 1346.2l-0.1 8.4-2.7 2.7-0.9-0.9 0.1-11.6zm-3.7 24.5l0.1-11.6 0.9-0.9 2.6 2.7v8.5zm15.6 3.2h-13.4q-1.8-0.5-2.2-2.3l3.5-1.3 10.7 0.1zm-1.1-28.6l-10.7-0.1-3.5-1.3q0.4-1.8 2.2-2.3l13.3 0.1zm0.9 9.4v-9.4l1.4-3.5q1.8 0.4 2.2 2.2l-0.1 12.5-0.9 0.9zm2.7 3.6l0.9 0.9-0.1 12.5q-0.5 1.8-2.2 2.2l-1.4-3.6 0.1-9.4z"/>
				</g>
			</g>
			<g id="&lt;Group&gt;">
				<g id="&lt;Group&gt;">
					<g id="&lt;Group&gt;">
						<g id="&lt;Group&gt;">
							<path id="&lt;Path&gt;" class="s24" d="m1537.8 1702.5v14.5c0 1.1-0.4 2.2-1.1 3.1-0.8 0.9-1.9 1.7-3.1 2.1q-0.6 0.2-1.2 0.3-0.6 0.1-1.2 0.1h-275.3c-3.3 0-6.1-2.1-6.6-4.8q-0.1-0.3-0.1-0.5 0-0.2 0-0.3v-14.5q0-0.2 0-0.3 0-0.3 0.1-0.6c0.5-2.7 3.3-4.7 6.6-4.7h275.3q0.6 0 1.2 0.1 0.6 0.1 1.2 0.2c1.2 0.5 2.3 1.2 3.1 2.1 0.7 0.9 1.1 2 1.1 3.2z"/>
							<path id="&lt;Path&gt;" class="s25" d="m1402.7 1722.6h-147.5c-2.8 0-5.1-1.8-5.8-4.2q-0.1-0.3-0.1-0.6-0.1-0.3-0.1-0.5 0-0.2 0-0.3v-14.5q0-0.2 0-0.3 0-0.3 0.1-0.6 0-0.3 0.1-0.6c0.7-2.4 3-4.1 5.8-4.1h129.3c2.1 7.5 6.9 18 18.2 25.7z"/>
							<g id="&lt;Group&gt;">
								<path id="&lt;Path&gt;" class="s25" d="m1504.3 1722.6h-3.1v-25.7h3.1z"/>
								<path id="&lt;Path&gt;" class="s25" d="m1493.7 1722.6h-3.1v-25.7h3.1z"/>
								<path id="&lt;Path&gt;" class="s25" d="m1481 1722.6h-3.1v-25.7h3.1z"/>
								<path id="&lt;Path&gt;" class="s25" d="m1461.6 1722.6h-3.2v-25.7h3.2z"/>
								<path id="&lt;Path&gt;" class="s25" d="m1441 1722.6h-3.1v-25.7h3.1z"/>
								<path id="&lt;Path&gt;" class="s25" d="m1409.4 1722.6h-3.1v-25.7h3.1z"/>
								<path id="&lt;Path&gt;" class="s25" d="m1379.9 1722.6h-3.1v-25.7h3.1z"/>
								<path id="&lt;Path&gt;" class="s25" d="m1353.5 1722.6h-3.1v-25.7h3.1z"/>
								<path id="&lt;Path&gt;" class="s25" d="m1514.4 1722.6h-3.1v-25.7h3.1z"/>
								<path id="&lt;Path&gt;" class="s25" d="m1521.1 1722.6h-3.1v-25.7h3.1z"/>
								<path id="&lt;Path&gt;" class="s25" d="m1527.5 1722.6h-3.1v-25.7h3.1z"/>
								<path id="&lt;Path&gt;" class="s25" d="m1532.3 1697v25.5q-0.5 0.1-1.1 0.1h-2v-25.7h2q0.6 0 1.1 0.1z"/>
								<path id="&lt;Path&gt;" class="s25" d="m1536.7 1699.3v20.8c-0.8 0.9-1.9 1.7-3.1 2.1v-25c1.2 0.5 2.3 1.2 3.1 2.1z"/>
							</g>
						</g>
						<g id="&lt;Group&gt;">
							<path id="&lt;Path&gt;" class="s24" d="m1508.4 1676.8v14.5c0 1.1-0.4 2.2-1.1 3.1q-0.3 0.4-0.7 0.7c-0.7 0.6-1.5 1.1-2.5 1.4q-0.6 0.2-1.2 0.3-0.6 0.1-1.2 0.1h-275.3c-3.3 0-6.1-2.1-6.5-4.8q-0.1-0.3-0.1-0.5 0-0.2 0-0.3v-14.5q0-0.2 0-0.3 0-0.3 0.1-0.6c0.4-2.7 3.2-4.7 6.5-4.7h275.3q0.3 0 0.6 0 0.1 0 0.2 0 0 0 0 0 0.1 0 0.2 0 0.1 0 0.2 0.1 0.6 0.1 1.2 0.2 0.4 0.2 0.7 0.3 0.2 0.1 0.4 0.2 0.2 0.1 0.3 0.1 0.1 0.1 0.2 0.2 0.4 0.2 0.8 0.6 0.1 0.1 0.2 0.2 0.1 0.1 0.2 0.1 0 0.1 0.1 0.1v0.1q0.1 0.1 0.3 0.2c0.7 0.9 1.1 2 1.1 3.2z"/>
							<path id="&lt;Path&gt;" class="s25" d="m1373.2 1696.9h-147.5c-2.7 0-5-1.8-5.7-4.2q-0.1-0.3-0.1-0.6-0.1-0.3-0.1-0.5 0-0.2 0-0.3v-14.5q0-0.2 0-0.3 0-0.3 0.1-0.6 0-0.3 0.1-0.6c0.7-2.4 3-4.1 5.7-4.1h129.4q0.1 0.3 0.2 0.6c2.1 7.5 7 17.6 17.9 25.1z"/>
							<g id="&lt;Group&gt;">
								<path id="&lt;Path&gt;" class="s25" d="m1474.9 1696.9h-3.1v-25.7h3.1z"/>
								<path id="&lt;Path&gt;" class="s25" d="m1464.3 1696.9h-3.1v-25.7h3.1z"/>
								<path id="&lt;Path&gt;" class="s25" d="m1451.6 1696.9h-3.1v-25.7h3.1z"/>
								<path id="&lt;Path&gt;" class="s25" d="m1432.1 1696.9h-3.1v-25.7h3.1z"/>
								<path id="&lt;Path&gt;" class="s25" d="m1411.6 1696.9h-3.2v-25.7h3.2z"/>
								<path id="&lt;Path&gt;" class="s25" d="m1380 1696.9h-3.1v-25.7h3.1z"/>
								<path id="&lt;Path&gt;" class="s25" d="m1350.4 1696.9h-3.1v-25.7h3.1z"/>
								<path id="&lt;Path&gt;" class="s25" d="m1324.1 1696.9h-3.2v-25.7h3.2z"/>
								<path id="&lt;Path&gt;" class="s25" d="m1485 1696.9h-3.1v-25.7h3.1z"/>
								<path id="&lt;Path&gt;" class="s25" d="m1491.6 1696.9h-3.1v-25.7h3.1z"/>
								<path id="&lt;Path&gt;" class="s25" d="m1498.1 1696.9h-3.2v-25.7h3.2z"/>
								<path id="&lt;Path&gt;" class="s25" d="m1502.9 1671.3v25.5q-0.6 0.1-1.2 0.1h-1.9v-25.7h1.9q0.6 0 1.2 0.1z"/>
								<path id="&lt;Path&gt;" class="s25" d="m1507.3 1673.6v20.8c-0.8 0.9-1.9 1.7-3.2 2.1v-25c1.3 0.5 2.4 1.2 3.2 2.1z"/>
							</g>
						</g>
						<g id="&lt;Group&gt;">
							<path id="&lt;Path&gt;" class="s24" d="m1522.6 1651.7v14.5c0 1.2-0.4 2.2-1.1 3.1-0.8 1-1.9 1.7-3.1 2.1q-0.6 0.2-1.3 0.3-0.5 0.1-1.1 0.1h-275.3c-1.1 0-2.2-0.2-3.1-0.6-1.8-0.8-3.2-2.3-3.5-4.1q0-0.2-0.1-0.4 0-0.1 0-0.2 0-0.1 0-0.3v-14.5q0-0.1 0-0.3 0-0.3 0.1-0.5c0.5-2.7 3.2-4.8 6.6-4.8h275.3q0.6 0 1.1 0.1 0.7 0.1 1.3 0.3c1.2 0.4 2.3 1.1 3.1 2.1 0.7 0.9 1.1 1.9 1.1 3.1z"/>
							<path id="&lt;Path&gt;" class="s25" d="m1387.4 1671.8h-147.4c-1 0-2-0.2-2.8-0.6-1.6-0.8-2.8-2.3-3.1-4.1q0-0.2-0.1-0.4 0-0.1 0-0.2 0-0.1 0-0.3v-14.5q0-0.1 0-0.3 0-0.3 0.1-0.5 0-0.3 0.1-0.6c0.7-2.4 3-4.2 5.8-4.2h129.3c2 7.4 6.7 17.5 17.2 25.1q0.5 0.3 0.9 0.6z"/>
							<g id="&lt;Group&gt;">
								<path id="&lt;Path&gt;" class="s25" d="m1489.1 1671.8h-3.1v-25.7h3.1z"/>
								<path id="&lt;Path&gt;" class="s25" d="m1478.5 1671.8h-3.1v-25.7h3.1z"/>
								<path id="&lt;Path&gt;" class="s25" d="m1465.8 1671.8h-3.1v-25.7h3.1z"/>
								<path id="&lt;Path&gt;" class="s25" d="m1446.4 1671.8h-3.2v-25.7h3.2z"/>
								<path id="&lt;Path&gt;" class="s25" d="m1425.8 1671.8h-3.1v-25.7h3.1z"/>
								<path id="&lt;Path&gt;" class="s25" d="m1394.2 1671.8h-3.1v-25.7h3.1z"/>
								<path id="&lt;Path&gt;" class="s25" d="m1364.7 1671.8h-3.2v-25.7h3.2z"/>
								<path id="&lt;Path&gt;" class="s25" d="m1338.3 1671.8h-3.1v-25.7h3.1z"/>
								<path id="&lt;Path&gt;" class="s25" d="m1499.2 1671.8h-3.1v-25.7h3.1z"/>
								<path id="&lt;Path&gt;" class="s25" d="m1505.9 1671.8h-3.2v-25.7h3.2z"/>
								<path id="&lt;Path&gt;" class="s25" d="m1512.3 1671.8h-3.1v-25.7h3.1z"/>
								<path id="&lt;Path&gt;" class="s25" d="m1517.1 1646.2v25.5q-0.5 0.1-1.1 0.1h-2v-25.7h2q0.6 0 1.1 0.1z"/>
								<path id="&lt;Path&gt;" class="s25" d="m1521.5 1648.6v20.7c-0.8 1-1.9 1.7-3.1 2.1v-24.9c1.2 0.4 2.3 1.1 3.1 2.1z"/>
							</g>
						</g>
						<g id="&lt;Group&gt;">
							<path id="&lt;Path&gt;" class="s24" d="m1529.2 1626v14.5c0 1.2-0.4 2.2-1.1 3.1q-0.2 0.2-0.3 0.4-0.8 0.8-1.9 1.4-0.5 0.2-0.9 0.3-0.6 0.2-1.3 0.3-0.2 0.1-0.5 0.1-0.3 0-0.6 0h-275.3c-3.4 0-6.1-2.1-6.6-4.8q-0.1-0.2-0.1-0.5v-15.1c0.2-2.7 2.7-4.9 5.9-5.3q0.4 0 0.8 0h275.3q0.3 0 0.6 0 0.3 0 0.5 0.1 0.7 0.1 1.3 0.3c1.2 0.4 2.3 1.1 3.1 2.1 0.7 0.9 1.1 1.9 1.1 3.1z"/>
							<path id="&lt;Path&gt;" class="s25" d="m1394 1646.1h-147.5c-2.7 0-5-1.8-5.7-4.1q-0.1-0.3-0.1-0.7-0.1-0.2-0.1-0.5v-15.1c0.2-2.7 2.4-4.9 5.2-5.3q0.4 0 0.7 0h129.4q0 0 0 0c2.1 7.6 6.9 18 18.1 25.7z"/>
							<g id="&lt;Group&gt;">
								<path id="&lt;Path&gt;" class="s25" d="m1495.7 1646.1h-3.1v-25.7h3.1z"/>
								<path id="&lt;Path&gt;" class="s25" d="m1485.1 1646.1h-3.1v-25.7h3.1z"/>
								<path id="&lt;Path&gt;" class="s25" d="m1472.4 1646.1h-3.1v-25.7h3.1z"/>
								<path id="&lt;Path&gt;" class="s25" d="m1453 1646.1h-3.2v-25.7h3.2z"/>
								<path id="&lt;Path&gt;" class="s25" d="m1432.4 1646.1h-3.2v-25.7h3.2z"/>
								<path id="&lt;Path&gt;" class="s25" d="m1400.8 1646.1h-3.1v-25.7h3.1z"/>
								<path id="&lt;Path&gt;" class="s25" d="m1371.3 1646.1h-3.2v-25.7h3.2z"/>
								<path id="&lt;Path&gt;" class="s25" d="m1344.9 1646.1h-3.1v-25.7h3.1z"/>
								<path id="&lt;Path&gt;" class="s25" d="m1505.8 1646.1h-3.1v-25.7h3.1z"/>
								<path id="&lt;Path&gt;" class="s25" d="m1512.5 1646.1h-3.2v-25.7h3.2z"/>
								<path id="&lt;Path&gt;" class="s25" d="m1518.9 1646.1h-3.1v-25.7h3.1z"/>
								<path id="&lt;Path&gt;" class="s25" d="m1523.7 1620.5v25.5q-0.5 0.1-1.1 0.1h-2v-25.7h2q0.6 0 1.1 0.1z"/>
								<path id="&lt;Path&gt;" class="s25" d="m1528.1 1622.9v20.7c-0.8 1-1.9 1.7-3.1 2.1v-24.9c1.2 0.4 2.3 1.1 3.1 2.1z"/>
							</g>
						</g>
						<g id="&lt;Group&gt;">
							<path id="&lt;Path&gt;" class="s24" d="m1509 1600.3v14.5c0 1.2-0.4 2.3-1.2 3.2-0.7 0.9-1.8 1.7-3.1 2.1q-0.6 0.2-1.2 0.2-0.2 0.1-0.4 0.1-0.1 0-0.2 0-0.1 0-0.2 0-0.2 0-0.4 0h-275.3c-3.5 0-6.4-2.3-6.6-5.3q0-0.1 0-0.3v-14.5q0-0.1 0-0.3 0-0.1 0-0.2c0.3-2.4 2.3-4.3 5-4.9q0.1 0 0.2 0 0.7-0.2 1.4-0.2h275.3q0.3 0 0.6 0.1 0.1 0 0.3 0 0 0 0 0 0.1 0 0.3 0 0.6 0.1 1.2 0.3c1.3 0.4 2.4 1.2 3.1 2.1 0.8 0.9 1.2 2 1.2 3.1z"/>
							<path id="&lt;Path&gt;" class="s25" d="m1373.8 1620.4h-147.5c-3.2 0-5.8-2.3-5.9-5.3q0-0.1 0-0.3v-14.5q0-0.1 0-0.3 0-0.1 0-0.2c0.2-2.4 2.1-4.4 4.6-4.9q0.1-0.1 0.3-0.1 0.5-0.1 1-0.1h129.4q0 0.1 0 0.2c2.1 7.6 6.9 17.9 18 25.5q0.1 0 0.1 0z"/>
							<g id="&lt;Group&gt;">
								<path id="&lt;Path&gt;" class="s25" d="m1475.5 1620.4h-3.1v-25.7h3.1z"/>
								<path id="&lt;Path&gt;" class="s25" d="m1464.9 1620.4h-3.1v-25.7h3.1z"/>
								<path id="&lt;Path&gt;" class="s25" d="m1452.2 1620.4h-3.1v-25.7h3.1z"/>
								<path id="&lt;Path&gt;" class="s25" d="m1432.7 1620.4h-3.1v-25.7h3.1z"/>
								<path id="&lt;Path&gt;" class="s25" d="m1412.1 1620.4h-3.1v-25.7h3.1z"/>
								<path id="&lt;Path&gt;" class="s25" d="m1380.6 1620.4h-3.2v-25.7h3.2z"/>
								<path id="&lt;Path&gt;" class="s25" d="m1351 1620.4h-3.1v-25.7h3.1z"/>
								<path id="&lt;Path&gt;" class="s25" d="m1324.6 1620.4h-3.1v-25.7h3.1z"/>
								<path id="&lt;Path&gt;" class="s25" d="m1485.6 1620.4h-3.2v-25.7h3.2z"/>
								<path id="&lt;Path&gt;" class="s25" d="m1492.2 1620.4h-3.1v-25.7h3.1z"/>
								<path id="&lt;Path&gt;" class="s25" d="m1498.7 1620.4h-3.2v-25.7h3.2z"/>
								<path id="&lt;Path&gt;" class="s25" d="m1503.5 1594.8v25.6q-0.6 0-1.2 0h-1.9v-25.7h1.9q0.6 0 1.2 0.1z"/>
								<path id="&lt;Path&gt;" class="s25" d="m1507.8 1597.2v20.8c-0.7 0.9-1.8 1.6-3.1 2.1v-25c1.3 0.4 2.4 1.2 3.1 2.1z"/>
							</g>
						</g>
						<g id="&lt;Group&gt;">
							<path id="&lt;Path&gt;" class="s24" d="m1508.4 1574.8v14.5c0 1.2-0.4 2.3-1.1 3.2q-0.3 0.3-0.7 0.6c-0.7 0.6-1.5 1.1-2.5 1.4q-0.4 0.2-0.9 0.3 0 0 0 0-0.2 0-0.3 0-0.6 0.1-1.2 0.1h-275.3q-0.4 0-0.8 0-0.2 0-0.3-0.1c-2.8-0.4-5.1-2.3-5.5-4.7q0-0.2 0-0.5 0-0.1 0-0.3v-14.5q0-0.1 0-0.3 0-0.2 0.1-0.5c0.4-2.7 3.2-4.8 6.5-4.8h275.3q0.3 0 0.6 0 0 0 0 0 0.1 0.1 0.2 0.1 0.1 0 0.2 0 0.1 0 0.2 0 0.6 0.1 1.2 0.3 0.4 0.1 0.7 0.3c0.9 0.3 1.6 0.9 2.2 1.5q0.1 0.1 0.3 0.3c0.7 0.9 1.1 2 1.1 3.1z"/>
							<path id="&lt;Path&gt;" class="s25" d="m1373.2 1594.9h-147.5q-0.1 0-0.3 0-0.2 0-0.4 0c-2.7-0.3-4.8-2.3-5.2-4.8q0-0.2 0-0.5 0-0.1 0-0.3v-14.5q0-0.1 0-0.3 0-0.2 0.1-0.5 0-0.3 0.1-0.6c0.7-2.4 3-4.2 5.7-4.2h129.4q0.1 0.3 0.2 0.7c2.1 7.4 6.9 17.4 17.7 24.8q0.1 0.1 0.2 0.2z"/>
							<g id="&lt;Group&gt;">
								<path id="&lt;Path&gt;" class="s25" d="m1474.9 1594.9h-3.1v-25.7h3.1z"/>
								<path id="&lt;Path&gt;" class="s25" d="m1464.3 1594.9h-3.1v-25.7h3.1z"/>
								<path id="&lt;Path&gt;" class="s25" d="m1451.6 1594.9h-3.1v-25.7h3.1z"/>
								<path id="&lt;Path&gt;" class="s25" d="m1432.1 1594.9h-3.1v-25.7h3.1z"/>
								<path id="&lt;Path&gt;" class="s25" d="m1411.6 1594.9h-3.2v-25.7h3.2z"/>
								<path id="&lt;Path&gt;" class="s25" d="m1380 1594.9h-3.1v-25.7h3.1z"/>
								<path id="&lt;Path&gt;" class="s25" d="m1350.4 1594.9h-3.1v-25.7h3.1z"/>
								<path id="&lt;Path&gt;" class="s25" d="m1324.1 1594.9h-3.2v-25.7h3.2z"/>
								<path id="&lt;Path&gt;" class="s25" d="m1485 1594.9h-3.1v-25.7h3.1z"/>
								<path id="&lt;Path&gt;" class="s25" d="m1491.6 1594.9h-3.1v-25.7h3.1z"/>
								<path id="&lt;Path&gt;" class="s25" d="m1498.1 1594.9h-3.2v-25.7h3.2z"/>
								<path id="&lt;Path&gt;" class="s25" d="m1502.9 1569.3v25.5q-0.6 0.1-1.2 0.1h-1.9v-25.7h1.9q0.6 0 1.2 0.1z"/>
								<path id="&lt;Path&gt;" class="s25" d="m1507.3 1571.7v20.8c-0.8 0.9-1.9 1.6-3.2 2v-24.9c1.3 0.4 2.4 1.2 3.2 2.1z"/>
							</g>
						</g>
						<g id="&lt;Group&gt;">
							<path id="&lt;Path&gt;" class="s24" d="m1522.6 1549.8v14.5c0 1.1-0.4 2.2-1.1 3.1-0.8 0.9-1.9 1.7-3.1 2.1q-0.6 0.2-1.3 0.3-0.5 0.1-1.1 0.1h-275.3c-1.1 0-2.2-0.3-3.1-0.7-1.8-0.8-3.2-2.3-3.5-4q0-0.2-0.1-0.4 0-0.1 0-0.2 0-0.2 0-0.3v-14.5q0-0.2 0-0.3 0-0.3 0.1-0.6c0.5-2.7 3.2-4.7 6.6-4.7h275.3q0.6 0 1.1 0 0.7 0.1 1.3 0.3c1.2 0.4 2.3 1.2 3.1 2.1 0.7 0.9 1.1 2 1.1 3.2z"/>
							<path id="&lt;Path&gt;" class="s25" d="m1387.4 1569.9h-147.4c-1 0-2-0.3-2.8-0.7-1.6-0.8-2.8-2.3-3.1-4q0-0.2-0.1-0.4 0-0.1 0-0.2 0-0.2 0-0.3v-14.5q0-0.2 0-0.3 0-0.3 0.1-0.6 0-0.3 0.1-0.6c0.7-2.4 3-4.1 5.8-4.1h129.3c2 7.3 6.7 17.4 17.2 25q0.5 0.3 0.9 0.7z"/>
							<g id="&lt;Group&gt;">
								<path id="&lt;Path&gt;" class="s25" d="m1489.1 1569.9h-3.1v-25.7h3.1z"/>
								<path id="&lt;Path&gt;" class="s25" d="m1478.5 1569.9h-3.1v-25.7h3.1z"/>
								<path id="&lt;Path&gt;" class="s25" d="m1465.8 1569.9h-3.1v-25.7h3.1z"/>
								<path id="&lt;Path&gt;" class="s25" d="m1446.4 1569.9h-3.2v-25.7h3.2z"/>
								<path id="&lt;Path&gt;" class="s25" d="m1425.8 1569.9h-3.1v-25.7h3.1z"/>
								<path id="&lt;Path&gt;" class="s25" d="m1394.2 1569.9h-3.1v-25.7h3.1z"/>
								<path id="&lt;Path&gt;" class="s25" d="m1364.7 1569.9h-3.2v-25.7h3.2z"/>
								<path id="&lt;Path&gt;" class="s25" d="m1338.3 1569.9h-3.1v-25.7h3.1z"/>
								<path id="&lt;Path&gt;" class="s25" d="m1499.2 1569.9h-3.1v-25.7h3.1z"/>
								<path id="&lt;Path&gt;" class="s25" d="m1505.9 1569.9h-3.2v-25.7h3.2z"/>
								<path id="&lt;Path&gt;" class="s25" d="m1512.3 1569.9h-3.1v-25.7h3.1z"/>
								<path id="&lt;Path&gt;" class="s25" d="m1517.1 1544.2v25.6q-0.5 0.1-1.1 0.1h-2v-25.7h2q0.6 0 1.1 0z"/>
								<path id="&lt;Path&gt;" class="s25" d="m1521.5 1546.6v20.8c-0.8 0.9-1.9 1.7-3.1 2.1v-25c1.2 0.4 2.3 1.2 3.1 2.1z"/>
							</g>
						</g>
						<g id="&lt;Group&gt;">
							<path id="&lt;Path&gt;" class="s24" d="m1545.1 1524v14.6c0 1.1-0.4 2.2-1.1 3.1q-0.2 0.2-0.3 0.3-0.7 0.7-1.5 1.2-0.4 0.2-0.9 0.4 0 0 0 0-0.2 0.1-0.4 0.2-0.6 0.2-1.3 0.3-0.5 0.1-1.1 0.1h-275.3c-3.4 0-6.1-2.1-6.6-4.8q-0.1-0.3-0.1-0.6 0-0.1 0-0.2v-14.6q0-0.1 0-0.2c0.2-2.8 2.7-5 5.9-5.3q0.4 0 0.8 0h275.3q0.6 0 1.1 0 0.7 0.1 1.3 0.3c1.1 0.4 2 1 2.8 1.8q0.1 0.1 0.3 0.3c0.7 0.9 1.1 2 1.1 3.1z"/>
							<path id="&lt;Path&gt;" class="s25" d="m1409.9 1544.2h-147.5c-2.7 0-5-1.8-5.7-4.2q-0.1-0.3-0.1-0.6-0.1-0.3-0.1-0.6 0-0.1 0-0.2v-14.6q0-0.1 0-0.2c0.2-2.8 2.4-5 5.2-5.3q0.4 0 0.7 0h129.4q0 0 0 0c2.1 7.6 6.9 18 18.1 25.7z"/>
							<g id="&lt;Group&gt;">
								<path id="&lt;Path&gt;" class="s25" d="m1511.6 1544.2h-3.1v-25.7h3.1z"/>
								<path id="&lt;Path&gt;" class="s25" d="m1501 1544.2h-3.1v-25.7h3.1z"/>
								<path id="&lt;Path&gt;" class="s25" d="m1488.3 1544.2h-3.1v-25.7h3.1z"/>
								<path id="&lt;Path&gt;" class="s25" d="m1468.9 1544.2h-3.2v-25.7h3.2z"/>
								<path id="&lt;Path&gt;" class="s25" d="m1448.3 1544.2h-3.2v-25.7h3.2z"/>
								<path id="&lt;Path&gt;" class="s25" d="m1416.7 1544.2h-3.1v-25.7h3.1z"/>
								<path id="&lt;Path&gt;" class="s25" d="m1387.2 1544.2h-3.2v-25.7h3.2z"/>
								<path id="&lt;Path&gt;" class="s25" d="m1360.8 1544.2h-3.1v-25.7h3.1z"/>
								<path id="&lt;Path&gt;" class="s25" d="m1521.7 1544.2h-3.1v-25.7h3.1z"/>
								<path id="&lt;Path&gt;" class="s25" d="m1528.4 1544.2h-3.2v-25.7h3.2z"/>
								<path id="&lt;Path&gt;" class="s25" d="m1534.8 1544.2h-3.1v-25.7h3.1z"/>
								<path id="&lt;Path&gt;" class="s25" d="m1539.6 1518.5v25.6q-0.5 0.1-1.1 0.1h-2v-25.7h2q0.6 0 1.1 0z"/>
								<path id="&lt;Path&gt;" class="s25" d="m1544 1520.9v20.8c-0.8 0.9-1.9 1.7-3.1 2.1v-25c1.2 0.4 2.3 1.2 3.1 2.1z"/>
							</g>
						</g>
						<g id="&lt;Group&gt;">
							<path id="&lt;Path&gt;" class="s24" d="m1509 1498.4v14.5c0 1.2-0.4 2.2-1.2 3.1-0.7 1-1.8 1.7-3.1 2.1q-0.6 0.2-1.2 0.3-0.2 0-0.4 0.1-0.2 0-0.3 0-0.1 0-0.2 0-0.1 0-0.3 0h-275.3c-2.4 0-4.5-1.1-5.6-2.7-0.6-0.7-1-1.6-1-2.6q0-0.2 0-0.3v-14.5q0-0.2 0-0.3c0.1-2.4 2.1-4.4 4.7-5.1q0.9-0.2 1.9-0.2h275.3q0.2 0 0.4 0 0.1 0 0.1 0 0.4 0 0.7 0.1 0.6 0.1 1.2 0.3 0.3 0.1 0.6 0.2 1.1 0.4 1.9 1.2 0 0 0 0 0.1 0.1 0.1 0.1 0.3 0.3 0.5 0.6c0.8 0.9 1.2 1.9 1.2 3.1z"/>
							<path id="&lt;Path&gt;" class="s25" d="m1373.8 1518.5h-147.5c-2.1 0-3.9-1-5-2.5-0.5-0.8-0.9-1.8-0.9-2.8q0-0.2 0-0.3v-14.5q0-0.2 0-0.3c0.1-2.6 2.1-4.7 4.7-5.2q0.6-0.1 1.2-0.1h129.4q0.1 0.3 0.2 0.6c2.1 7.5 6.9 17.6 17.8 25.1q0.1 0 0.1 0z"/>
							<g id="&lt;Group&gt;">
								<path id="&lt;Path&gt;" class="s25" d="m1475.5 1518.5h-3.1v-25.7h3.1z"/>
								<path id="&lt;Path&gt;" class="s25" d="m1464.9 1518.5h-3.1v-25.7h3.1z"/>
								<path id="&lt;Path&gt;" class="s25" d="m1452.2 1518.5h-3.1v-25.7h3.1z"/>
								<path id="&lt;Path&gt;" class="s25" d="m1432.7 1518.5h-3.1v-25.7h3.1z"/>
								<path id="&lt;Path&gt;" class="s25" d="m1412.1 1518.5h-3.1v-25.7h3.1z"/>
								<path id="&lt;Path&gt;" class="s25" d="m1380.6 1518.5h-3.2v-25.7h3.2z"/>
								<path id="&lt;Path&gt;" class="s25" d="m1351 1518.5h-3.1v-25.7h3.1z"/>
								<path id="&lt;Path&gt;" class="s25" d="m1324.6 1518.5h-3.1v-25.7h3.1z"/>
								<path id="&lt;Path&gt;" class="s25" d="m1485.6 1518.5h-3.2v-25.7h3.2z"/>
								<path id="&lt;Path&gt;" class="s25" d="m1492.2 1518.5h-3.1v-25.7h3.1z"/>
								<path id="&lt;Path&gt;" class="s25" d="m1498.7 1518.5h-3.2v-25.7h3.2z"/>
								<path id="&lt;Path&gt;" class="s25" d="m1503.5 1492.9v25.5q-0.6 0.1-1.2 0.1h-1.9v-25.7h1.9q0.6 0 1.2 0.1z"/>
								<path id="&lt;Path&gt;" class="s25" d="m1507.8 1495.3v20.7c-0.7 1-1.8 1.7-3.1 2.1v-24.9c1.3 0.4 2.4 1.1 3.1 2.1z"/>
							</g>
						</g>
						<g id="&lt;Group&gt;">
							<path id="&lt;Path&gt;" class="s24" d="m1529.2 1473.3v14.5c0 1.2-0.4 2.2-1.1 3.1-0.8 1-1.9 1.7-3.1 2.1q-0.6 0.2-1.3 0.3-0.5 0.1-1.1 0.1h-275.3c-1.1 0-2.1-0.2-3-0.6-2-0.8-3.5-2.5-3.7-4.5q0-0.1 0-0.2 0-0.2 0-0.3v-14.5q0-0.2 0-0.3c0.2-2.7 2.7-5 5.9-5.3q0.4 0 0.8 0h275.3q0.6 0 1.1 0.1 0.7 0.1 1.3 0.3c1.2 0.4 2.3 1.1 3.1 2.1 0.7 0.9 1.1 1.9 1.1 3.1z"/>
							<path id="&lt;Path&gt;" class="s25" d="m1394 1493.4h-147.5c-0.9 0-1.8-0.2-2.6-0.6-1.8-0.8-3.1-2.5-3.3-4.5q0-0.1 0-0.2 0-0.2 0-0.3v-14.5q0-0.2 0-0.3c0.2-2.7 2.4-5 5.2-5.3q0.4 0 0.7 0h129.4q0 0 0 0c2.1 7.4 6.7 17.5 17.3 25.1q0.4 0.3 0.8 0.6z"/>
							<g id="&lt;Group&gt;">
								<path id="&lt;Path&gt;" class="s25" d="m1495.7 1493.4h-3.1v-25.7h3.1z"/>
								<path id="&lt;Path&gt;" class="s25" d="m1485.1 1493.4h-3.1v-25.7h3.1z"/>
								<path id="&lt;Path&gt;" class="s25" d="m1472.4 1493.4h-3.1v-25.7h3.1z"/>
								<path id="&lt;Path&gt;" class="s25" d="m1453 1493.4h-3.2v-25.7h3.2z"/>
								<path id="&lt;Path&gt;" class="s25" d="m1432.4 1493.4h-3.2v-25.7h3.2z"/>
								<path id="&lt;Path&gt;" class="s25" d="m1400.8 1493.4h-3.1v-25.7h3.1z"/>
								<path id="&lt;Path&gt;" class="s25" d="m1371.3 1493.4h-3.2v-25.7h3.2z"/>
								<path id="&lt;Path&gt;" class="s25" d="m1344.9 1493.4h-3.1v-25.7h3.1z"/>
								<path id="&lt;Path&gt;" class="s25" d="m1505.8 1493.4h-3.1v-25.7h3.1z"/>
								<path id="&lt;Path&gt;" class="s25" d="m1512.5 1493.4h-3.2v-25.7h3.2z"/>
								<path id="&lt;Path&gt;" class="s25" d="m1518.9 1493.4h-3.1v-25.7h3.1z"/>
								<path id="&lt;Path&gt;" class="s25" d="m1523.7 1467.8v25.5q-0.5 0.1-1.1 0.1h-2v-25.7h2q0.6 0 1.1 0.1z"/>
								<path id="&lt;Path&gt;" class="s25" d="m1528.1 1470.2v20.7c-0.8 1-1.9 1.7-3.1 2.1v-24.9c1.2 0.4 2.3 1.1 3.1 2.1z"/>
							</g>
						</g>
						<g id="&lt;Group&gt;">
							<path id="&lt;Path&gt;" class="s24" d="m1537.8 1447.6v14.5c0 1.2-0.4 2.3-1.1 3.2-0.8 0.9-1.9 1.6-3.1 2.1q-0.6 0.1-1.3 0.2-0.1 0.1-0.3 0.1-0.1 0-0.3 0-0.1 0-0.2 0-0.1 0-0.3 0h-275.3c-3.6 0-6.5-2.3-6.7-5.3q0-0.1 0-0.3v-14.5q0-0.1 0-0.3c0.2-2.9 3.1-5.3 6.7-5.3h275.3q0.6 0 1.1 0.1 0.7 0.1 1.3 0.3c1.2 0.4 2.3 1.2 3.1 2.1 0.7 0.9 1.1 2 1.1 3.1z"/>
							<path id="&lt;Path&gt;" class="s25" d="m1402.7 1467.7h-147.5c-3.2 0-5.8-2.3-6-5.3q0-0.1 0-0.3v-14.5q0-0.1 0-0.3c0.2-2.9 2.8-5.3 6-5.3h129.3c2.1 7.6 6.9 18 18.1 25.7q0 0 0.1 0z"/>
							<g id="&lt;Group&gt;">
								<path id="&lt;Path&gt;" class="s25" d="m1504.3 1467.7h-3.1v-25.7h3.1z"/>
								<path id="&lt;Path&gt;" class="s25" d="m1493.7 1467.7h-3.1v-25.7h3.1z"/>
								<path id="&lt;Path&gt;" class="s25" d="m1481 1467.7h-3.1v-25.7h3.1z"/>
								<path id="&lt;Path&gt;" class="s25" d="m1461.6 1467.7h-3.2v-25.7h3.2z"/>
								<path id="&lt;Path&gt;" class="s25" d="m1441 1467.7h-3.1v-25.7h3.1z"/>
								<path id="&lt;Path&gt;" class="s25" d="m1409.4 1467.7h-3.1v-25.7h3.1z"/>
								<path id="&lt;Path&gt;" class="s25" d="m1379.9 1467.7h-3.1v-25.7h3.1z"/>
								<path id="&lt;Path&gt;" class="s25" d="m1353.5 1442v25.7h-3.1v-25.7z"/>
								<path id="&lt;Path&gt;" class="s25" d="m1514.4 1467.7h-3.1v-25.7h3.1z"/>
								<path id="&lt;Path&gt;" class="s25" d="m1521.1 1467.7h-3.1v-25.7h3.1z"/>
								<path id="&lt;Path&gt;" class="s25" d="m1527.5 1467.7h-3.1v-25.7h3.1z"/>
								<path id="&lt;Path&gt;" class="s25" d="m1532.3 1442.1v25.5q-0.5 0.1-1.1 0.1h-2v-25.7h2q0.6 0 1.1 0.1z"/>
								<path id="&lt;Path&gt;" class="s25" d="m1536.7 1444.5v20.8c-0.8 0.9-1.9 1.6-3.1 2.1v-25c1.2 0.4 2.3 1.2 3.1 2.1z"/>
							</g>
						</g>
					</g>
					<g id="&lt;Group&gt;">
						<path id="&lt;Path&gt;" class="s26" d="m1450.6 1295.6c0 0-14.5 20.3-27.7 20.6-13.3 0.3-33.5-9.4-33.5-9.4 0 0-12.1-27.2-3.9-37.8 0 0 8.3-3.6 17 2.8 1.4 1.1 2.9 2.5 4.4 4.3 2.1 2.5 4.5 4 7 4.7 9.5 2.9 20.7-3.9 24.9 2.7 2.4 3.8 5.1 6.6 7.3 8.6 2.6 2.3 4.5 3.5 4.5 3.5z"/>
						<path id="&lt;Path&gt;" class="s26" d="m1262.1 1442.4c0 0 51.1-123.8 143.1-126.2 0 0 84.9 9.4 89.6 126.2z"/>
						<path id="&lt;Path&gt;" class="s27" d="m1392.8 1304.4c4.1 2.1 11 7.2 21.6 5.7 15.5-2.1 13.8 13.3 13.8 13.3-11.4 4.8-48.2-3.4-48.2-3.4-1.6-6.5 7-18.5 12.8-15.6z"/>
						<path id="&lt;Path&gt;" class="s28" d="m1412.1 1296.7c-2.4 1.8-9.6-24.9-9.6-24.9 1.4 1.1 2.9 2.5 4.4 4.3 2.1 2.5 4.5 4 7 4.7 0 0.8 0.4 14.2-1.8 15.9z"/>
						<path id="&lt;Path&gt;" class="s28" d="m1446.1 1292.1c-0.5 0.3-17.6 10.5-19.9 10.5-2.4 0 12.6-19.1 12.6-19.1 2.4 3.8 5.1 6.6 7.3 8.6z"/>
						<path id="&lt;Path&gt;" class="s29" d="m1312 1407.8c-1-0.8 36.2-54.6 46.4-55 10.2-0.4 33.2 11.8 49.8 13.3 16.6 1.6 32.7-3.1 35.9 6.7 3.1 9.8 11.8 44.7 6.5 50.3-5.3 5.5-118.2 2.1-138.6-15.3z"/>
					</g>
				</g>
				<path id="&lt;Path&gt;" class="s30" d="m1346.9 1594.7q0 0.1 0 0.2c-0.5 8.7-1.8 17.2-4.1 25.5q0 0 0 0-0.5 1.9-1.1 3.6c-2.3 7.6-5.3 15-9 22.1-4.7 8.9-10.5 17.3-17.3 25.1q-0.3 0.3-0.6 0.6c-8.5 9.6-18.6 18-30.2 25.1q-3.7 2.2-7.5 4.2-2.6 1.4-5.3 2.6c-1.7 1-3.4 1.8-5.1 2.9-4.8 2.9-10.9 5.3-17.5 7.2v-11.3q0-0.2 0-0.3 0-0.3 0.1-0.6 0-0.3 0.1-0.6c0.7-2.4 3-4.1 5.8-4.1h-29.5c-2.7 0-5-1.8-5.7-4.2q-0.1-0.3-0.1-0.6-0.1-0.3-0.1-0.5 0-0.2 0-0.3v-14.5q0-0.2 0-0.3 0-0.3 0.1-0.6 0-0.3 0.1-0.6c0.7-2.4 3-4.1 5.7-4.1h11.5c-1.6-0.8-2.8-2.3-3.1-4.1q0-0.2-0.1-0.4 0-0.1 0-0.2 0-0.1 0-0.3v-14.5q0-0.1 0-0.3 0-0.3 0.1-0.5 0-0.3 0.1-0.6c0.7-2.4 3-4.2 5.8-4.2h6.5c-2.7 0-5-1.8-5.7-4.1q-0.1-0.3-0.1-0.7-0.1-0.2-0.1-0.5v-15.1c0.2-2.7 2.4-4.9 5.2-5.3h-19.5c-3.2 0-5.8-2.3-5.9-5.3q0-0.1 0-0.3v-14.5q0-0.1 0-0.3 0-0.1 0-0.2c0.2-2.4 2.1-4.4 4.6-4.9-2.7-0.3-4.8-2.3-5.2-4.8q0-0.2 0-0.5 0-0.1 0-0.3v-14.5q0-0.1 0-0.3 0-0.2 0.1-0.5 0-0.3 0.1-0.6c0.7-2.4 3-4.2 5.7-4.2h11.5c-1.6-0.8-2.8-2.3-3.1-4q0-0.2-0.1-0.4 0-0.1 0-0.2 0-0.2 0-0.3v-14.5q0-0.2 0-0.3 0-0.3 0.1-0.6 0-0.3 0.1-0.6c0.7-2.4 3-4.1 5.8-4.1h22.4c-2.7 0-5-1.8-5.7-4.2q-0.1-0.3-0.1-0.6-0.1-0.3-0.1-0.6 0-0.1 0-0.2v-14.6q0-0.1 0-0.2c0.2-2.8 2.4-5 5.2-5.3h-35.4c-2.1 0-3.9-1-5-2.5l0.1-0.2 3.7-22.8v-0.1l5.3-32.5q9.3 1.2 18.3 3.7 0.5 0.1 1 0.3 0 0 0.1 0 5.2 1.4 10.3 3.3 0 0 0.1 0c15.6 5.7 30.1 14.1 42.7 25.1q0.4 0.3 0.7 0.6c6.5 5.7 12.6 12.2 17.9 19.3q1.6 2.1 3.1 4.3 0.5 0.7 1 1.5 0.1 0 0.1 0 2.4 3.6 4.6 7.4 5.1 8.9 8.7 18.3c3.1 8.2 5.4 16.6 6.7 25q0 0.3 0.1 0.7c1.2 8.3 1.6 16.6 1.1 24.8z"/>
				<g id="&lt;Group&gt;">
					<path id="&lt;Path&gt;" class="s31" d="m1062.6 1646.8c-36.1-65.4-12.3-147.8 53.2-183.9 65.5-36.1 147.8-12.3 183.9 53.2 36.2 65.5 12.3 147.9-53.2 184-65.5 36.1-147.8 12.2-183.9-53.3z"/>
					<path id="&lt;Path&gt;" class="s24" d="m1241.3 1702.8q-2.5 1.5-5.1 3-0.9 0.5-1.8 0.9-2 1.1-4 2.1c-64.5 31.6-143.1 7.3-178.2-56.3-33.4-60.6-15.4-135.7 39.4-175.2q6.6-4.7 13.8-8.7 2.6-1.4 5.3-2.8 2.6-1.2 5.1-2.4 8-3.5 16.2-6c8.1-2.4 16.3-4 24.5-4.9 25.5-2.7 51.2 1.9 73.9 13.1 24.2 11.8 45 30.9 59 56.2 35.2 63.8 13.5 143.5-48.1 181z"/>
					<g id="&lt;Group&gt;">
						<path id="&lt;Compound Path&gt;" fill-rule="evenodd" class="s25" d="m1171.8 1710c-11.4 0-22.7-1.6-33.9-4.9-31.2-9-56.9-29.6-72.6-57.9-15.6-28.4-19.3-61.2-10.3-92.3 9-31.2 29.6-56.9 58-72.6 58.6-32.3 132.5-10.9 164.8 47.7 32.3 58.6 11 132.5-47.6 164.8-18.2 10.1-38.2 15.2-58.4 15.2zm-0.4-239.5c-19.3 0-38.8 4.8-56.8 14.7-27.6 15.2-47.7 40.3-56.4 70.6-8.8 30.3-5.2 62.2 10 89.8 15.2 27.6 40.3 47.6 70.6 56.4 30.3 8.8 62.2 5.2 89.8-10 57-31.5 77.8-103.4 46.4-160.4-21.5-39-62-61.1-103.6-61.1z"/>
					</g>
					<g id="&lt;Group&gt;">
						<path id="&lt;Compound Path&gt;" class="s25" d="m1234.2 1615.5q-0.2 7.3-3.3 13.8-0.2 0.5-0.5 1-3.1 6-8.5 11.2-5.9 5.6-14.2 9.8l7.2 17.7-15.2 6.1-7.1-17.5q-8.3 2.4-16.8 2.8-8.4 0.3-16.2-2.4-7.8-2.7-14.3-8.9-6.5-6.2-10.8-16.9l27.5-11.2q2.6 6.3 6.1 9.8 3.5 3.5 7.4 4.8 4 1.4 8.2 0.9 4.2-0.6 8.1-2.1 4.5-1.9 7.4-4.4 2.9-2.5 4.4-5.5 1.5-3 1.5-6.2 0-3.3-1.4-6.6-1.5-3.7-3.7-6.1-2.2-2.4-5.5-3.7-3.3-1.4-7.9-1.8-4.5-0.4-10.7-0.1-10.7 0.5-19.8 0.1-9.1-0.5-16.5-3-7.3-2.5-12.9-7.6-5.5-5.1-9.1-13.8-3-7.5-2.9-14.8 0.2-7.3 3.3-13.9 3.1-6.6 8.8-12.3 5.8-5.7 14-10l-7.7-19 15.3-6.2 7.8 19.3q8.7-2.3 16.7-1.7 8 0.5 14.8 3.9 6.8 3.3 12.2 9.4 5.4 6.1 9 15l-27.5 11.2q-4.4-10.6-11.2-14-6.9-3.4-14.8-0.1-4.3 1.7-6.9 4.2-2.6 2.4-3.8 5.3-1.2 2.9-1 6.1 0.2 3.3 1.6 6.5 1.3 3.3 3.3 5.6 2.1 2.3 5.3 3.6 3.3 1.3 8 1.7 4.6 0.4 11.2 0.2 10.7-0.3 19.8 0.3 9 0.5 16.4 3.1 7.3 2.5 12.9 7.6 4.9 4.5 8.2 11.7 0.5 1 0.9 2 3.1 7.8 2.9 15.1z"/>
					</g>
				</g>
			</g>
			<g id="&lt;Group&gt;">
				<g id="&lt;Group&gt;">
					<path id="&lt;Path&gt;" class="s15" d="m1051.9 909.1q0.4-0.3 0.8-0.6c3.9-2.4 8.4-2.4 12.4-5.7 7.5-6.1 14.1-45.3 14.1-45.3l22.8 3.7c0 0-15.3 49.4-16.2 60.1-1.2 13.2-2.5 17.4 2.8 26.2q0.9 1.5 1.8 3 0.3 0.5 0.6 1.1c4.5 7.3 8.5 13.8 6.6 14.8-2.3 1.2-10.5 1-22.5-11.3-10.5-10.8-8.3-12-14.2-17.3q-0.1-0.2-0.3-0.4-0.3-0.2-0.5-0.4-0.9-0.8-2.1-1.7c-6.3-5-11.7-10-13.3-14.4q-0.1 0-0.1-0.1c-0.9-2.4-0.6-4.6 1.1-6.7 1.8-2 4-3.6 6.2-5z"/>
					<path id="&lt;Path&gt;" class="s14" d="m1051.9 909.1q0.4-0.3 0.8-0.6c4.9 6.8 9.8 18.5 17 27.6 8.2 10.3 19 14.6 21.3 15.5 4.5 7.3 8.5 13.8 6.6 14.8-2.3 1.2-10.5 1-22.5-11.3-10.5-10.8-8.3-12-14.2-17.3q-0.1-0.2-0.3-0.4-0.3-0.2-0.5-0.4-0.9-0.8-2.1-1.8c-6.1-4.9-11.3-9.9-13.3-14.3q-0.1 0-0.1-0.1c-0.9-2.4-0.6-4.6 1.1-6.7 1.8-2 4-3.6 6.2-5z"/>
					<path id="&lt;Path&gt;" class="s15" d="m1229.1 891.1c0.3-4.5 0.4-10.4-2.3-14.9-4.5-7.5-16.1-24.8-16.1-24.8l21.9-1.9c0 0 12.4 19.4 20.6 24.1 8.7 5 15.7 11.1 25.3 12.2q1.6 0.2 3.2 0.4c8.4 0.9 16.3 1.6 15.9 3.7-0.5 2.4-5.3 8.4-21.2 10.2-15.9 1.9-13.3-1.4-24.5 1.5-11.1 2.8-21.1 4-22.6-3-0.5-2.5-0.4-5-0.2-7.5z"/>
					<path id="&lt;Path&gt;" class="s14" d="m1229.3 898.6c-0.5-2.5-0.4-5-0.2-7.5 7.4-0.2 18.9 2.9 29.7 2.5 13.3-0.4 22.8-7.2 22.8-7.2l0.1-0.2c8.4 0.9 16.3 1.6 15.9 3.7-0.5 2.4-5.3 8.4-21.2 10.2-15.9 1.9-13.3-1.4-24.5 1.5-11.1 2.8-21.1 4-22.6-3z"/>
					<path id="&lt;Path&gt;" class="s19" d="m1144.6 759.4l-20.1 55.1-26.2 72c0 0-7.2 0.8-14.1-1.2-6.4-1.8-13.8-6.5-13.8-6.5 0 0 6.9-77.2 20.4-121.5 3.4-11.4 7.3-20.6 11.7-25.8 21.2-25.5 42.1 27.9 42.1 27.9z"/>
					<path id="&lt;Path&gt;" class="s19" d="m1245.3 861.5c0 0-2 2.7-7.6 4.8-5.1 2-17.7 2-17.7 2 0 0-82.3-69.6-92.2-89.9-9.9-20.4-13.9-39.9-23.6-37.8-6 1.2-51.8 29.8-93 30.1-16 0.1-64.5-0.4-64.5-0.4 0 0-13.8-2.8-16.1-8.4-15.2-38.5 11.7-99.4 11.7-99.4l82.9 5.9 8.1 13.2c38.3-7.8 76.4-13.6 89.9-9.3 30.2 9.5 122.1 189.2 122.1 189.2z"/>
					<path id="&lt;Compound Path&gt;" class="s14" d="m1023.9 554.4c-29.4 16.4-89 50.5-89.3 50.3 0 0-21.9 8.4-34.5 0.2-20.9-13.6-32.3-50.7 5.5-83 18.9-16.1 32.3-20.1 34.2-45.5 1-13.9 19.6-59.6 51-55.6 2.6 0.3 5.3 0.5 7.9 0.4 3.7-0.1 9.7 0.4 16 4 17.8 10.5 53.4 122.6 9.2 129.2z"/>
					<path id="&lt;Path&gt;" class="s15" d="m999.1 540.7c0.1 0.1-14.5 5.2-24.3 0.9-9.3-4-16.4-19.1-16.2-19.1 4.2-0.2 8.7-3.9 12.1-28l1.8 0.6 30.1 10.6c0 0-2.1 9.7-3.5 18.8-1.1 7.8-1.7 15.1 0 16.2z"/>
					<path id="&lt;Path&gt;" class="s32" d="m1002.6 505.7c0 0-1.3 6.8-3.1 16.4-17.2-2.9-24.5-17.7-27-27z"/>
					<path id="&lt;Path&gt;" class="s15" d="m1007.1 515.3c0 0-41.1-5.3-37.4-30.8 3.6-25.5 0.8-43.4 27.2-41.2 26.3 2.3 30 12.8 30.9 21.6 0.9 8.8-9.9 51.1-20.7 50.4z"/>
					<path id="&lt;Path&gt;" class="s14" d="m1026.2 450.9c0 0-26.1 22.8-44 24.8-17.8 1.9-24.6-3.7-24.6-3.7 0 0 10.4-8.9 16.7-23 1.8-4.2 5.7-7.1 10.3-7.5 12.7-1.2 36.9-1.9 41.6 9.4z"/>
					<path id="&lt;Path&gt;" class="s14" d="m1028.6 450.5c7.9 12.9-5.6 39.6-5.6 39.6 2-5.8 1.1-20.3-1.6-26.4-2.8-6.3-11.6-14.7-11.6-14.7 0 0 10.5-12.1 18.8 1.5z"/>
					<path id="&lt;Path&gt;" class="s33" d="m1034.1 600.9c-0.7 83.1 0.1 65.8-9 73.7-2.1 1.9-8.3 3.1-16.4 3.7-25.4 1.9-70.3-2-72-6.7-6-16.3-1.9-21.4-7-46.3q-0.8-3.9-1.9-8.6c-4.2-17.1-8.2-22.9 6.1-50.5 13-25.1 26.5-45.4 27.7-44.7 34.9 20.4 37.5 3.1 37.5 3.1 0 0 35.3 35.8 35 76.3z"/>
					<path id="&lt;Path&gt;" class="s19" d="m1124.5 814.5l-26.2 72c0 0-7.2 0.8-14.1-1.2-6.4-1.8-13.8-6.5-13.8-6.5 0 0 6.9-77.2 20.4-121.5z"/>
					<path id="&lt;Path&gt;" class="s13" d="m999.1 524.5c0 0 35.8 5.8 40.1 21.2 4.3 15.3 29.6 105.5 29.6 105.5 0 0-18.1 3.4-26.6-4.9-8.4-8.3-29.7-77.6-29.7-77.6z"/>
					<path id="&lt;Path&gt;" class="s34" d="m1008.7 678.3c-25.4 1.9-70.3-2-72-6.7-6-16.3-1.9-21.4-7-46.3l12.1-34.7c0 0-1.8 38.6 9.7 48.6 11.4 10.1 46.6 19.3 52.2 27.7 2.7 4.1 4.5 8.1 5 11.4z"/>
					<path id="&lt;Path&gt;" class="s15" d="m979.4 662.3c0 0 25.1-5.8 29.2-3.6 4.1 2.2 14 10.3 15.3 13.1 1.2 2.8-9.1-2.1-12.4-3-2.2-0.5-7.9 1.5-10.7 2.4-11.8 4.1-19.1 2.1-19.1 2.1z"/>
					<path id="&lt;Path&gt;" class="s13" d="m951.2 584.5c0.1 7.8-34.6 56.1-32 58.7 2.6 2.6 58.9 11.3 62.4 16.9 3.5 5.6 1.1 17.2 1.1 17.2 0 0-74.7 11.4-95.8-3.1-18.8-12.9 13.1-110.9 29.4-134 11.6-16.4 45.3-18.7 45.3-18.7 0 0-10.4 55.3-10.4 63z"/>
					<path id="&lt;Path&gt;" class="s15" d="m1016.1 667.5l3.6 6.3c0 0-1.1 0.3-2.8-0.5-1.7-0.8-7-7.6-7-7.6z"/>
					<path id="&lt;Path&gt;" class="s15" d="m1008.6 658.7l15.3 7.3c0 0-0.6 1.1-2.5 1-1.9 0-6.6-1.7-6.6-1.7z"/>
				</g>
				<g id="&lt;Group&gt;">
					<g id="&lt;Group&gt;">
						<path id="&lt;Path&gt;" class="s14" d="m1049.6 593.4l120.9-0.9-35.8 90.9-121.1 0.8z"/>
						<text id="Payroll Management System" style="transform: matrix(1,0,0,1,1329,801)" >
							<tspan x="0" y="34.3" class="t35">P</tspan><tspan  y="34.3" class="t35">a</tspan><tspan  y="34.3" class="t35">y</tspan><tspan  y="34.3" class="t35">r</tspan><tspan  y="34.3" class="t35">o</tspan><tspan  y="34.3" class="t35">l</tspan><tspan  y="34.3" class="t35">l</tspan><tspan  y="34.3" class="t35"> </tspan><tspan  y="34.3" class="t35">M</tspan><tspan  y="34.3" class="t35">a</tspan><tspan  y="34.3" class="t35">n</tspan><tspan  y="34.3" class="t35">a</tspan><tspan  y="34.3" class="t35">g</tspan><tspan  y="34.3" class="t35">e</tspan><tspan  y="34.3" class="t35">m</tspan><tspan  y="34.3" class="t35">e</tspan><tspan  y="34.3" class="t35">n</tspan><tspan  y="34.3" class="t35">t</tspan><tspan  y="34.3" class="t35"> </tspan><tspan  y="34.3" class="t35">S</tspan><tspan  y="34.3" class="t35">y</tspan><tspan  y="34.3" class="t35">s</tspan><tspan  y="34.3" class="t35">t</tspan><tspan  y="34.3" class="t35">e</tspan><tspan  y="34.3" class="t35">m</tspan><tspan  y="34.3" class="t35">
</tspan>
						</text>
						<text id="G  LIS" style="transform: matrix(1.095,0,0,1.095,1072,620)" >
							<tspan x="0" y="20.2" class="t36">G</tspan><tspan  y="20.2" class="t36"> </tspan><tspan  y="20.2" class="t36"> </tspan><tspan  y="20.2" class="t36">L</tspan><tspan  y="20.2" class="t36">I</tspan><tspan  y="20.2" class="t36">S
</tspan>
						</text>
						<path id="&lt;Path&gt;" class="s14" d="m1134.7 683.4l-158.5 1.1v-3.5l159.9-1.2z"/>
					</g>
					<path id="&lt;Path&gt;" class="s1" d="m1096.5 644.1c-3.2 0-5.1-2.5-4.2-5.7 0.9-3.2 4.2-5.8 7.4-5.9 3.2 0 5 2.6 4.2 5.8-0.9 3.2-4.2 5.8-7.4 5.8z"/>
				</g>
			</g>
			<g id="&lt;Group&gt;">
				<path id="&lt;Compound Path&gt;" class="s18" d="m2110.1 1090.2c1.9-5.8-25.9 11.8-59.1 0.7-28.5-9.6-2.8-28.3-10.1-51.9-5.1-16.9-3.5-62.1 40.7-64 0 0 10.6-6.4 25.9-1.3 34.9 11.6 107.5 124.7 2.6 116.5z"/>
				<path id="&lt;Path&gt;" class="s19" d="m2061.7 1193.9c0 0-4.2 8.3-11.8 17.8-9.2 11.5-57.3-15.7-53.2-17.8 4.2-2.1 27.6-68.7 37.5-80.5 9.2-10.9 22-13.4 22-13.4z"/>
				<path id="&lt;Path&gt;" class="s37" d="m2224.2 1664c0 0 13.3 12.2 10.7 20.8-2.6 8.6-14.6 14.3-16.2 24.9-1.6 10.5-8.1 16.3-13.9 16.3-5.9 0-27.9 0-27.9 0 0 0-4.3-7.5 6.1-9.7 10.4-2.2 14.3-14.6 13.7-26.1-0.7-11.5 0.9-26.8 0.9-26.8l22.1-5.1z"/>
				<path id="&lt;Path&gt;" class="s37" d="m2111.7 1669.2c0 0 4.8 51.4-1 54.2l-74.7-0.1c0 0 0-8.6 12-10.6 12-1.9 33-8.9 36.6-24.5 3.6-15.7 27.1-19 27.1-19z"/>
				<path id="&lt;Path&gt;" class="s19" d="m2169.2 1159.2c0 0 1.1 15.7 0 34.5-0.8 12.5-13.4 29.2-15.2 33.4-4.5 10.3-9.6 12-9.6 12l-39.2 9.6-13.7 3.4-43.5-13c0 0-19.8-55.2-11.9-86.4 8-31.1 20.1-52.7 20.1-52.7 0 0 29.6-6.6 81.7-2.9z"/>
				<path id="&lt;Path&gt;" class="s38" d="m2172.9 1194.2c-0.7 12.5-17.1 28.7-18.9 32.9-4.5 10.3-9.6 12-9.6 12l-39.2 9.6-10.4-14.7c0 0 63.4-17.7 51.4-73.6z"/>
				<path id="&lt;Path&gt;" class="s18" d="m2109 1247.5c0 0 0.1 66.4 10.5 143.1 10.4 76.8-6.4 291.7-6.4 291.7 0 0-3.5 3.8-14.7 6.9-8.1 2.3-13.8-1-13.8-1 0 0-12.3-6.3-13.9-16.3-1.7-10.5-44.2-311.7-42.9-334.6 1.4-22.8 22.9-89.8 22.9-89.8z"/>
				<path id="&lt;Path&gt;" class="s18" d="m2142 1245.5c0 0 32.8 44.1 35.9 73.9 3 29.7 4.8 134.4 11.3 163.4 6.5 29 30.5 84.9 30.5 175.5 0 0-2.5 5.2-10.2 7.9-2.5 0.9-5.8 1.8-9 2.5-6.3 1.5-12.8-1.6-15.7-7.5-16.2-32.6-67.8-137.8-70.5-159.6-1.8-15.5-18.1-117.8-53.7-177.8-8.5-14.4 5.3-71.7 5.3-71.7z"/>
				<text id="Layer 463" style="transform: matrix(1,0,0,1,1350,504)" >
				</text>
				<path id="&lt;Path&gt;" class="s19" d="m2047.3 1237.2c0 0 8.6 6.8 25.8 7.2 20.5 0.4 71.3-5.3 71.3-5.3 0 0 2.3 6.3 2.2 13 0 0-62.1 15.6-98 2.3 0 0-4.7-8.7-1.3-17.2z"/>
				<g id="&lt;Group&gt;">
					<path id="&lt;Compound Path&gt;" fill-rule="evenodd" class="s0" d="m2068.2 1262c-5.2 0-9.4-4.7-9.4-10.6 0-5.8 4.2-10.6 9.4-10.6 5.2 0 9.4 4.8 9.4 10.6 0 5.9-4.2 10.6-9.4 10.6zm0-18.1c-3.5 0-6.3 3.4-6.3 7.5 0 4.2 2.8 7.5 6.3 7.5 3.4 0 6.3-3.3 6.3-7.5 0-4.1-2.9-7.5-6.3-7.5z"/>
				</g>
				<path id="&lt;Path&gt;" class="s39" d="m2113 1281.3l-93.2 0.9-45.9-107.9 93.2-0.9z"/>
				<path id="&lt;Path&gt;" class="s40" d="m2095.5 1242c0 0-8.6 1.7-14.2 3.5-7.5 2.3-17.2-3-20.6-6.2-3.4-3.1-9.7-8.8-7.1-11.4 2.2-2.2 20 2.5 27-2.8l-0.3-0.1c0 0-6.1-8.2-5.4-9.3 0.7-1.2 7.8 2.9 11.1 3.6 3.4 0.7 8 4.8 8 4.8l6.8 8.4z"/>
				<path id="&lt;Path&gt;" class="s40" d="m1980.9 1193.3c0 0 5.8-6.7 9.6-3.5 3.7 3.2-1 18.9-4.6 17.3-3.5-1.6-7.1-11.9-5-13.8z"/>
				<path id="&lt;Path&gt;" class="s19" d="m2137.9 1097.1c0 0 31.1 2.2 43 31.2 11.9 28.9 33.9 76.6 29.1 96.6-1.8 8-24.5 35.6-119 18.1 0 0 0.8-9.9 7.2-14.6 0 0 66.5-21.3 66.4-25.6-0.2-8-9-15-46.2-52.2-10.1-10.1 19.5-53.5 19.5-53.5z"/>
				<path id="&lt;Path&gt;" class="s40" d="m2078.3 1100.6c-2.5-1.5-0.5-12.4-0.5-19.6q0-0.1 0-0.2c0-8.4-0.8-17.2-0.8-17.2l33.1-5.6 2-0.3c-0.1 11.5 2.2 21.7 3.5 28.3 1.5 7.3 2.7 11.3 1.7 12.5-3.5 4.7-26.5 9.4-39 2.1z"/>
				<path id="&lt;Path&gt;" class="s40" d="m2110.1 1058c-4 8-13.9 25.9-32.4 26.4 0-8.4-0.7-20.8-0.7-20.8z"/>
				<path id="&lt;Path&gt;" class="s40" d="m2052.3 1025.5c0.8-9.4 4.5-20.5 32.4-23.3 27.9-2.8 25.2 16.2 29.4 43.1 4.3 27-39.1 33.2-39.1 33.2-11.4 0.9-23.4-43.7-22.7-53z"/>
				<path id="&lt;Path&gt;" class="s18" d="m2105.1 1004.1c5.9 18.9 21.7 27.8 21.7 27.8 0 0-7.2 6.1-26.1 4.3-18.9-1.8-35.8-31.5-35.8-31.5 6.5-16.5 40.2-0.6 40.2-0.6z"/>
				<path id="&lt;Path&gt;" class="s41" d="m2068.2 1006.8c0 0-8.2 4.7-10.8 11.7-2.5 6.8-4.2 15.6-1.9 25.6 0 0-12.4-20-4.3-33.8 8.6-14.6 17-3.5 17-3.5z"/>
			</g>
			<path id="&lt;Path&gt;" class="s42" d="m2778 1728.6h-2550.4c-1.6 0-3-1.3-3-3v-1.1c0-1.6 1.4-2.9 3-2.9h2550.4c1.6 0 3 1.3 3 2.9v1.1c0 1.7-1.4 3-3 3z"/>
		</g>
	</g>
</svg>