<?xml version="1.0" standalone="no"?>
<!DOCTYPE svg PUBLIC "-//W3C//DTD SVG 20010904//EN"
 "http://www.w3.org/TR/2001/REC-SVG-20010904/DTD/svg10.dtd">
<svg version="1.0" xmlns="http://www.w3.org/2000/svg"
 width="1920.000000pt" height="1080.000000pt" viewBox="0 0 1920.000000 1080.000000"
 preserveAspectRatio="xMidYMid meet">

<g transform="translate(0.000000,1080.000000) scale(0.100000,-0.100000)"
fill="#000000" stroke="none">
<path d="M4490 8700 c-127 -23 -282 -67 -292 -83 -4 -7 -8 -19 -8 -27 0 -8 -3
-32 -7 -53 l-6 -39 56 7 c31 4 73 4 92 1 l35 -7 0 -732 c0 -674 -1 -735 -17
-757 -26 -37 -43 -48 -100 -61 -56 -13 -63 -23 -63 -91 l0 -38 329 0 c368 0
341 -6 341 74 l0 43 -54 7 c-30 3 -66 10 -80 16 l-26 10 0 875 0 875 -47 -1
c-27 0 -95 -9 -153 -19z"/>
<path d="M10540 8700 c0 -5 5 -10 11 -10 5 0 7 5 4 10 -3 6 -8 10 -11 10 -2 0
-4 -4 -4 -10z"/>
<path d="M16637 8640 c-194 -49 -301 -267 -232 -471 21 -60 99 -147 166 -184
51 -28 61 -30 164 -30 103 0 113 2 158 28 78 46 114 84 152 159 32 65 35 77
35 162 0 79 -3 98 -26 141 -71 132 -159 191 -299 199 -44 3 -97 1 -118 -4z
m241 -76 c269 -156 162 -564 -148 -564 -120 0 -212 58 -272 172 -32 61 -32
194 0 255 35 68 82 114 147 145 55 27 67 29 142 25 67 -4 91 -10 131 -33z"/>
<path d="M10610 8610 c0 -5 5 -10 10 -10 6 0 10 5 10 10 0 6 -4 10 -10 10 -5
0 -10 -4 -10 -10z"/>
<path d="M5305 8598 c-82 -29 -135 -102 -135 -187 0 -87 37 -146 115 -182 82
-38 179 -12 239 64 25 31 31 49 34 101 6 99 -38 169 -127 201 -50 17 -83 18
-126 3z"/>
<path d="M10366 8561 c-4 -7 -5 -15 -2 -18 9 -9 19 4 14 18 -4 11 -6 11 -12 0z"/>
<path d="M10525 8540 c-3 -5 -1 -10 4 -10 6 0 11 5 11 10 0 6 -2 10 -4 10 -3
0 -8 -4 -11 -10z"/>
<path d="M1193 8531 c-282 -45 -548 -240 -665 -487 -59 -127 -81 -233 -81
-399 0 -144 9 -212 45 -325 79 -248 278 -438 535 -512 64 -19 101 -22 208 -21
148 1 242 21 346 74 l63 31 31 -36 30 -36 88 0 87 0 0 299 c0 293 0 299 23
332 17 26 37 39 87 56 71 23 78 33 79 106 l1 47 -344 0 -344 0 -6 -22 c-3 -13
-6 -42 -6 -64 0 -46 11 -53 80 -54 19 0 58 -6 85 -13 l50 -13 3 -227 2 -226
-30 -16 c-54 -28 -180 -55 -254 -55 -260 1 -439 181 -487 491 -18 116 -6 386
21 479 43 149 123 264 235 338 67 45 134 64 242 69 200 11 342 -77 400 -249
26 -75 29 -78 78 -78 33 0 45 4 49 18 10 34 35 198 41 267 3 39 8 87 10 107
l5 36 -63 21 c-125 42 -255 62 -427 66 -91 2 -188 0 -217 -4z"/>
<path d="M10685 8520 c3 -5 8 -10 11 -10 2 0 4 5 4 10 0 6 -5 10 -11 10 -5 0
-7 -4 -4 -10z"/>
<path d="M10851 8504 c0 -11 3 -14 6 -6 3 7 2 16 -1 19 -3 4 -6 -2 -5 -13z"/>
<path d="M11447 8510 c-104 -27 -240 -136 -285 -231 -69 -142 -58 -315 27
-441 113 -168 317 -238 502 -173 200 69 311 241 297 459 -7 101 -46 184 -129
268 -82 83 -160 116 -287 123 -48 2 -104 0 -125 -5z m197 -55 c126 -27 232
-122 277 -251 27 -77 23 -193 -10 -277 -29 -74 -106 -153 -186 -193 -56 -27
-68 -29 -175 -29 -100 0 -121 3 -162 23 -70 35 -134 96 -175 170 -38 67 -38
68 -38 182 0 112 1 117 34 178 34 63 109 140 163 168 39 20 126 43 168 43 19
0 66 -6 104 -14z"/>
<path d="M10270 8480 c0 -5 7 -10 15 -10 8 0 15 5 15 10 0 6 -7 10 -15 10 -8
0 -15 -4 -15 -10z"/>
<path d="M2630 8439 c-77 -45 -252 -219 -316 -315 -64 -96 -107 -197 -136
-314 -27 -111 -30 -351 -5 -452 54 -221 183 -431 347 -566 79 -64 146 -106
159 -98 9 6 71 108 71 118 0 2 -29 24 -65 47 -36 24 -101 81 -145 128 -145
153 -231 370 -231 585 0 149 23 251 83 371 74 148 170 261 291 342 l75 50 -34
68 c-19 37 -35 67 -37 67 -1 0 -27 -14 -57 -31z"/>
<path d="M3560 8408 c-16 -29 -30 -60 -30 -68 0 -8 24 -31 52 -50 173 -117
300 -295 360 -505 19 -67 23 -102 22 -215 -1 -155 -17 -234 -68 -344 -67 -146
-188 -291 -314 -376 -29 -19 -52 -39 -52 -43 0 -11 59 -127 65 -127 14 0 102
62 170 120 233 197 355 464 355 774 0 304 -125 575 -355 770 -70 59 -152 116
-167 116 -4 0 -21 -24 -38 -52z"/>
<path d="M10755 8430 c4 -6 11 -8 16 -5 14 9 11 15 -7 15 -8 0 -12 -5 -9 -10z"/>
<path d="M13100 8413 c-14 -2 -34 -7 -45 -12 -11 -4 -44 -16 -74 -26 -73 -23
-123 -56 -199 -129 -75 -72 -128 -141 -144 -188 -6 -18 -16 -39 -22 -47 -34
-43 -46 -265 -21 -384 40 -190 206 -371 412 -450 58 -22 63 -22 803 -27 l745
-5 3 -44 c2 -23 -1 -71 -6 -105 -10 -64 -61 -185 -87 -206 -8 -7 -15 -21 -15
-33 0 -17 4 -19 43 -13 56 9 161 61 217 107 61 50 117 134 126 187 4 23 11 45
15 48 5 3 9 18 9 33 0 26 4 28 78 45 192 45 345 165 439 346 49 92 67 276 42
416 -32 183 -215 394 -390 450 -30 9 -60 22 -68 28 -10 8 -281 11 -925 12
-501 1 -922 0 -936 -3z m1907 -71 c184 -74 322 -227 368 -407 19 -76 19 -224
0 -300 -34 -133 -128 -265 -244 -345 -76 -51 -120 -69 -221 -89 l-85 -17 -7
-55 c-11 -76 -69 -190 -119 -233 -45 -38 -145 -94 -153 -85 -3 3 6 34 20 70
33 79 47 276 22 296 -11 9 -203 13 -764 15 l-749 3 -65 28 c-188 80 -319 223
-371 405 -26 90 -25 224 1 315 61 214 252 390 463 426 28 5 450 8 937 8 l885
-2 82 -33z"/>
<path d="M13367 7880 c-32 -25 -50 -78 -42 -122 28 -145 235 -120 235 28 0 36
-30 91 -57 103 -39 18 -107 13 -136 -9z"/>
<path d="M15945 8390 c-3 -5 -1 -10 4 -10 6 0 11 5 11 10 0 6 -2 10 -4 10 -3
0 -8 -4 -11 -10z"/>
<path d="M10830 8345 c0 -8 5 -15 10 -15 6 0 10 7 10 15 0 8 -4 15 -10 15 -5
0 -10 -7 -10 -15z"/>
<path d="M10260 8320 c0 -5 5 -10 10 -10 6 0 10 5 10 10 0 6 -4 10 -10 10 -5
0 -10 -4 -10 -10z"/>
<path d="M16130 8299 c0 -5 5 -7 10 -4 6 3 10 8 10 11 0 2 -4 4 -10 4 -5 0
-10 -5 -10 -11z"/>
<path d="M10905 8250 c3 -5 8 -10 11 -10 2 0 4 5 4 10 0 6 -5 10 -11 10 -5 0
-7 -4 -4 -10z"/>
<path d="M3487 8173 c-51 -81 -51 -82 -20 -106 115 -89 177 -175 219 -303 38
-117 41 -262 6 -365 -42 -123 -129 -246 -211 -299 l-49 -32 36 -64 c20 -35 41
-64 48 -64 20 0 144 108 191 164 56 69 107 166 135 256 30 98 33 308 5 410
-30 112 -90 220 -168 305 -62 66 -145 135 -163 135 -3 0 -16 -17 -29 -37z"/>
<path d="M2678 8155 c-79 -62 -150 -154 -202 -260 -51 -104 -63 -151 -72 -266
-11 -151 24 -314 93 -427 66 -107 218 -262 258 -262 8 0 29 28 49 62 l34 61
-37 27 c-60 44 -150 150 -181 215 -43 88 -61 167 -61 276 0 170 62 311 187
430 32 31 65 58 73 60 20 7 -43 129 -67 129 -9 0 -43 -20 -74 -45z"/>
<path d="M10815 8180 c3 -5 8 -10 11 -10 2 0 4 5 4 10 0 6 -5 10 -11 10 -5 0
-7 -4 -4 -10z"/>
<path d="M10730 8110 c0 -5 5 -10 10 -10 6 0 10 5 10 10 0 6 -4 10 -10 10 -5
0 -10 -4 -10 -10z"/>
<path d="M15710 8080 c0 -5 5 -10 10 -10 6 0 10 5 10 10 0 6 -4 10 -10 10 -5
0 -10 -4 -10 -10z"/>
<path d="M10315 8070 c-3 -5 1 -10 9 -10 9 0 16 5 16 10 0 6 -4 10 -9 10 -6 0
-13 -4 -16 -10z"/>
<path d="M6302 8060 c-165 -23 -275 -92 -330 -210 -36 -76 -37 -201 -2 -273
47 -100 103 -144 344 -278 162 -90 215 -165 181 -254 -20 -55 -73 -92 -149
-106 -99 -18 -217 11 -265 66 -27 31 -51 104 -51 154 0 15 -11 20 -46 26 -25
3 -48 4 -51 1 -13 -12 -22 -107 -22 -228 l-1 -126 69 -16 c175 -40 387 -44
516 -11 135 35 252 122 302 222 23 48 27 69 27 138 0 163 -72 249 -310 368
-181 91 -228 124 -256 181 -28 59 -19 107 31 157 61 62 163 75 250 31 55 -27
75 -62 79 -141 l4 -69 45 -7 c25 -4 50 -2 55 3 5 5 10 80 11 167 l2 158 -44
13 c-104 31 -290 47 -389 34z"/>
<path d="M10480 8049 c0 -5 5 -7 10 -4 6 3 10 8 10 11 0 2 -4 4 -10 4 -5 0
-10 -5 -10 -11z"/>
<path d="M5390 8039 c-89 -14 -159 -29 -257 -56 -92 -26 -93 -26 -98 -62 -4
-20 -9 -49 -12 -65 -5 -28 -5 -28 43 -25 27 1 68 2 92 1 l42 -2 0 -395 c0
-437 0 -439 -62 -468 -18 -8 -49 -18 -70 -22 -40 -8 -48 -22 -48 -88 l0 -37
333 2 332 3 3 56 3 56 -55 7 c-30 3 -66 10 -80 16 l-26 10 0 540 0 540 -42 -1
c-24 -1 -68 -5 -98 -10z"/>
<path d="M10800 8020 c0 -5 5 -10 10 -10 6 0 10 5 10 10 0 6 -4 10 -10 10 -5
0 -10 -4 -10 -10z"/>
<path d="M16035 7980 c3 -5 8 -10 11 -10 2 0 4 5 4 10 0 6 -5 10 -11 10 -5 0
-7 -4 -4 -10z"/>
<path d="M10550 7964 c0 -8 5 -12 10 -9 6 4 8 11 5 16 -9 14 -15 11 -15 -7z"/>
<path d="M2774 7912 c-89 -101 -124 -194 -124 -333 0 -142 54 -272 153 -367
l34 -33 41 60 c23 32 42 62 42 66 0 4 -18 27 -39 52 -54 60 -76 128 -75 228 0
90 26 160 82 225 l29 34 -41 63 c-22 34 -43 63 -46 63 -3 0 -28 -26 -56 -58z"/>
<path d="M3396 7905 c-20 -30 -36 -57 -36 -61 0 -3 14 -23 30 -44 55 -70 74
-126 75 -220 0 -102 -12 -141 -71 -220 l-44 -60 34 -54 c19 -30 39 -57 44 -60
14 -8 108 97 136 153 75 146 76 333 4 476 -26 50 -105 145 -122 145 -7 0 -30
-25 -50 -55z"/>
<path d="M15960 7919 c0 -5 5 -7 10 -4 6 3 10 8 10 11 0 2 -4 4 -10 4 -5 0
-10 -5 -10 -11z"/>
<path d="M15890 7860 c0 -5 5 -10 10 -10 6 0 10 5 10 10 0 6 -4 10 -10 10 -5
0 -10 -4 -10 -10z"/>
<path d="M3035 7791 c-84 -39 -135 -120 -135 -216 0 -88 46 -174 114 -210 45
-24 46 -32 46 -357 l0 -268 -80 0 c-44 0 -80 -2 -80 -4 0 -10 -200 -1815 -205
-1853 -4 -24 -11 -43 -17 -43 -5 0 -35 -22 -65 -49 -30 -27 -83 -64 -117 -83
-57 -31 -67 -33 -156 -33 -84 0 -101 3 -147 28 -71 37 -179 141 -242 231 -28
41 -51 78 -51 83 0 5 43 22 96 38 331 99 535 294 471 448 -49 116 -261 186
-479 158 -121 -16 -217 -50 -301 -107 -113 -78 -188 -184 -222 -319 -19 -76
-19 -221 0 -304 37 -154 144 -289 285 -360 119 -60 202 -74 378 -68 227 8 324
48 480 201 54 53 72 66 72 51 0 -11 -11 -109 -24 -217 l-22 -198 504 0 504 0
-5 23 c-3 12 -24 191 -47 397 -102 937 -210 1918 -215 1948 l-6 32 -74 0 -75
0 -2 168 c-2 92 -2 226 0 297 2 118 4 131 23 145 102 75 132 128 132 231 0 62
-4 74 -33 117 -36 54 -80 88 -131 102 -53 15 -130 11 -174 -9z m154 -157 c61
-51 26 -144 -54 -144 -69 0 -108 73 -69 128 32 46 80 53 123 16z m105 -1621
c4 -38 10 -76 12 -85 5 -17 -8 -18 -167 -18 l-172 0 6 75 c3 41 8 79 12 85 4
6 63 10 154 10 l149 0 6 -67z m8 -429 c41 -7 41 -8 53 -116 l6 -58 -226 0
-227 0 7 73 c11 118 -8 107 183 107 92 0 184 -3 204 -6z m-1389 -18 c57 -21
105 -63 148 -128 68 -106 63 -195 -15 -273 -42 -41 -100 -74 -158 -88 -27 -7
-29 -4 -87 115 -84 175 -100 261 -61 326 34 56 99 74 173 48z m1501 -618 c4
-35 10 -75 13 -90 l6 -28 -298 0 c-254 0 -296 2 -292 14 3 8 9 43 12 78 4 35
8 69 10 76 3 9 67 12 273 12 l269 0 7 -62z"/>
<path d="M16350 7653 c-14 -2 -38 -10 -55 -18 -16 -7 -44 -19 -62 -25 -17 -7
-39 -20 -49 -31 -9 -10 -22 -19 -28 -19 -10 -1 -39 -32 -99 -105 -42 -52 -84
-156 -92 -226 -8 -73 7 -189 29 -235 8 -16 19 -41 25 -56 6 -16 15 -28 21 -28
5 0 10 -7 10 -15 0 -15 53 -73 108 -118 l34 -27 -15 -90 c-9 -49 -23 -100 -31
-112 -9 -12 -16 -30 -16 -39 0 -9 -18 -37 -41 -63 -23 -26 -39 -53 -36 -60 14
-35 203 25 317 99 38 26 99 79 136 118 l66 72 592 5 592 5 78 38 c193 96 301
292 280 510 -4 37 -10 67 -13 67 -4 0 -13 21 -20 46 -26 89 -178 254 -249 270
-15 4 -38 14 -52 23 -22 14 -95 16 -715 17 -379 1 -701 0 -715 -3z m1361 -43
c133 -25 260 -127 323 -260 29 -61 31 -72 31 -180 0 -111 -1 -117 -36 -190
-52 -109 -145 -196 -254 -236 -46 -18 -95 -19 -641 -24 l-591 -5 -50 -60 c-60
-72 -81 -91 -150 -138 -55 -37 -189 -94 -199 -84 -3 3 2 16 10 29 28 43 66
171 73 243 l6 71 -57 43 c-31 24 -74 70 -96 103 -57 86 -73 149 -68 273 3 91
7 108 36 167 62 121 182 218 302 244 71 16 1281 19 1361 4z"/>
<path d="M9552 7455 c-34 -8 -75 -23 -91 -34 -16 -12 -33 -21 -39 -21 -16 0
-102 -81 -102 -96 0 -8 -4 -14 -8 -14 -16 0 -70 -94 -86 -150 -52 -176 -18
-341 98 -467 67 -74 137 -118 227 -143 70 -19 102 -20 618 -20 l544 0 69 -74
c37 -41 93 -91 125 -112 125 -83 323 -140 323 -93 0 5 -18 25 -39 45 -27 24
-45 52 -56 87 -9 29 -20 59 -25 69 -5 9 -14 46 -20 81 l-12 66 72 67 c51 49
82 88 107 139 33 64 36 79 41 179 4 103 -9 216 -27 216 -4 0 -12 15 -19 33
-28 76 -172 204 -267 237 -59 21 -1341 25 -1433 5z m1409 -45 c111 -34 209
-122 267 -240 36 -75 43 -224 14 -316 -24 -76 -88 -164 -154 -211 l-50 -36 6
-58 c9 -73 41 -189 67 -240 13 -27 16 -39 7 -39 -7 0 -55 21 -108 46 -83 41
-107 59 -186 140 l-92 94 -544 0 c-583 0 -601 1 -708 52 -65 31 -165 135 -195
201 -71 161 -50 327 56 459 61 77 125 123 204 148 56 18 98 19 706 19 617 1
650 0 710 -19z"/>
<path d="M9785 7055 c-33 -33 -35 -95 -3 -125 48 -44 104 -35 133 21 45 87
-62 173 -130 104z"/>
<path d="M15543 6904 c-12 -3 -34 -19 -48 -35 -23 -28 -25 -39 -25 -120 0 -95
12 -129 53 -150 22 -12 36 1 37 36 1 11 6 32 13 48 l12 27 37 -25 c22 -15 51
-25 71 -25 29 0 37 -5 47 -30 7 -16 23 -36 36 -45 16 -10 24 -25 24 -45 0 -41
16 -46 35 -10 12 23 22 30 38 28 32 -4 33 -41 2 -94 -20 -33 -25 -52 -20 -74
9 -41 29 -38 49 8 9 20 23 49 31 63 20 35 45 136 45 179 0 111 -49 160 -230
230 -19 7 -41 18 -47 23 -14 10 -126 18 -160 11z"/>
<path d="M13965 6830 c-3 -5 -17 -10 -31 -10 -16 0 -43 -17 -73 -45 -26 -25
-53 -45 -60 -45 -6 0 -11 -3 -11 -8 0 -4 -10 -12 -22 -17 -20 -9 -23 -16 -20
-58 2 -38 10 -55 31 -76 16 -15 31 -34 34 -42 9 -23 25 8 32 64 7 45 9 48 31
43 19 -5 24 -2 24 14 0 24 8 25 46 5 37 -19 83 -19 104 0 14 13 21 10 68 -31
36 -32 52 -53 52 -70 0 -14 4 -22 10 -19 6 3 10 17 10 31 0 23 3 25 38 22 36
-3 37 -2 40 31 6 58 -7 96 -46 138 -25 28 -52 45 -82 53 -25 6 -53 16 -62 21
-24 12 -105 11 -113 -1z"/>
<path d="M11590 6797 c-78 -26 -152 -107 -191 -209 -11 -29 -25 -61 -31 -71
-10 -21 -38 -169 -38 -207 0 -21 10 -30 63 -54 80 -38 107 -47 107 -35 0 5 11
14 25 19 14 5 25 14 25 20 0 5 12 10 26 10 l25 0 -4 93 c-3 50 -8 107 -12 126
-6 24 -4 36 6 42 26 16 37 9 59 -36 33 -68 80 -55 80 23 0 16 7 36 17 43 20
17 147 18 186 1 25 -11 27 -15 27 -74 -1 -97 -17 -199 -34 -216 -9 -9 -46 -21
-83 -27 l-68 -11 3 -44 c5 -58 23 -70 97 -67 l59 2 13 45 c7 25 17 52 22 61 5
10 17 66 26 125 23 150 14 256 -26 319 -16 25 -29 50 -29 55 0 6 -4 10 -10 10
-5 0 -30 15 -55 32 -44 31 -51 33 -148 35 -59 1 -117 -3 -137 -10z"/>
<path d="M15590 6590 c0 -5 7 -10 15 -10 8 0 15 5 15 10 0 6 -7 10 -15 10 -8
0 -15 -4 -15 -10z"/>
<path d="M15700 6580 c0 -5 5 -10 10 -10 6 0 10 5 10 10 0 6 -4 10 -10 10 -5
0 -10 -4 -10 -10z"/>
<path d="M14093 6533 c9 -2 23 -2 30 0 6 3 -1 5 -18 5 -16 0 -22 -2 -12 -5z"/>
<path d="M11810 6500 c0 -5 5 -10 10 -10 6 0 10 5 10 10 0 6 -4 10 -10 10 -5
0 -10 -4 -10 -10z"/>
<path d="M11916 6501 c-4 -5 -2 -12 3 -15 5 -4 12 -2 15 3 4 5 2 12 -3 15 -5
4 -12 2 -15 -3z"/>
<path d="M12675 6237 l-79 -73 52 -66 c29 -36 52 -71 52 -77 0 -6 9 -16 20
-23 11 -7 20 -17 20 -23 0 -5 18 -32 40 -60 22 -27 40 -55 40 -62 0 -7 9 -17
20 -23 11 -6 20 -15 20 -20 0 -6 27 -45 60 -88 33 -44 60 -83 60 -89 0 -5 10
-19 23 -31 l22 -21 83 29 c45 17 111 43 145 60 70 33 198 52 212 31 9 -16 3
-22 -37 -31 l-33 -8 30 -1 c17 -1 45 3 63 8 29 9 32 8 32 -14 0 -18 7 -24 38
-30 39 -7 72 -30 72 -50 0 -12 -81 -55 -104 -55 -15 0 -26 -61 -26 -139 0 -26
-4 -51 -9 -56 -4 -6 -16 -118 -25 -250 -10 -132 -22 -249 -26 -260 -5 -11 -10
-63 -12 -115 l-3 -95 53 -3 c42 -2 52 -6 52 -21 0 -9 -4 -21 -9 -27 -4 -5 -16
-60 -26 -121 -11 -62 -22 -113 -26 -113 -3 0 -9 -24 -13 -52 -9 -71 -26 -159
-36 -183 -5 -11 -18 -72 -30 -135 -11 -63 -25 -122 -29 -130 -5 -8 -16 -58
-26 -110 -10 -52 -22 -100 -26 -105 -4 -6 -12 -38 -18 -70 -6 -33 -15 -87 -21
-120 -5 -33 -10 -95 -10 -138 0 -42 -4 -85 -9 -95 -5 -9 -17 -195 -27 -412 -9
-217 -20 -397 -24 -400 -4 -3 -10 -78 -14 -166 l-7 -161 73 2 c40 1 123 3 185
4 l111 1 7 39 c4 22 8 58 9 79 2 22 6 44 8 48 3 5 14 72 24 149 10 77 21 142
24 145 4 3 17 84 30 180 12 96 26 180 30 185 4 6 16 74 26 153 9 78 21 142 26
142 4 0 8 13 8 29 0 40 39 259 50 279 5 9 16 58 25 107 9 50 20 99 25 110 5
11 16 60 25 110 9 49 20 94 24 100 5 5 16 58 26 118 15 85 22 107 35 107 13 0
20 -22 34 -107 9 -60 21 -117 26 -128 5 -11 19 -76 30 -145 12 -69 25 -129 29
-135 5 -5 16 -59 26 -120 9 -60 21 -115 25 -120 5 -6 16 -89 25 -185 9 -96 20
-184 25 -195 5 -11 18 -126 30 -255 12 -129 25 -244 30 -255 5 -11 16 -103 25
-205 9 -102 22 -196 27 -210 l11 -25 183 -1 184 -2 0 103 c0 57 -4 106 -8 109
-5 3 -12 234 -15 513 -7 502 -24 953 -37 963 -4 3 -17 196 -30 430 -15 262
-28 428 -34 432 -6 4 2 8 17 8 32 0 44 22 29 53 -6 12 -20 166 -32 342 -12
176 -24 327 -28 335 -5 13 -30 300 -25 300 13 0 131 -34 138 -40 6 -4 48 -18
95 -31 47 -12 87 -25 90 -29 3 -4 22 -10 43 -14 37 -7 38 -8 32 -39 -4 -18
-12 -37 -17 -44 -5 -7 -12 -54 -15 -105 -6 -91 -5 -95 26 -150 19 -33 45 -64
62 -73 16 -8 44 -23 61 -32 22 -11 54 -16 98 -16 36 1 103 -5 150 -13 145 -23
166 -24 510 -30 184 -4 338 -9 342 -13 9 -7 172 11 203 23 11 4 34 13 50 19
41 14 65 36 65 59 0 10 5 18 10 18 12 0 14 87 2 94 -5 3 -12 63 -15 133 -6
141 -27 325 -37 333 -3 3 -14 50 -23 104 -10 55 -25 115 -33 135 -49 112 -92
185 -119 204 -16 12 -33 25 -36 29 -15 22 -634 30 -649 8 -7 -11 -169 -15
-201 -6 -23 7 -36 -2 -118 -82 -50 -48 -91 -94 -91 -100 0 -6 -6 -15 -12 -19
-7 -4 -21 -24 -30 -43 -10 -19 -26 -49 -36 -66 l-18 -31 -56 18 c-31 10 -67
24 -80 32 -13 7 -43 20 -68 28 -25 7 -47 16 -50 20 -3 3 -32 16 -65 28 -33 12
-80 31 -105 42 -25 11 -58 26 -75 33 -16 7 -47 21 -68 30 -21 9 -44 16 -53 16
-8 0 -17 6 -20 14 -14 36 -211 50 -308 21 -73 -21 -131 -15 -205 23 -48 23
-66 27 -145 27 -61 0 -91 -4 -94 -13 -2 -6 -11 -12 -19 -12 -12 0 -293 -133
-445 -211 -20 -10 -39 -19 -42 -19 -6 0 -216 237 -216 244 0 3 -18 24 -40 46
-22 22 -40 44 -40 48 0 5 -17 25 -38 45 l-38 37 -79 -73z m2585 -532 c16 -8
30 -19 30 -24 0 -5 -11 -29 -25 -52 -14 -24 -25 -50 -25 -56 0 -16 31 -45 255
-241 266 -233 252 -219 238 -233 -12 -12 -39 8 -263 205 -185 163 -279 257
-273 272 4 10 -4 14 -30 14 -20 0 -38 -4 -41 -9 -9 -14 -143 -54 -160 -48 -22
9 -21 16 16 73 17 27 32 55 32 63 1 8 21 25 46 38 38 20 55 23 107 19 34 -3
76 -12 93 -21z m233 -89 c67 -30 191 -84 276 -122 l154 -67 46 18 c25 10 66
20 91 23 79 8 141 -45 155 -134 6 -35 4 -41 -18 -53 -22 -12 -30 -10 -74 12
-46 25 -306 141 -523 234 -58 25 -127 55 -155 68 -27 12 -60 25 -72 29 -23 7
-33 46 -13 46 6 0 66 -24 133 -54z"/>
<path d="M14045 6279 c-22 -5 -58 -6 -80 -3 l-40 5 40 -26 c35 -22 123 -55
147 -55 11 0 -2 63 -16 76 -7 7 -25 8 -51 3z"/>
<path d="M283 5931 c-91 -33 -157 -94 -195 -176 -18 -40 -23 -68 -23 -135 0
-74 3 -91 27 -130 14 -25 45 -63 67 -85 38 -36 43 -38 57 -23 14 14 14 18 0
46 -24 47 -20 80 14 114 27 27 36 30 73 26 23 -3 72 -19 110 -36 l67 -31 0
-495 0 -496 235 0 235 0 0 318 c0 174 -3 334 -7 355 -10 62 -47 90 -163 122
-110 30 -169 65 -195 116 -9 17 -14 33 -12 36 3 2 36 -5 74 -17 86 -27 247
-37 326 -21 85 18 191 75 252 137 84 84 145 231 145 351 0 28 -4 33 -24 33
-20 0 -25 -7 -31 -37 -21 -112 -122 -184 -235 -169 -26 4 -108 37 -195 81
-222 111 -274 127 -425 132 -106 3 -133 0 -177 -16z"/>
<path d="M12020 5725 c0 -2 14 -55 31 -117 17 -62 42 -151 54 -198 36 -132 50
-171 61 -170 13 1 9 23 -57 254 -32 115 -59 215 -59 223 0 7 -7 13 -15 13 -8
0 -15 -2 -15 -5z"/>
<path d="M4199 5660 c-313 -40 -519 -263 -522 -565 -1 -118 13 -185 59 -280
63 -132 175 -228 329 -281 69 -24 100 -28 222 -32 109 -3 160 0 218 13 110 24
220 83 306 163 l72 67 71 -71 c123 -123 259 -174 466 -174 195 0 316 41 431
147 59 55 159 177 159 194 0 5 -9 13 -20 19 -17 9 -25 5 -52 -27 -99 -114
-169 -155 -271 -161 -60 -4 -75 -1 -131 27 -113 55 -223 185 -355 416 -72 127
-114 236 -119 316 -4 59 -2 68 23 97 32 39 84 51 119 29 13 -9 55 -77 97 -159
111 -216 168 -263 319 -263 77 0 90 3 140 31 113 64 169 181 178 372 l5 112
-25 0 c-22 0 -26 -6 -32 -40 -9 -59 -25 -87 -57 -101 -43 -17 -84 -5 -169 51
-41 27 -102 62 -135 77 -53 25 -70 28 -155 27 -252 -4 -471 -160 -552 -393
-19 -55 -23 -86 -23 -191 0 -110 4 -134 28 -204 15 -43 26 -80 25 -81 -2 -1
-27 -20 -55 -43 -120 -93 -258 -108 -383 -41 -78 41 -171 133 -240 236 -45 67
-50 78 -34 82 47 8 234 76 288 103 202 101 310 238 276 351 -39 133 -253 209
-501 177z m-29 -105 c16 -8 49 -36 74 -61 140 -147 117 -303 -59 -391 -87 -44
-89 -43 -139 49 -91 168 -120 315 -74 373 43 55 126 67 198 30z"/>
<path d="M6544 5660 c-322 -45 -523 -267 -524 -581 0 -90 28 -209 67 -282 42
-80 155 -187 240 -230 111 -54 199 -71 357 -64 199 7 313 53 434 173 43 43 73
85 97 136 167 352 -7 737 -376 832 -74 19 -218 27 -295 16z m-40 -119 c130
-81 411 -496 481 -710 21 -63 23 -147 6 -180 -17 -30 -69 -61 -105 -61 -105 0
-274 181 -452 487 -82 140 -129 252 -140 330 -19 143 86 210 210 134z"/>
<path d="M7985 5664 c-55 -13 -118 -42 -190 -87 -104 -64 -164 -87 -226 -87
-93 0 -149 49 -149 129 0 28 -3 31 -30 31 l-30 0 0 -570 0 -570 235 0 235 0 0
469 c0 323 4 479 11 502 16 47 46 78 85 85 51 9 74 -3 97 -54 19 -40 22 -64
21 -167 -1 -66 -9 -169 -17 -230 -34 -232 -30 -334 13 -433 50 -112 151 -182
265 -182 100 0 229 50 319 123 25 20 27 26 17 45 -10 18 -15 20 -32 12 -11 -6
-36 -10 -56 -8 -30 2 -41 10 -58 38 -17 29 -20 52 -19 140 0 58 8 163 18 233
15 106 16 141 7 203 -16 108 -14 152 10 201 14 30 33 50 60 63 143 73 186 -61
139 -431 -39 -304 -20 -439 76 -531 60 -58 125 -82 214 -82 41 1 99 8 128 17
86 26 192 88 259 151 60 55 63 60 47 77 -15 17 -18 16 -56 -12 -60 -43 -109
-40 -158 9 -63 63 -71 118 -44 317 35 262 -17 428 -166 524 -78 51 -164 74
-275 75 -81 0 -97 -3 -155 -30 -36 -17 -92 -47 -124 -67 l-60 -36 -33 29 c-42
37 -92 63 -161 84 -56 16 -183 28 -217 20z"/>
<path d="M13000 5528 c55 -76 88 -113 96 -106 9 10 -96 148 -114 148 -8 0 -2
-15 18 -42z"/>
<path d="M10855 5170 c-105 -23 -154 -92 -155 -217 0 -35 -4 -63 -9 -63 -17 0
-99 38 -106 49 -12 20 -24 2 -31 -47 -3 -26 -12 -53 -18 -61 -15 -19 -15 -349
0 -382 7 -13 19 -60 29 -104 10 -44 21 -84 25 -90 4 -5 14 -32 23 -59 17 -50
15 -179 -3 -221 -5 -11 -10 -28 -12 -38 -2 -11 -25 24 -56 87 -58 115 -166
289 -253 406 -83 112 -240 290 -256 290 -33 0 -23 -32 28 -88 133 -143 302
-375 402 -549 113 -199 119 -214 124 -293 l4 -75 -20 25 c-11 14 -27 39 -36
56 -8 18 -22 34 -30 38 -8 3 -15 11 -15 18 0 16 -109 130 -167 176 -53 42
-169 98 -237 116 -28 8 -64 20 -81 27 -19 7 -101 14 -216 17 -172 4 -186 3
-193 -14 -11 -28 11 -34 126 -34 288 0 486 -70 664 -233 56 -51 133 -157 154
-212 10 -25 7 -37 -19 -89 -33 -66 -61 -181 -61 -251 0 -24 -4 -47 -10 -50 -5
-3 -10 -22 -10 -41 0 -29 -3 -34 -23 -34 -20 0 -25 9 -41 70 -10 39 -22 73
-26 75 -14 9 -21 77 -24 225 -1 83 -6 154 -12 162 -6 7 -16 38 -23 69 -11 52
-15 57 -43 63 -17 3 -43 6 -59 6 -15 0 -31 4 -34 10 -3 5 -27 9 -53 9 -26 0
-71 4 -99 9 -62 11 -62 12 -34 -94 43 -166 125 -280 275 -385 45 -31 53 -43
69 -95 10 -32 25 -72 32 -89 l14 -30 -58 -3 c-72 -4 -96 -24 -86 -71 4 -17 10
-31 15 -31 4 0 10 -8 13 -17 3 -10 12 -34 20 -54 l16 -36 -83 -41 c-46 -23
-89 -48 -96 -57 -7 -8 -19 -15 -26 -15 -8 0 -19 -9 -26 -20 -7 -11 -18 -20
-23 -20 -15 0 -105 -93 -105 -108 0 -7 -4 -12 -10 -12 -11 0 -100 -133 -100
-149 0 -6 -4 -11 -8 -11 -5 0 -17 -25 -27 -55 -11 -30 -22 -55 -26 -55 -16 0
-39 -182 -39 -302 0 -120 19 -267 38 -292 5 -6 17 -35 27 -64 11 -28 23 -52
27 -52 4 0 8 -5 8 -11 0 -6 12 -30 28 -53 15 -22 34 -54 42 -70 28 -55 153
-176 228 -222 2 -1 -7 -21 -20 -43 l-23 -41 -307 -1 c-170 -1 -312 -3 -318 -4
-5 -1 -118 -3 -250 -4 -233 -1 -240 -2 -240 -21 0 -20 7 -20 4696 -20 4466 0
4695 1 4692 18 -3 15 -27 18 -283 23 -154 4 -407 7 -563 8 l-282 1 -12 25 c-9
20 -9 28 2 38 10 9 13 9 17 0 5 -15 33 -18 33 -4 0 5 -5 11 -11 13 -6 2 16 24
49 48 34 25 80 71 103 103 31 42 48 57 61 54 20 -6 24 13 6 31 -9 9 -8 16 4
29 9 10 19 29 23 43 4 14 13 34 20 45 15 25 32 105 40 195 8 83 -10 231 -35
286 -11 24 -20 47 -20 52 0 6 -16 33 -35 61 -19 28 -35 54 -35 59 0 18 -141
160 -174 176 -19 9 -36 20 -38 24 -3 6 -29 19 -145 69 -38 16 -38 18 -18 68 9
20 13 44 10 53 -6 21 -50 42 -85 42 -24 0 -26 4 -37 73 -11 70 -11 73 14 112
59 91 207 226 315 288 l47 27 86 -35 c48 -19 121 -53 163 -74 55 -29 79 -37
88 -30 7 6 11 16 8 24 -5 13 -204 115 -227 115 -6 1 -23 7 -36 14 -23 13 -23
14 -5 24 48 25 243 85 279 86 25 0 68 -13 113 -33 40 -18 80 -31 89 -29 37 7
21 29 -44 59 l-68 32 70 14 c40 8 150 15 254 17 139 2 186 6 189 16 3 7 -2 16
-9 21 -23 15 -314 10 -426 -7 -58 -8 -108 -13 -110 -10 -3 3 13 27 36 54 46
55 51 72 21 72 -19 0 -80 -68 -117 -131 -10 -16 -24 -29 -33 -29 -8 0 -73 -20
-145 -44 -71 -24 -131 -43 -133 -41 -6 5 33 83 69 138 43 65 48 87 20 87 -23
0 -66 -64 -120 -181 -35 -76 -45 -90 -86 -113 -69 -41 -285 -232 -285 -253 -1
-17 -59 -78 -60 -62 0 8 -14 37 -31 64 l-31 49 11 76 c7 41 16 84 21 95 5 11
16 56 25 99 10 44 21 87 26 95 4 9 16 43 25 76 9 33 24 79 35 102 10 23 19 44
19 47 0 10 71 150 114 226 39 69 46 76 87 87 24 6 92 12 151 12 121 1 138 5
138 33 0 20 -5 20 -140 16 -77 -2 -140 0 -140 3 0 9 136 186 149 193 5 3 57 9
115 13 109 6 152 21 129 43 -7 8 -40 11 -96 9 -58 -3 -83 -1 -80 7 2 6 36 40
76 76 40 36 94 85 121 109 42 39 47 46 33 57 -13 11 -26 4 -84 -44 -37 -31
-96 -84 -130 -118 l-63 -60 0 41 c0 55 -8 73 -32 73 -17 0 -19 -7 -17 -84 l2
-84 -49 -60 c-27 -33 -62 -76 -78 -97 -15 -20 -32 -33 -36 -28 -4 4 -12 44
-19 88 -13 88 -25 110 -45 83 -11 -14 -9 -38 7 -133 l19 -116 -34 -57 c-48
-81 -133 -258 -153 -317 -9 -27 -20 -54 -25 -60 -4 -5 -18 -46 -29 -90 -12
-44 -26 -89 -31 -100 -5 -11 -17 -60 -25 -110 -26 -149 -19 -147 -144 -25 -99
96 -110 111 -130 170 -32 97 -97 210 -121 210 -31 0 -25 -29 26 -124 25 -47
44 -90 42 -96 -2 -5 -28 4 -58 19 -30 15 -94 43 -142 61 l-88 33 0 76 c-1 42
-5 96 -10 121 -5 25 -17 187 -27 360 -9 173 -21 318 -26 321 -5 4 -8 53 -6
110 3 110 -8 257 -21 274 -4 6 -11 31 -14 58 l-7 47 -207 0 c-267 1 -381 7
-573 31 -86 10 -161 19 -166 19 -6 0 -13 -53 -17 -132 -4 -73 -9 -151 -12
-173 -5 -37 -2 -41 25 -57 28 -15 31 -22 31 -66 0 -26 -4 -52 -9 -58 -5 -5
-17 -90 -27 -189 -10 -99 -21 -182 -24 -185 -4 -3 -17 -115 -30 -250 -13 -135
-27 -247 -30 -250 -4 -3 -15 -102 -24 -220 -10 -118 -21 -224 -26 -235 -5 -11
-18 -137 -30 -280 -11 -143 -25 -269 -30 -280 -4 -11 -16 -108 -25 -215 -9
-107 -20 -204 -25 -215 -4 -11 -16 -119 -25 -240 -9 -121 -20 -229 -25 -240
-5 -11 -11 -59 -15 -108 l-6 -87 230 0 230 0 5 43 c3 23 13 116 22 207 9 91
20 170 24 175 4 6 15 87 25 180 9 94 21 179 25 190 5 11 18 110 30 220 12 110
25 209 30 220 5 11 16 94 25 185 9 91 20 174 25 185 5 11 18 110 30 220 12
110 26 204 31 209 5 6 9 20 9 33 0 21 5 23 44 23 l44 0 15 -72 c9 -40 19 -113
22 -163 3 -49 10 -99 15 -110 5 -11 18 -126 30 -255 12 -129 25 -244 30 -255
4 -11 16 -110 26 -220 9 -110 20 -204 24 -210 4 -5 18 -122 30 -260 12 -137
24 -257 27 -265 3 -8 5 -29 4 -45 -1 -17 3 -53 9 -80 10 -44 9 -51 -7 -63 -17
-12 -17 -14 -1 -26 9 -7 20 -24 23 -39 l7 -27 200 0 200 0 66 -61 c37 -34 81
-68 97 -76 41 -21 40 -19 21 -48 -28 -43 -48 -39 -280 62 l-60 26 -65 -34
c-54 -28 -66 -39 -64 -57 l3 -22 -395 0 -395 0 0 23 c0 19 -13 29 -67 56 l-68
32 -48 -20 c-27 -12 -57 -21 -67 -21 -10 0 -20 -4 -22 -8 -2 -5 -29 -21 -62
-35 -50 -23 -72 -27 -150 -27 l-91 1 -25 34 c-41 56 -89 85 -144 85 -42 0 -49
-3 -64 -30 -20 -36 -26 -37 -46 -8 -15 22 -16 20 -16 -30 l0 -52 -425 0 -425
0 0 40 c0 45 1 44 -36 30 -25 -10 -31 -7 -65 26 -40 39 -44 40 -129 2 -24 -11
-61 -23 -82 -26 -20 -2 -36 -8 -35 -12 1 -4 -12 -19 -29 -33 l-32 -27 -238 0
c-233 0 -240 1 -292 25 -34 16 -51 29 -46 36 5 8 -1 10 -22 6 -18 -3 -51 4
-92 21 l-64 26 -64 -34 c-56 -30 -64 -38 -59 -57 l5 -23 -299 0 -300 0 -3 25
c-2 21 -16 32 -71 57 l-68 31 -57 -23 c-31 -13 -89 -38 -128 -57 -53 -25 -84
-33 -126 -33 l-55 0 -16 42 c-9 23 -16 42 -14 43 1 0 29 23 61 50 101 84 170
164 230 268 l28 47 174 0 174 0 0 29 c0 17 -4 33 -10 36 -6 4 -10 177 -10 486
0 313 3 479 10 479 7 0 10 172 11 493 l1 492 17 -105 c9 -58 20 -112 23 -120
3 -8 14 -78 23 -155 10 -77 21 -144 25 -150 4 -5 17 -91 30 -190 12 -99 26
-184 30 -190 4 -5 16 -75 25 -155 10 -80 21 -147 25 -150 5 -5 30 -174 46
-323 4 -31 10 -57 13 -57 4 0 15 -65 26 -145 10 -80 22 -148 27 -151 4 -3 8
-32 8 -65 l0 -59 201 0 202 0 -7 43 c-3 23 -9 74 -12 112 -4 39 -10 75 -14 80
-4 6 -15 98 -25 205 -9 107 -21 204 -25 215 -5 11 -19 128 -30 260 -12 132
-25 249 -30 260 -5 11 -16 106 -25 210 -9 105 -20 199 -25 210 -4 11 -16 108
-25 215 -9 107 -21 204 -25 215 -5 11 -18 130 -30 265 -12 135 -26 254 -30
265 -12 27 -40 334 -33 366 l5 25 -349 12 c-191 7 -391 12 -445 12 -93 0 -96
-1 -91 -21 3 -12 1 -24 -5 -28 -11 -7 -52 -190 -52 -233 0 -13 -4 -28 -9 -34
-7 -8 -31 -244 -31 -312 0 -18 -12 -28 -62 -49 -132 -56 -316 -156 -384 -208
-39 -30 -76 -55 -83 -55 -14 0 -14 39 0 193 6 67 16 129 22 138 7 9 31 42 55
72 23 31 42 59 42 63 0 3 11 28 25 55 13 28 32 87 40 132 9 45 20 91 25 102 9
20 16 167 12 258 l-2 47 -59 0 c-75 0 -86 13 -85 94 1 106 45 160 142 178 34
6 62 16 62 22 0 13 -33 15 -75 6z m5259 -592 c3 -35 8 -103 11 -153 3 -49 17
-259 30 -465 53 -801 66 -991 76 -1150 5 -91 14 -228 20 -305 11 -158 23 -340
38 -590 6 -93 14 -209 17 -257 l7 -88 -185 0 -185 0 -7 42 c-4 24 -18 138 -31
253 -13 116 -36 307 -50 425 -14 118 -34 296 -45 395 -11 99 -27 232 -35 295
-9 63 -24 194 -35 290 -33 306 -70 623 -80 685 -4 33 -12 93 -15 133 -6 65
-17 93 -32 79 -3 -3 -23 -138 -44 -299 -22 -161 -53 -392 -69 -513 -17 -121
-42 -303 -56 -405 -13 -102 -36 -266 -49 -365 -14 -99 -38 -279 -55 -400 -16
-121 -41 -309 -56 -417 l-27 -198 -194 0 -193 0 0 35 c0 20 4 77 10 128 43
411 63 597 80 752 41 365 61 545 80 735 11 107 27 249 35 315 8 66 30 255 50
420 20 165 45 365 56 445 10 80 22 164 25 188 3 23 7 42 10 42 2 0 53 -12 112
-27 99 -25 121 -27 297 -26 172 2 202 5 315 31 178 42 167 44 174 -30z m-4946
-628 c-2 -44 0 -80 5 -80 4 0 7 -73 7 -161 0 -180 18 -546 28 -569 9 -23 28
-300 20 -300 -5 0 -36 23 -70 51 -35 28 -82 60 -106 71 -23 11 -45 24 -48 29
-2 5 -22 13 -43 19 l-39 10 34 69 c58 119 47 141 -69 141 -77 0 -79 1 -74 23
3 12 9 66 12 120 4 53 11 100 16 103 5 3 9 25 9 48 0 39 6 49 60 107 33 35 67
78 76 97 9 18 27 50 40 69 13 20 24 39 24 43 0 4 -33 8 -72 8 -40 1 -92 2
-115 3 -24 0 -43 4 -43 9 0 11 316 170 337 170 12 0 14 -15 11 -80z m4477
-147 l8 -113 -37 0 -37 0 5 64 c11 136 19 197 27 202 5 3 10 17 10 32 2 43 16
-62 24 -185z m-4851 -50 c4 -48 11 -90 15 -93 11 -8 -20 -343 -33 -362 -11
-15 -15 2 -25 95 -7 61 -17 117 -21 122 -4 6 -11 26 -15 45 -17 86 -38 166
-47 175 -10 10 87 104 108 105 7 0 14 -34 18 -87z m-124 -164 c5 -9 16 -67 25
-130 9 -63 21 -122 26 -131 15 -29 11 -98 -5 -98 -14 0 -18 16 -32 160 -3 36
-10 70 -14 75 -4 6 -13 37 -20 70 -7 33 -19 75 -28 94 -12 26 -13 36 -4 39 7
2 12 13 13 25 0 12 7 -3 16 -33 8 -30 18 -62 23 -71z m-98 -64 c-2 -41 -8 -75
-13 -75 -5 0 -9 -26 -9 -57 0 -32 -3 -82 -6 -110 -6 -48 -9 -53 -32 -53 l-25
0 7 107 c3 59 10 109 14 112 5 3 16 35 26 71 10 36 20 68 23 73 13 21 18 -1
15 -68z m5821 -55 c37 -18 67 -35 67 -39 0 -3 -36 -17 -81 -30 -44 -14 -96
-33 -115 -43 l-34 -18 0 23 c0 13 -3 58 -6 100 l-7 77 54 -19 c30 -10 84 -33
122 -51z m-5764 -11 c6 -29 14 -92 18 -140 l6 -89 -37 0 c-32 0 -36 2 -32 23
3 12 8 75 12 140 3 64 10 117 14 117 5 0 13 -23 19 -51z m5931 -90 c0 -5 7 -9
16 -9 9 0 59 -44 112 -97 l95 -97 -7 -74 c-3 -41 -6 -115 -6 -164 l0 -88 -38
0 c-38 0 -102 -24 -102 -38 0 -4 10 -25 22 -48 24 -45 19 -74 -12 -74 -11 0
-20 -4 -20 -10 0 -5 -6 -10 -14 -10 -52 0 -180 -84 -264 -174 -29 -31 -55 -56
-56 -56 -2 0 -7 82 -11 183 -4 100 -11 184 -15 187 -5 3 -11 104 -15 225 -3
121 -8 228 -11 238 -4 14 8 24 62 48 73 33 231 78 252 71 6 -2 12 -8 12 -13z
m-5615 -189 c3 -5 -13 -46 -35 -91 -23 -45 -38 -85 -33 -89 4 -3 37 -19 73
-34 78 -33 179 -99 242 -158 38 -37 47 -52 52 -89 47 -393 81 -653 102 -781
l25 -158 -44 -67 c-70 -108 -184 -221 -274 -271 -11 -7 -10 -15 6 -53 11 -24
21 -50 21 -56 0 -10 -103 -13 -480 -13 -305 0 -480 4 -480 10 0 5 9 24 20 42
11 18 20 40 20 49 0 9 -24 32 -53 52 -165 114 -297 313 -343 519 -25 108 -23
281 4 390 22 88 67 190 127 284 36 56 140 166 195 205 51 37 159 95 203 109
20 6 37 18 37 26 0 8 -18 50 -40 93 -21 43 -36 81 -33 85 11 10 681 7 688 -4z
m5925 -195 c0 -11 -6 -30 -14 -41 -8 -11 -20 -40 -28 -64 l-13 -45 -3 70 c-2
39 0 94 3 124 l7 53 24 -38 c13 -22 24 -48 24 -59z m17 -144 c-15 -6 -18 6
-10 35 l7 29 6 -30 c3 -16 2 -32 -3 -34z m123 -56 c0 -3 -11 -33 -25 -66 -17
-42 -20 -61 -12 -64 7 -2 34 -8 61 -15 155 -36 319 -172 405 -336 135 -261 68
-596 -161 -798 -29 -26 -74 -59 -100 -74 -52 -29 -54 -35 -33 -72 8 -14 14
-28 15 -32 0 -5 -139 -8 -310 -8 -210 0 -310 3 -310 10 0 6 7 24 15 40 l15 29
-68 44 c-38 24 -89 65 -114 91 l-46 46 -6 98 c-4 53 -11 158 -17 232 -5 74
-14 206 -20 293 l-10 157 35 48 c87 118 221 207 352 235 30 6 54 16 54 22 0 5
-11 34 -25 63 -14 30 -25 56 -25 58 0 2 74 4 165 4 91 0 165 -2 165 -5z"/>
<path d="M11145 4639 c-4 -6 -21 -19 -37 -29 -17 -10 -35 -27 -42 -38 -6 -10
-32 -46 -59 -79 -45 -56 -76 -106 -112 -183 -10 -19 -20 -37 -24 -40 -9 -6
-51 -140 -51 -161 0 -8 -4 -19 -9 -25 -5 -5 -13 -43 -16 -84 l-7 -75 48 46
c27 25 66 56 87 68 20 13 37 26 37 30 0 4 44 30 99 57 l99 49 6 59 c3 32 6
137 6 232 0 158 -7 204 -25 173z"/>
<path d="M9930 4336 l0 -45 56 -21 c31 -11 60 -19 63 -18 3 2 -22 31 -56 66
l-63 62 0 -44z"/>
<path d="M902 2340 c-299 -44 -514 -274 -530 -566 -13 -244 110 -461 323 -571
154 -80 -186 -73 3763 -73 3494 0 3530 0 3607 20 199 51 362 205 431 410 14
42 19 84 19 175 0 147 -24 232 -97 342 -62 92 -132 154 -233 204 -151 75 169
69 -3725 68 -1928 -1 -3529 -5 -3558 -9z m1116 -606 l3 -141 -60 -6 c-33 -4
-67 -4 -76 -1 -25 10 -45 59 -45 109 0 39 5 52 30 77 26 26 36 30 65 25 35 -6
35 -5 35 32 0 42 7 53 30 49 12 -3 15 -26 18 -144z m-926 -9 c46 -134 46 -135
23 -135 -17 0 -26 8 -34 30 -9 28 -13 30 -61 30 -48 0 -52 -2 -61 -30 -8 -21
-17 -30 -33 -30 -22 0 -21 3 23 135 43 125 48 135 71 135 23 0 29 -10 72 -135z
m299 64 l35 -70 34 71 c30 63 37 71 60 68 l25 -3 3 -132 3 -133 -26 0 c-25 0
-25 0 -25 93 l-1 92 -30 -57 c-16 -32 -36 -58 -44 -58 -8 0 -30 30 -49 68
l-35 67 -1 -102 c0 -96 -1 -103 -20 -103 -19 0 -20 7 -20 135 l0 135 28 0 c24
0 32 -8 63 -71z m1607 55 c12 -8 22 -21 22 -29 0 -23 -20 -28 -39 -11 -27 24
-87 21 -105 -6 -24 -34 -21 -133 4 -158 25 -25 74 -26 99 -1 13 13 23 16 34 9
37 -20 -23 -68 -85 -68 -18 0 -47 9 -65 20 -69 42 -70 196 -2 244 30 20 108
21 137 0z m1502 -4 c0 -13 -7 -20 -19 -20 -22 0 -35 15 -26 30 12 19 45 11 45
-10z m690 0 c0 -13 -7 -20 -19 -20 -22 0 -35 15 -26 30 12 19 45 11 45 -10z
m1028 4 c12 -8 22 -21 22 -29 0 -23 -20 -28 -39 -11 -27 24 -87 21 -105 -6
-24 -34 -21 -133 4 -158 25 -25 74 -26 99 -1 13 13 23 16 34 9 37 -20 -23 -68
-85 -68 -18 0 -47 9 -65 20 -69 42 -70 196 -2 244 30 20 108 21 137 0z m-1178
-24 c0 -25 4 -30 25 -30 16 0 25 -6 25 -15 0 -9 -9 -15 -25 -15 -26 0 -26 -1
-23 -67 3 -66 4 -68 31 -71 19 -2 27 -9 27 -23 0 -15 -7 -19 -34 -19 -50 0
-66 28 -66 112 0 54 -3 68 -15 68 -8 0 -15 7 -15 15 0 8 7 15 15 15 10 0 15
10 15 30 0 23 4 30 20 30 16 0 20 -7 20 -30z m-3283 -44 c25 -22 28 -31 28
-86 0 -56 -3 -64 -29 -87 -25 -21 -37 -24 -70 -20 -57 8 -76 35 -76 106 0 31
6 63 13 72 34 44 93 51 134 15z m457 2 c16 -15 26 -36 28 -58 l3 -35 -62 -3
c-52 -2 -63 -6 -63 -20 0 -36 51 -57 76 -32 11 11 44 3 44 -11 0 -15 -45 -39
-75 -39 -67 0 -107 68 -86 148 19 70 85 94 135 50z m204 0 c2 -10 -7 -18 -25
-23 -47 -11 -53 -23 -53 -96 0 -62 -2 -69 -20 -69 -19 0 -20 7 -20 100 0 93 1
100 20 100 11 0 20 -4 20 -9 0 -6 12 -3 28 5 31 16 46 14 50 -8z m196 6 c12
-12 16 -37 16 -105 0 -82 -1 -89 -20 -89 -18 0 -20 7 -20 85 0 75 -2 85 -18
85 -10 0 -28 -7 -40 -16 -19 -13 -22 -24 -22 -85 0 -62 -2 -69 -20 -69 -19 0
-20 7 -20 100 0 93 1 100 20 100 11 0 20 -5 20 -11 0 -5 10 -3 22 5 29 20 62
20 82 0z m618 -14 c13 -16 18 -40 18 -80 0 -72 -19 -99 -76 -107 -33 -4 -45
-1 -70 20 -26 23 -29 31 -29 87 0 56 3 64 29 87 25 21 37 24 70 20 25 -4 48
-14 58 -27z m219 14 c16 -15 20 -15 41 0 28 20 52 20 72 0 12 -12 16 -37 16
-105 0 -82 -1 -89 -20 -89 -18 0 -20 7 -20 85 0 73 -2 85 -17 85 -37 0 -53
-30 -53 -102 0 -61 -2 -68 -20 -68 -18 0 -20 7 -20 80 0 90 -11 105 -55 76
-23 -15 -25 -23 -25 -86 0 -63 -2 -70 -20 -70 -19 0 -20 7 -20 100 0 93 1 100
20 100 11 0 20 -5 20 -11 0 -5 10 -3 22 5 29 20 57 20 79 0z m335 1 c19 -12
24 -12 40 0 25 19 53 19 76 -2 15 -13 18 -32 18 -105 0 -81 -2 -88 -20 -88
-18 0 -20 7 -20 80 0 87 -9 102 -49 80 -18 -9 -21 -20 -21 -85 0 -68 -2 -75
-20 -75 -18 0 -20 7 -20 73 0 92 -9 108 -47 87 -26 -15 -28 -21 -31 -88 -3
-64 -5 -72 -22 -72 -19 0 -20 7 -20 100 0 93 1 100 20 100 11 0 20 -5 20 -11
0 -5 10 -3 22 5 28 20 48 20 74 1z m588 -7 c11 -16 16 -46 16 -105 0 -76 -2
-83 -20 -83 -17 0 -19 8 -22 82 -3 92 -15 105 -63 74 -23 -15 -25 -23 -25 -86
0 -63 -2 -70 -20 -70 -19 0 -20 7 -20 100 0 93 1 100 20 100 11 0 20 -5 20
-10 0 -6 12 -4 28 4 39 22 68 19 86 -6z m324 6 c12 -8 22 -19 22 -23 0 -14
-33 -22 -44 -11 -14 14 -49 13 -64 -2 -16 -16 -16 -100 0 -116 14 -14 60 -16
74 -2 6 6 15 6 24 -1 13 -8 11 -13 -10 -30 -32 -27 -96 -21 -122 11 -24 30
-24 127 0 156 29 37 82 45 120 18z m207 -9 c22 -22 25 -32 25 -105 0 -73 -2
-80 -20 -80 -11 0 -20 4 -20 10 0 5 -13 2 -28 -7 -56 -32 -113 10 -98 72 7 29
56 55 102 55 20 0 25 4 20 16 -3 9 -6 18 -6 20 0 9 -69 4 -75 -6 -8 -12 -35
-1 -35 15 0 17 38 34 78 34 22 1 41 -7 57 -24z m490 1 c45 -45 41 -147 -8
-181 -28 -19 -77 -19 -104 0 -51 36 -51 154 0 190 33 23 84 19 112 -9z m237 7
c15 -13 18 -32 18 -105 0 -81 -2 -88 -20 -88 -18 0 -20 7 -20 79 0 46 -5 83
-11 86 -5 4 -23 1 -40 -5 -28 -12 -29 -14 -29 -86 0 -67 -2 -74 -20 -74 -19 0
-20 7 -20 101 l0 102 28 -6 c15 -3 34 -2 42 4 23 14 51 11 72 -8z m209 -3 c20
-16 22 -21 9 -29 -9 -6 -19 -6 -27 0 -17 15 -68 7 -68 -11 0 -8 19 -21 42 -30
54 -20 66 -32 66 -66 0 -57 -85 -85 -134 -44 -20 17 -22 21 -9 29 9 7 18 7 24
1 16 -16 73 -12 80 6 4 11 -4 19 -29 30 -19 7 -39 14 -44 14 -12 0 -41 40 -41
58 0 7 11 24 25 37 30 31 74 32 106 5z m611 -10 c13 -16 18 -40 18 -80 0 -72
-19 -99 -76 -107 -33 -4 -45 -1 -70 20 -26 23 -29 31 -29 87 0 56 3 64 29 87
25 21 37 24 70 20 25 -4 48 -14 58 -27z m219 14 c16 -15 20 -15 41 0 28 20 52
20 72 0 12 -12 16 -37 16 -105 0 -82 -1 -89 -20 -89 -18 0 -20 7 -20 85 0 73
-2 85 -17 85 -37 0 -53 -30 -53 -102 0 -61 -2 -68 -20 -68 -18 0 -20 7 -20 80
0 90 -11 105 -55 76 -23 -15 -25 -23 -25 -86 0 -63 -2 -70 -20 -70 -19 0 -20
7 -20 100 0 93 1 100 20 100 11 0 20 -5 20 -11 0 -5 10 -3 22 5 29 20 57 20
79 0z m342 -4 c53 -42 41 -165 -18 -192 -20 -9 -34 -9 -56 -1 l-29 11 0 -44
c0 -37 -3 -44 -20 -44 -19 0 -20 7 -20 141 l0 141 24 -4 c14 -3 31 -1 38 3 22
15 54 10 81 -11z m234 -6 c8 -11 13 -48 13 -101 l0 -83 -32 1 c-18 0 -45 -2
-61 -6 -74 -19 -98 99 -25 124 17 6 42 11 55 11 18 0 24 5 21 18 -4 20 -62 30
-81 13 -8 -6 -18 -6 -27 0 -13 8 -11 13 10 30 20 17 34 20 69 16 27 -3 50 -12
58 -23z m227 10 c12 -12 16 -37 16 -105 0 -82 -1 -89 -20 -89 -18 0 -20 7 -20
85 0 75 -2 85 -18 85 -10 0 -28 -7 -40 -16 -19 -13 -22 -24 -22 -85 0 -62 -2
-69 -20 -69 -19 0 -20 7 -20 100 0 93 1 100 20 100 11 0 20 -5 20 -11 0 -5 10
-3 22 5 29 20 62 20 82 0z m-3444 -73 c0 -46 5 -83 11 -86 5 -4 23 -1 40 5 28
12 29 14 29 86 0 67 2 74 20 74 19 0 20 -7 20 -100 l0 -100 -32 1 c-18 0 -47
-3 -64 -6 -52 -11 -64 11 -64 116 0 82 1 89 20 89 18 0 20 -7 20 -79z m470
-21 c0 -93 -1 -100 -20 -100 -19 0 -20 7 -20 100 0 93 1 100 20 100 19 0 20
-7 20 -100z m690 0 c0 -93 -1 -100 -20 -100 -19 0 -20 7 -20 100 0 93 1 100
20 100 19 0 20 -7 20 -100z m2414 38 c12 -31 24 -59 27 -62 3 -3 16 23 28 59
18 49 28 65 42 65 10 0 19 -4 19 -8 0 -4 -21 -59 -46 -122 -48 -122 -72 -153
-113 -148 -34 4 -34 32 0 36 16 2 31 12 38 28 9 21 6 39 -24 115 -19 50 -35
93 -35 96 0 2 10 3 22 1 16 -2 27 -18 42 -60z"/>
<path d="M1891 1741 c-26 -47 -6 -121 32 -121 41 0 48 13 45 76 -3 58 -3 59
-35 62 -23 2 -34 -2 -42 -17z"/>
<path d="M998 1740 l-16 -50 38 0 38 0 -16 50 c-9 28 -19 50 -22 50 -3 0 -13
-22 -22 -50z"/>
<path d="M1662 1748 c-17 -17 -16 -103 2 -117 8 -7 27 -11 43 -9 34 4 51 50
37 101 -8 26 -15 33 -39 35 -17 2 -36 -3 -43 -10z"/>
<path d="M2126 1745 c-9 -25 -9 -25 35 -25 33 0 40 3 37 18 -4 24 -63 29 -72
7z"/>
<path d="M3120 1734 c-22 -58 -4 -114 38 -114 39 0 52 17 52 70 0 53 -13 70
-52 70 -21 0 -31 -6 -38 -26z"/>
<path d="M4848 1683 c-32 -5 -50 -25 -42 -47 13 -35 84 -10 84 29 0 14 -3 24
-7 24 -5 -1 -20 -4 -35 -6z"/>
<path d="M5302 1748 c-7 -7 -12 -33 -12 -58 0 -25 5 -51 12 -58 17 -17 53 -15
68 3 16 19 15 92 -1 111 -14 17 -51 18 -67 2z"/>
<path d="M6340 1734 c-22 -58 -4 -114 38 -114 39 0 52 17 52 70 0 53 -13 70
-52 70 -21 0 -31 -6 -38 -26z"/>
<path d="M6922 1748 c-7 -7 -12 -36 -12 -65 0 -48 2 -53 25 -59 35 -9 54 1 66
33 8 20 7 39 -1 66 -9 31 -15 37 -38 37 -16 0 -33 -5 -40 -12z"/>
<path d="M7175 1681 c-23 -5 -31 -12 -33 -34 -3 -22 1 -27 18 -27 35 0 60 19
60 45 0 14 -3 24 -7 24 -5 -1 -21 -4 -38 -8z"/>
<path d="M13630 2064 c0 -9 5 -14 12 -12 18 6 21 28 4 28 -9 0 -16 -7 -16 -16z"/>
<path d="M13852 2069 c2 -7 10 -15 17 -17 8 -3 12 1 9 9 -2 7 -10 15 -17 17
-8 3 -12 -1 -9 -9z"/>
<path d="M12845 1959 c-4 -6 -5 -13 -2 -16 7 -7 27 6 27 18 0 12 -17 12 -25
-2z"/>
<path d="M13067 1964 c-8 -8 1 -24 14 -24 5 0 9 7 9 15 0 15 -12 20 -23 9z"/>
<path d="M13290 1955 c0 -8 7 -15 15 -15 8 0 15 7 15 15 0 8 -7 15 -15 15 -8
0 -15 -7 -15 -15z"/>
<path d="M13740 1955 c0 -8 7 -15 15 -15 8 0 15 7 15 15 0 8 -7 15 -15 15 -8
0 -15 -7 -15 -15z"/>
<path d="M13967 1964 c-8 -8 1 -24 14 -24 5 0 9 7 9 15 0 15 -12 20 -23 9z"/>
<path d="M12507 1853 c-12 -11 -8 -23 8 -23 8 0 15 7 15 15 0 16 -12 20 -23 8z"/>
<path d="M12725 1850 c-3 -6 1 -13 10 -16 19 -8 30 0 20 15 -8 14 -22 14 -30
1z"/>
<path d="M12956 1853 c-11 -11 -6 -23 9 -23 8 0 15 4 15 9 0 13 -16 22 -24 14z"/>
<path d="M13180 1845 c0 -8 5 -15 10 -15 6 0 10 7 10 15 0 8 -4 15 -10 15 -5
0 -10 -7 -10 -15z"/>
<path d="M13630 1845 c0 -9 5 -15 11 -13 6 2 11 8 11 13 0 5 -5 11 -11 13 -6
2 -11 -4 -11 -13z"/>
<path d="M13850 1845 c0 -8 7 -15 15 -15 8 0 15 7 15 15 0 8 -7 15 -15 15 -8
0 -15 -7 -15 -15z"/>
<path d="M14077 1854 c-8 -8 1 -24 14 -24 5 0 9 7 9 15 0 15 -12 20 -23 9z"/>
<path d="M11726 1743 c-11 -11 -6 -23 9 -23 8 0 15 4 15 9 0 13 -16 22 -24 14z"/>
<path d="M11946 1743 c-11 -11 -6 -23 9 -23 8 0 15 4 15 9 0 13 -16 22 -24 14z"/>
<path d="M12396 1743 c-11 -11 -6 -23 9 -23 8 0 15 4 15 9 0 13 -16 22 -24 14z"/>
<path d="M12846 1743 c-11 -11 -6 -23 9 -23 8 0 15 4 15 9 0 13 -16 22 -24 14z"/>
<path d="M13067 1743 c-12 -11 -8 -23 8 -23 8 0 15 7 15 15 0 16 -12 20 -23 8z"/>
<path d="M13296 1743 c-11 -11 -6 -23 9 -23 8 0 15 4 15 9 0 13 -16 22 -24 14z"/>
<path d="M13746 1743 c-11 -11 -6 -23 9 -23 8 0 15 4 15 9 0 13 -16 22 -24 14z"/>
<path d="M15766 1743 c-11 -11 -6 -23 9 -23 8 0 15 4 15 9 0 13 -16 22 -24 14z"/>
<path d="M12610 1730 c0 -5 7 -10 15 -10 8 0 15 5 15 10 0 6 -7 10 -15 10 -8
0 -15 -4 -15 -10z"/>
<path d="M13960 1730 c0 -5 7 -10 15 -10 8 0 15 5 15 10 0 6 -7 10 -15 10 -8
0 -15 -4 -15 -10z"/>
<path d="M14190 1730 c0 -5 7 -10 15 -10 8 0 15 5 15 10 0 6 -7 10 -15 10 -8
0 -15 -4 -15 -10z"/>
<path d="M11382 1619 c2 -6 8 -10 13 -10 5 0 11 4 13 10 2 6 -4 11 -13 11 -9
0 -15 -5 -13 -11z"/>
<path d="M11832 1619 c2 -6 8 -10 13 -10 5 0 11 4 13 10 2 6 -4 11 -13 11 -9
0 -15 -5 -13 -11z"/>
<path d="M12057 1624 c-11 -11 3 -24 18 -18 8 4 12 10 9 15 -6 11 -18 12 -27
3z"/>
<path d="M12502 1618 c5 -15 28 -18 29 -3 0 6 -7 12 -17 13 -10 3 -15 -1 -12
-10z"/>
<path d="M12725 1621 c-7 -12 12 -24 25 -16 11 7 4 25 -10 25 -5 0 -11 -4 -15
-9z"/>
<path d="M12950 1620 c0 -5 7 -10 15 -10 8 0 15 5 15 10 0 6 -7 10 -15 10 -8
0 -15 -4 -15 -10z"/>
<path d="M13180 1621 c0 -6 5 -13 10 -16 6 -3 10 1 10 9 0 9 -4 16 -10 16 -5
0 -10 -4 -10 -9z"/>
<path d="M13630 1620 c0 -5 7 -10 16 -10 8 0 12 5 9 10 -3 6 -10 10 -16 10 -5
0 -9 -4 -9 -10z"/>
<path d="M13852 1619 c2 -6 8 -10 13 -10 5 0 11 4 13 10 2 6 -4 11 -13 11 -9
0 -15 -5 -13 -11z"/>
<path d="M14077 1624 c-8 -8 1 -24 14 -24 5 0 9 7 9 15 0 15 -12 20 -23 9z"/>
<path d="M14300 1620 c0 -5 7 -10 15 -10 8 0 15 5 15 10 0 6 -7 10 -15 10 -8
0 -15 -4 -15 -10z"/>
<path d="M14535 1621 c-3 -5 -1 -12 5 -16 5 -3 10 1 10 9 0 18 -6 21 -15 7z"/>
<path d="M15425 1621 c-6 -11 9 -23 19 -14 9 9 7 23 -3 23 -6 0 -12 -4 -16 -9z"/>
<path d="M15650 1620 c0 -5 7 -10 16 -10 8 0 12 5 9 10 -3 6 -10 10 -16 10 -5
0 -9 -4 -9 -10z"/>
<path d="M9815 1610 c4 -6 11 -8 16 -5 14 9 11 15 -7 15 -8 0 -12 -5 -9 -10z"/>
<path d="M9697 1514 c-8 -8 1 -24 14 -24 5 0 9 7 9 15 0 15 -12 20 -23 9z"/>
<path d="M9922 1509 c2 -6 8 -10 13 -10 5 0 11 4 13 10 2 6 -4 11 -13 11 -9 0
-15 -5 -13 -11z"/>
<path d="M11266 1511 c-3 -5 1 -11 9 -15 15 -6 29 7 18 18 -9 9 -21 8 -27 -3z"/>
<path d="M11722 1511 c2 -7 7 -12 11 -12 12 1 9 15 -3 20 -7 2 -11 -2 -8 -8z"/>
<path d="M11942 1509 c2 -6 8 -10 13 -10 5 0 11 4 13 10 2 6 -4 11 -13 11 -9
0 -15 -5 -13 -11z"/>
<path d="M12165 1511 c-7 -12 12 -24 25 -16 11 7 4 25 -10 25 -5 0 -11 -4 -15
-9z"/>
<path d="M12392 1509 c2 -6 8 -10 13 -10 5 0 11 4 13 10 2 6 -4 11 -13 11 -9
0 -15 -5 -13 -11z"/>
<path d="M12615 1511 c-7 -12 12 -24 25 -16 11 7 4 25 -10 25 -5 0 -11 -4 -15
-9z"/>
<path d="M12842 1511 c4 -13 18 -16 19 -4 0 4 -5 9 -11 12 -7 2 -11 -2 -8 -8z"/>
<path d="M13067 1514 c-8 -8 1 -24 14 -24 5 0 9 7 9 15 0 15 -12 20 -23 9z"/>
<path d="M13292 1511 c2 -7 7 -12 11 -12 12 1 9 15 -3 20 -7 2 -11 -2 -8 -8z"/>
<path d="M13740 1504 c0 -9 5 -14 12 -12 18 6 21 28 4 28 -9 0 -16 -7 -16 -16z"/>
<path d="M13967 1514 c-8 -8 1 -24 14 -24 5 0 9 7 9 15 0 15 -12 20 -23 9z"/>
<path d="M14192 1511 c2 -7 7 -12 11 -12 12 1 9 15 -3 20 -7 2 -11 -2 -8 -8z"/>
<path d="M14635 1511 c-7 -12 12 -24 25 -16 11 7 4 25 -10 25 -5 0 -11 -4 -15
-9z"/>
<path d="M14865 1511 c-6 -11 9 -23 19 -14 9 9 7 23 -3 23 -6 0 -12 -4 -16 -9z"/>
<path d="M15090 1504 c0 -8 5 -12 10 -9 6 3 10 10 10 16 0 5 -4 9 -10 9 -5 0
-10 -7 -10 -16z"/>
<path d="M15312 1509 c2 -6 8 -10 13 -10 5 0 11 4 13 10 2 6 -4 11 -13 11 -9
0 -15 -5 -13 -11z"/>
<path d="M15540 1505 c0 -9 5 -15 11 -13 6 2 11 8 11 13 0 5 -5 11 -11 13 -6
2 -11 -4 -11 -13z"/>
<path d="M15760 1504 c0 -9 5 -14 12 -12 18 6 21 28 4 28 -9 0 -16 -7 -16 -16z"/>
<path d="M16206 1511 c-3 -5 0 -11 8 -14 15 -6 26 1 26 15 0 11 -27 10 -34 -1z"/>
<path d="M17555 1511 c-7 -12 12 -24 25 -16 11 7 4 25 -10 25 -5 0 -11 -4 -15
-9z"/>
<path d="M9811 1401 c-10 -7 -10 -10 -1 -16 6 -4 16 -3 22 3 13 13 -4 23 -21
13z"/>
<path d="M17453 1403 c-18 -7 -16 -23 2 -23 8 0 15 7 15 15 0 8 -1 15 -2 14
-2 0 -9 -3 -15 -6z"/>
<path d="M9580 1390 c0 -5 7 -10 15 -10 8 0 15 5 15 10 0 6 -7 10 -15 10 -8 0
-15 -4 -15 -10z"/>
<path d="M10035 1390 c3 -5 10 -10 16 -10 5 0 9 5 9 10 0 6 -7 10 -16 10 -8 0
-12 -4 -9 -10z"/>
<path d="M11158 1388 c9 -9 15 -9 24 0 9 9 7 12 -12 12 -19 0 -21 -3 -12 -12z"/>
<path d="M11830 1390 c0 -5 7 -10 15 -10 8 0 15 5 15 10 0 6 -7 10 -15 10 -8
0 -15 -4 -15 -10z"/>
<path d="M12058 1388 c9 -9 15 -9 24 0 9 9 7 12 -12 12 -19 0 -21 -3 -12 -12z"/>
<path d="M12725 1390 c3 -5 13 -10 21 -10 8 0 14 5 14 10 0 6 -9 10 -21 10
-11 0 -17 -4 -14 -10z"/>
<path d="M12955 1390 c3 -5 10 -10 16 -10 5 0 9 5 9 10 0 6 -7 10 -16 10 -8 0
-12 -4 -9 -10z"/>
<path d="M13630 1390 c0 -5 4 -10 9 -10 6 0 13 5 16 10 3 6 -1 10 -9 10 -9 0
-16 -4 -16 -10z"/>
<path d="M13850 1390 c0 -5 7 -10 15 -10 8 0 15 5 15 10 0 6 -7 10 -15 10 -8
0 -15 -4 -15 -10z"/>
<path d="M14078 1388 c9 -9 15 -9 24 0 9 9 7 12 -12 12 -19 0 -21 -3 -12 -12z"/>
<path d="M14300 1390 c0 -5 7 -10 15 -10 8 0 15 5 15 10 0 6 -7 10 -15 10 -8
0 -15 -4 -15 -10z"/>
<path d="M14750 1390 c0 -5 4 -10 9 -10 6 0 13 5 16 10 3 6 -1 10 -9 10 -9 0
-16 -4 -16 -10z"/>
<path d="M15425 1390 c3 -5 10 -10 16 -10 5 0 9 5 9 10 0 6 -7 10 -16 10 -8 0
-12 -4 -9 -10z"/>
<path d="M15650 1390 c0 -5 4 -10 9 -10 6 0 13 5 16 10 3 6 -1 10 -9 10 -9 0
-16 -4 -16 -10z"/>
<path d="M15870 1390 c0 -5 7 -10 15 -10 8 0 15 5 15 10 0 6 -7 10 -15 10 -8
0 -15 -4 -15 -10z"/>
<path d="M16320 1390 c0 -5 7 -10 15 -10 8 0 15 5 15 10 0 6 -7 10 -15 10 -8
0 -15 -4 -15 -10z"/>
<path d="M17670 1390 c0 -5 7 -10 15 -10 8 0 15 5 15 10 0 6 -7 10 -15 10 -8
0 -15 -4 -15 -10z"/>
</g>
</svg>
