<?xml version="1.0" standalone="yes"?>
<svg xmlns="http://www.w3.org/2000/svg" width="612" height="408">
<path style="fill:#060406; stroke:none;" d="M0 0L0 408L612 408L612 0L0 0z"/>
<path style="fill:#d5e2fb; stroke:none;" d="M101 351C102.33 341.682 99.6461 332.323 100.039 323C100.715 306.972 107.171 282.299 101.258 267.004C98.0764 258.775 87.2993 254.954 83.1142 247.09C78.8605 239.096 96.8548 220.833 103 217.228C106.043 215.442 111.808 215.266 113.393 211.721C116.469 204.839 106.389 196.881 111.604 190.279C114.703 186.356 122.081 186.271 125.678 189.564C131.928 195.286 121.706 205.08 124.607 211.772C126.308 215.695 132.733 215.539 136 217.703C142.96 222.312 154.981 235.107 155.755 244C156.646 254.218 139.994 258.713 136.742 267.015C134.627 272.415 136 280.277 136 286C136 300.39 137 314.622 137 329C137 333.622 133.905 345.961 136.897 349.397C139.783 352.711 149 351 153 351L153 350C145.623 342.085 156.505 339.005 163 339L163 285C163 279.46 161.14 269.727 165.434 265.434C169.451 261.416 177.821 263 183 263L183 184C183 174.641 180.012 160.777 191 157C186.655 146.745 189.541 138.913 201 138L192.785 126.985L196 107C187.694 107.455 184.162 113.251 183 121C175.751 113.894 185.432 107.755 189.487 102C192.347 97.9414 192.574 92.7952 196.214 89.1481C204.82 80.5246 211.094 92.3074 212.532 100C213.238 103.773 212.879 107.307 212 111L204 107L210 127C219.847 120.419 226.69 121 239 121C236.588 125.53 232.366 132.745 232.632 138C233.101 147.29 243.39 156.97 252 157L252 164L248 164C251.593 172.338 254.962 180.757 265 181L265 182L251 184C250.36 175.509 238.378 164.632 230 164C226.919 175.287 218.225 185.496 224 197C209.997 190.47 218.987 176.832 220 164L190 164L190 263L230 263C234.758 263 241.858 261.725 245.566 265.434C254.336 274.203 239.775 294.296 255 298L255 294C272.302 294 291.918 291.384 308.98 294.148C316.025 295.289 312.054 302.787 308 305L308 310L315 310L315 315L310 315L311 320L308 320L308 330C312.28 332.383 311.332 335.596 311 340L422 340C419.995 314.599 410.236 287.215 416 262C408.708 259.807 404.493 245.938 403 239C413.465 238.657 412.518 225.904 423 224L423 223C410.608 221.615 414.357 199.535 426 198.577C436.145 197.743 448.75 218.045 435 222L435 224C449.948 226.709 458.059 253.359 438 255C447.092 274.473 446.314 296.832 450.789 318C452.028 323.857 450.892 336.688 456 340L456 164L425 164L425 157C433.264 157 454.693 153.186 460.258 160.344C463.011 163.885 462 169.808 462 174L462 208L462 339C471.909 339 500.195 333.989 493 351L538 351C542.629 351 550.814 352.602 554.182 348.682C559.519 342.471 560 331.695 560 324C560.001 301.422 548.806 282.656 544.449 261C540.263 240.195 548.485 223.587 553.848 204C563.139 170.065 564.263 133.558 536.83 107.579C499.774 72.4873 449.67 68.0743 402 78.2107C373.871 84.1921 345.229 95.7897 316 92.8295C301.895 91.4009 290.479 83.0836 278 77.3094C253.27 65.867 226.966 53.5131 199 54.2593C167.398 55.1025 126.752 71.1054 113.428 102C102.57 127.177 104.282 155.686 92.6914 181C79.6747 209.428 56.5694 231.865 49.2361 263C43.8932 285.685 46.3468 310.076 56.8086 331C59.7642 336.911 64.4165 346.54 70.3002 349.972C77.2638 354.034 93.0146 351 101 351z"/>
<path style="fill:#fbae39; stroke:none;" d="M198 86L199 87L198 86z"/>
<path style="fill:#304987; stroke:none;" d="M183 121C185.745 109.449 197.897 108.432 198 97L208 94C208.895 98.6527 208.289 102.52 204 105L212 111C213.079 107.349 213.215 103.779 212.535 100C211.097 92.0046 204.355 79.7196 195.394 89.2284C192.031 92.7977 192.252 98.0083 189.347 101.83C186.853 105.112 183.075 107.224 181.179 111.001C179.341 114.663 179.58 118.783 183 121z"/>
<path style="fill:#fbae39; stroke:none;" d="M206 86L207 87L206 86M208 88L209 89L208 88M198 97L192.449 126.985L201 138L207 138C212.861 125.468 205.852 117.542 204 105C208.848 103.313 209.229 98.4796 208 94L198 97M211 95L212 96L211 95M191 98L192 99L191 98M212 99L213 100L212 99M189 102L190 103L189 102M188 103L189 104L188 103z"/>
<path style="fill:#304987; stroke:none;" d="M199 139L199 140C206.841 140 225.03 143.351 231.301 138.062C235.344 134.652 237.121 125.845 239 121C232.875 121 219.639 118.488 214.499 122.028C206.45 127.572 211.787 138.849 199 139z"/>
<path style="fill:#ed3ca0; stroke:none;" d="M210 129L211 130L210 129z"/>
<path style="fill:#d5e2fb; stroke:none;" d="M223 129L223 131L225 131L225 129L223 129z"/>
<path style="fill:#ed3ca0; stroke:none;" d="M208 134L209 135L208 134z"/>
<path style="fill:#d5e2fb; stroke:none;" d="M202 137L202 138L205 138L202 137z"/>
<path style="fill:#ed3ca0; stroke:none;" d="M207 137L208 138L207 137z"/>
<path style="fill:#fbae39; stroke:none;" d="M196 138L197 139L196 138z"/>
<path style="fill:#ed3ca0; stroke:none;" d="M223 152L218 179C227.075 183.119 229.449 167.704 231 161C236.735 166.735 244.966 178.377 254 176C249.981 166.346 241.497 145.01 231.826 140.067C224.816 136.484 207.154 140 199 140L199 139L207 139C197.29 134.925 182.434 143.074 190.179 154.682C195.29 162.342 216.927 155.234 223 152z"/>
<path style="fill:#fbae39; stroke:none;" d="M234 142L235 143L234 142M189.333 143.667L189.667 144.333L189.333 143.667M240 151L241 152L240 151z"/>
<path style="fill:#d5e2fb; stroke:none;" d="M222 152L212 156L212 157L222 157L222 152z"/>
<path style="fill:#fbae39; stroke:none;" d="M189 154L190 155L189 154M217 154L218 155L217 154M222 154L223 155L222 154M211 156L212 157L211 156M243 156L244 157L243 156z"/>
<path style="fill:#ed3ca0; stroke:none;" d="M267 156L267 176L410 176L410 156L267 156z"/>
<path style="fill:#304987; stroke:none;" d="M183 263C178.004 263 169.268 261.298 165.514 265.318C161.126 270.017 163 280.108 163 286L163 339C157.459 339.001 143.316 343.151 153 350L153 351L136 351L137 263L132 264L137 259L133.129 230L131.972 217.313L125 213L124 213C120.017 215.82 117.983 215.82 114 213L113 213C104.332 217.966 107.286 222.084 105.022 230.961C102.418 241.174 101 248.952 101 260C104.251 260.134 105.052 260.898 106 264L101 263L100.039 322L101 351L45 351L45 353L568 353L568 351L493 351C502.037 334.063 471.225 339 462 339L462 206L462 173C462 169.002 463.096 162.847 460.258 159.573C454.759 153.227 432.876 157 425 157L425 164L456 164L456 340C451.439 335.534 452.539 327.073 451.562 321C449.646 309.102 445.921 298.138 445.09 286C444.468 276.921 446.561 265.822 439.895 258.318C436.562 254.565 424.196 253.805 419 252L419 251C425.336 250.495 426.436 242.459 420.582 239.603C416.1 237.417 407.927 239 403 239L406 243C405.466 249.408 408.89 260.778 416 262C409.171 286.302 420.053 315.332 422 340L335 340C327.675 340 308.781 336.21 308 346C311.582 346.568 312.943 347.508 314 351L255 351L255 347C247.74 349.075 241.827 351.992 234 350.674C208.891 346.449 208.757 321.015 219 304C208.569 298.248 222.495 285.177 227 298L228 298C231.43 288.463 240.774 294.633 248 296C248 288.476 250.987 272.812 246.821 266.394C243.887 261.874 236.576 263 232 263L190 263L190 164C199.898 164 218.866 168.447 222 157C213.356 157 193.273 153.292 186.279 158.742C180.115 163.545 183 179.067 183 186L183 263M244 157C245.809 161.065 247.491 163.287 252 164L252 157L244 157M231 161L230 164L234 164L231 161z"/>
<path style="fill:#fbae39; stroke:none;" d="M229 166L230 167L229 166M219 168L220 169L219 168M251 170L252 171L251 170M243 172L244 173L243 172M252 172L253 173L252 172M244 173L245 174L244 173M226 174L227 175L226 174M253 174L254 175L253 174M218 176L219 177L218 176M249 177L251 182L260 182C256.747 178.307 253.951 176.744 249 177M268 176L268 177L300 177L268 176M301 176L301 177L315 177L301 176M317 176L317 177L389 177L366 176L317 176M391 176L391 177L409 177L391 176M225 177L226 178L225 177M218 179L219 180L218 179M219 180L215 185L222 194L223 181L219 180z"/>
<path style="fill:#304987; stroke:none;" d="M251 182L251 184L265 182L251 182z"/>
<path style="fill:#fbae39; stroke:none;" d="M261 183L262 184L261 183z"/>
<path style="fill:#304987; stroke:none;" d="M214 185C213.153 190.993 218.565 195.475 224 197L214 185M111 200L112 200C114.312 193.713 120.271 195 126 195L126 200C133.887 185.165 106.598 181.459 111 200z"/>
<path style="fill:#fbae39; stroke:none;" d="M112 188L113 189L112 188M110 190L111 191L110 190z"/>
<path style="fill:#304987; stroke:none;" d="M300 192L301 193L300 192M315 192L316 193L315 192M389 192L390 193L389 192z"/>
<path style="fill:#ed3ca0; stroke:none;" d="M113 195L114 196L113 195z"/>
<path style="fill:#fbae39; stroke:none;" d="M126 195C122.375 195 116.408 193.904 113.529 196.603C106.672 203.029 120.004 223.983 123.698 211.941C124.467 209.433 124.822 206.576 125.406 204C126.079 201.028 125.998 198.028 126 195z"/>
<path style="fill:#060406; stroke:none;" d="M113 198L113 200L115 200L115 198L113 198z"/>
<path style="fill:#304987; stroke:none;" d="M121.333 198.667L121.667 199.333L121.333 198.667z"/>
<path style="fill:#060406; stroke:none;" d="M122.333 198.667L122.667 199.333L122.333 198.667z"/>
<path style="fill:#304987; stroke:none;" d="M424 223L421 206L431 212L432 223C448.582 219.518 438.958 196.904 426 198.373C413.72 199.765 410.713 222.678 424 223z"/>
<path style="fill:#fbae39; stroke:none;" d="M421 199L422 200L421 199M419 200L420 201L419 200M416 204L417 205L416 204M421 206L423 224C427.087 224.939 432.09 225.459 435 222L432 223L431 212L421 206z"/>
<path style="fill:#ed3ca0; stroke:none;" d="M423 208L424 209L423 208z"/>
<path style="fill:#fbae39; stroke:none;" d="M439 208L440 209L439 208z"/>
<path style="fill:#ed3ca0; stroke:none;" d="M424 209L425 210L424 209z"/>
<path style="fill:#fbae39; stroke:none;" d="M440 210L441 211L440 210z"/>
<path style="fill:#ed3ca0; stroke:none;" d="M427 211L428 212L427 211M419 212L420 213L419 212z"/>
<path style="fill:#304987; stroke:none;" d="M300 213L301 214L300 213M315 213L316 214L315 213M389 213L390 214L389 213z"/>
<path style="fill:#fbae39; stroke:none;" d="M416.333 213.667L416.667 214.333L416.333 213.667M441 213L442 214L441 213M110.667 214.333L111.333 214.667L110.667 214.333M126 214L127 215L126 214M106 215L107 216L106 215M131 215L132 216L131 215M103 216L104 217L103 216z"/>
<path style="fill:#ed3ca0; stroke:none;" d="M94 249C93.1218 241.199 100.385 240.201 103.987 234.536C107.133 229.588 106 221.581 106 216C95.9211 219.218 87.2203 231.419 83.3681 241C79.9423 249.52 87.4519 252.264 94 249M132 216C133.306 221.487 131.378 228.983 134.028 233.91C137.264 239.928 146.097 241.013 144 249C150.301 251.404 159.08 250.011 155.157 241C150.941 231.319 142.443 219.102 132 216z"/>
<path style="fill:#fbae39; stroke:none;" d="M134 216L135 217L134 216M136 217L137 218L136 217M100 218L101 219L100 218z"/>
<path style="fill:#060406; stroke:none;" d="M118 219C117.895 231.742 112.238 248.027 118 260L120 260C124.313 251.038 122.311 227.97 118 219z"/>
<path style="fill:#fbae39; stroke:none;" d="M415 219L416 220L415 219z"/>
<path style="fill:#ed3ca0; stroke:none;" d="M422 219L423 220L422 219z"/>
<path style="fill:#fbae39; stroke:none;" d="M438 221L439 222L438 221M94 224L95 225L94 224z"/>
<path style="fill:#ed3ca0; stroke:none;" d="M410 239C418.317 239 424.665 239.911 424 250L427 250L425 254C429.283 255.087 431.22 256.934 436.001 255.995C439.944 255.221 446.578 254.657 449.396 251.487C454.065 246.234 446.395 230.095 441.892 226.434C430.102 216.848 412.998 226.377 410 239z"/>
<path style="fill:#fbae39; stroke:none;" d="M93 225L94 226L93 225M415 226L416 227L415 226M442 226L443 227L442 226M146 227L147 228L146 227M443 227L444 228L443 227M90 229L91 230L90 229M413 229L414 230L413 229M148 230L149 231L148 230M88 232L89 233L88 232M150 233L151 234L150 233M446 233L447 234L446 233z"/>
<path style="fill:#304987; stroke:none;" d="M300 234L301 235L300 234M315.667 234.333L316.333 234.667L315.667 234.333M389.667 234.333L390.333 234.667L389.667 234.333z"/>
<path style="fill:#fbae39; stroke:none;" d="M86 235L87 236L86 235z"/>
<path style="fill:#d5e2fb; stroke:none;" d="M135 236L137 260L138 260L146 244L135 236z"/>
<path style="fill:#fbae39; stroke:none;" d="M152 236L153 237L152 236M410 236L411 237L410 236M137 237L138 238L137 237M99 238L98 240L99 238z"/>
<path style="fill:#d5e2fb; stroke:none;" d="M100 238C92.7675 243.964 92.3574 253.339 101 259L100 238z"/>
<path style="fill:#fbae39; stroke:none;" d="M409 238L410 239L409 238M448 238L449 239L448 238M83 240L84 241L83 240M142 241L143 242L142 241z"/>
<path style="fill:#304987; stroke:none;" d="M438 241L435 248C439.382 246.817 441.688 244.723 438 241z"/>
<path style="fill:#fbae39; stroke:none;" d="M449 241L450 242L449 241M82 242L83 243L82 242M143 242L144 243L143 242M93 243L94 244L93 243M135 243L135 246L136 246L135 243M156 243L157 244L156 243M404 243L404 246L406 243L404 243M81 244L82 245L81 244M450 244L451 245L450 244z"/>
<path style="fill:#ed3ca0; stroke:none;" d="M405 245L406 246L405 245z"/>
<path style="fill:#fbae39; stroke:none;" d="M93 246L94 247L93 246M101 246L101 249L102 249L101 246M144 247L145 248L144 247M155 247L156 248L155 247M83 248L84 249L83 248M87 251L100 265L106 264L105 259C98.7429 259.103 97.1644 254.197 95 249L87 251M144 249L138 260L134 259L132 263L133 264L138 265L152 252L144 249M425 249L420 251C422.668 253.615 427.508 253.438 425 249M152 251L153 252L152 251z"/>
<path style="fill:#ed3ca0; stroke:none;" d="M419 251L420 252L419 251z"/>
<path style="fill:#fbae39; stroke:none;" d="M136.333 252.667L136.667 253.333L136.333 252.667z"/>
<path style="fill:#ed3ca0; stroke:none;" d="M420 252L421 253L420 252z"/>
<path style="fill:#fbae39; stroke:none;" d="M446 253L447 254L446 253M442 254L443 255L442 254z"/>
<path style="fill:#304987; stroke:none;" d="M300 255L301 256L300 255M315 255L316 256L315 255M389 255L390 256L389 255z"/>
<path style="fill:#ed3ca0; stroke:none;" d="M133 259L134 260L133 259M136 259L137 260L136 259M105 260L106 261L105 260z"/>
<path style="fill:#fbae39; stroke:none;" d="M411 260L412 261L411 260z"/>
<path style="fill:#ed3ca0; stroke:none;" d="M132 261L133 262L132 261z"/>
<path style="fill:#fbae39; stroke:none;" d="M287 261L288 262L287 261z"/>
<path style="fill:#ed3ca0; stroke:none;" d="M132 263L133 264L132 263M134 263L135 264L134 263z"/>
<path style="fill:#fbae39; stroke:none;" d="M243 263L244 264L243 263M293 263L294 264L293 263M165 264L166 265L165 264M245 264L246 265L245 264M164 265L165 266L164 265M282 266L282 267L285 267L282 266M163.333 267.667L163.667 268.333L163.333 267.667z"/>
<path style="fill:#ed3ca0; stroke:none;" d="M282 267L282 269L291 270L282 267z"/>
<path style="fill:#fbae39; stroke:none;" d="M286 267L286 268L291 269L286 267M414 267L415 268L414 267M281 268L282 269L281 268z"/>
<path style="fill:#d5e2fb; stroke:none;" d="M170.318 270.028C166.822 272.361 166.823 281.331 171.228 282.682C186.008 287.213 208.493 283 224 283C228.32 283 237.852 284.779 241.397 281.972C244.423 279.576 243.721 271.466 239.852 270.318C234.34 268.681 226.729 270 221 270C209.953 270 199.055 269 188 269C183.281 269 174.39 267.311 170.318 270.028z"/>
<path style="fill:#fbae39; stroke:none;" d="M205 269L205 270L222 270L205 269M282 269L282 270L286 270L282 269M291 269L292 270L291 269M444 269L445 270L444 269M289 270L290 271L289 270z"/>
<path style="fill:#304987; stroke:none;" d="M195 276L196 276L198 276C198.979 273.085 195.713 272.689 195 276M200 276L202 274L203 274L205 276C203.232 273.25 201.898 273.425 200 276M207 273L206 280L210 277L209 277L207 279L207 274L209 276L210 276L209 273L207 273M212 276L213 276L216 276C214.67 273.293 212.729 272.668 212 276M218 273L217 280L221 280L220 273L218 273M223 276L226 275L226 279L224 277L223 277L227 280C226.907 277.187 225.988 271.813 223 276M192.333 274.667L192.667 275.333L192.333 274.667z"/>
<path style="fill:#d5e2fb; stroke:none;" d="M218 274L218 279L220 279L220 274L218 274z"/>
<path style="fill:#304987; stroke:none;" d="M228 274L228 280L232 278L229 279L229 275L232 276L228 274M234 274L234 280L238 280L238 274L234 274z"/>
<path style="fill:#d5e2fb; stroke:none;" d="M235 275L235 279L237 279L237 275L235 275z"/>
<path style="fill:#304987; stroke:none;" d="M195 277C195.741 280.457 198.259 280.457 199 277L198 277L195 277M200 277L204 280L204 279L200 277M215 277L212 278C213.499 280.076 216.093 279.887 215 277M192 278L193 279L192 278z"/>
<path style="fill:#fbae39; stroke:none;" d="M414 282L415 283L414 282M118 288L119 289L118 288M445.333 288.667L445.667 289.333L445.333 288.667z"/>
<path style="fill:#d5e2fb; stroke:none;" d="M118 289L110 351L128 351L121.285 311L118 289z"/>
<path style="fill:#304987; stroke:none;" d="M343 289L343 291L384 291L384 289L343 289z"/>
<path style="fill:#fbae39; stroke:none;" d="M403 290L402 294C398.418 293.885 388.587 294.124 385.688 296.066C382.133 298.449 380.052 306.144 383.518 309.258C390.009 315.089 403.457 306.655 409 303L409 302C402.925 304.836 380.604 317.466 384 301C387.182 305.718 390.639 307.7 394 302C398.027 301.842 400.194 299.504 402 296L405 296L403 290M415 290L416 291L415 290M119 292L120 293L119 292z"/>
<path style="fill:#ed3ca0; stroke:none;" d="M172.603 293.028C166.708 297.704 176.626 303.758 181.257 299.972C186.839 295.41 177.071 289.484 172.603 293.028M187.318 293.028C180.946 297.266 188.068 307.368 194.682 302.972C201.245 298.611 194.218 288.438 187.318 293.028M202.318 293.028C195.525 297.543 204.045 307.999 210.397 302.972C216.077 298.477 208.677 288.801 202.318 293.028M240 295C235.568 290.475 229.369 291.585 228 298C225.952 294.016 221.458 289.337 216.603 293.179C214.413 294.912 214.131 301.277 216.603 302.914C219.866 305.075 235.32 295.968 240 295z"/>
<path style="fill:#fbae39; stroke:none;" d="M255 294L255 298C249.312 296.196 242.997 294.413 237 295.465C208.939 300.389 200.187 341.454 231 350.211C239.427 352.606 247.268 350.171 255 347L255 351L314 351C313.348 347.089 311.864 346.3 308 346C308.77 340.831 315.688 332.554 308 330L308 320L311 320L310 315L315 315L315 310L308 310L308 305C312.153 303.63 316.645 295.281 309.941 294.148C292.659 291.228 272.547 294 255 294z"/>
<path style="fill:#304987; stroke:none;" d="M343 294L343 296L376 296L376 294L343 294z"/>
<path style="fill:#ed3ca0; stroke:none;" d="M244.667 295.333L245.333 295.667L244.667 295.333z"/>
<path style="fill:#d5e2fb; stroke:none;" d="M386 298L389 297L386 298M395 296L395 301L399 297L395 296M400 296L401 297L400 296M386 299C387.673 307.016 392.789 303.492 393 297L386 299z"/>
<path style="fill:#fbae39; stroke:none;" d="M416 298L417 299L416 298M101 300L102 301L101 300M120 300L121 301L120 300M446 300L447 301L446 300M417.333 305.667L417.667 306.333L417.333 305.667z"/>
<path style="fill:#ed3ca0; stroke:none;" d="M172.603 308.028C166.944 312.521 175.779 318.285 180.566 314.972C187.119 310.436 177.502 304.139 172.603 308.028M216 307L217 308L216 307z"/>
<path style="fill:#fbae39; stroke:none;" d="M448 308L449 309L448 308M121 312L122 313L121 312M418 313L419 314L418 313z"/>
<path style="fill:#d5e2fb; stroke:none;" d="M433 313L432 340L446 340L433 313z"/>
<path style="fill:#ed3ca0; stroke:none;" d="M212 315L213 316L212 315z"/>
<path style="fill:#fbae39; stroke:none;" d="M434 315L435 316L434 315z"/>
<path style="fill:#ed3ca0; stroke:none;" d="M211 319L212 320L211 319z"/>
<path style="fill:#fbae39; stroke:none;" d="M419 320L420 321L419 320z"/>
<path style="fill:#ed3ca0; stroke:none;" d="M173.318 321.742C167.268 324.813 174.08 333.008 179.682 330.254C185.929 327.183 179.521 318.593 173.318 321.742z"/>
<path style="fill:#fbae39; stroke:none;" d="M432.333 322.667L432.667 323.333L432.333 322.667M439 326L440 327L439 326M420 328L421 329L420 328M440 328L441 329L440 328M452 328L453 329L452 328M100 331L101 332L100 331z"/>
<path style="fill:#ed3ca0; stroke:none;" d="M212 332L213 333L212 332z"/>
<path style="fill:#fbae39; stroke:none;" d="M421 335L422 336L421 335z"/>
<path style="fill:#ed3ca0; stroke:none;" d="M172.603 337.028C167.118 341.379 175.728 347.676 180.397 343.972C185.882 339.621 177.272 333.324 172.603 337.028z"/>
<path style="fill:#fbae39; stroke:none;" d="M111 341L112 342L111 341M150 342L151 343L150 342z"/>
<path style="fill:#ed3ca0; stroke:none;" d="M226 348L227 349L226 348z"/>
<path style="fill:#fbae39; stroke:none;" d="M136 350L137 351L136 350z"/>
</svg>
